{
.appVersion = "3133";
.formatVersion = 3;
axes = (
{
name = Weight;
tag = wght;
}
);
classes = (
{
automatic = 1;
code = "A Aacute Abreve Acircumflex Adieresis Agrave Amacron Aogonek Aring Atilde AE B C Cacute Ccaron Ccedilla Cdotaccent D Eth Dcaron Dcroat E Eacute Ecaron Ecircumflex Edieresis Edotaccent Egrave Emacron Eogonek F G Gbreve Gcommaaccent Gdotaccent H Hbar I Iacute Icircumflex Idieresis Idotaccent Igrave Imacron Iogonek J K Kcommaaccent L Lacute Lcaron Lcommaaccent Lslash M N Nacute Ncaron Ncommaaccent Eng Ntilde O Oacute Ocircumflex Odieresis Ograve Ohungarumlaut Omacron Oslash Otilde OE P Thorn Q R Racute Rcaron Rcommaaccent S Sacute Scaron Scedilla Scommaaccent Germandbls T Tbar Tcaron Tcedilla Tcommaaccent U Uacute Ucircumflex Udieresis Ugrave Uhungarumlaut Umacron Uogonek Uring V W Wacute Wcircumflex Wdieresis Wgrave X Y Yacute Ycircumflex Ydieresis Ygrave Z Zacute Zcaron Zdotaccent A-cy Be-cy Ve-cy Ge-cy Gje-cy Gheupturn-cy De-cy Ie-cy Iegrave-cy Io-cy Zhe-cy Ze-cy Ii-cy Iishort-cy Iigrave-cy Ka-cy Kje-cy El-cy Em-cy En-cy O-cy Pe-cy Er-cy Es-cy Te-cy U-cy Ushort-cy Ef-cy Ha-cy Che-cy Tse-cy Sha-cy Shcha-cy Dzhe-cy Softsign-cy Hardsign-cy Yeru-cy Lje-cy Nje-cy Dze-cy E-cy Ereversed-cy I-cy Yi-cy Je-cy Tshe-cy Iu-cy Ia-cy Dje-cy Ustrait-cy Shha-cy Obarred-cy De-cy.loclBGR Zhe-cy.loclBGR Ka-cy.loclBGR El-cy.loclBGR Alpha Beta Gamma Delta Epsilon Zeta Eta Theta Iota Kappa Lambda Mu Nu Xi Omicron Pi Rho Sigma Tau Upsilon Phi Chi Psi Omega Alphatonos Epsilontonos Etatonos Iotatonos Omicrontonos Upsilontonos Omegatonos Iotadieresis Upsilondieresis";
name = Uppercase;
},
{
automatic = 1;
code = "zero one two three four five six seven eight nine";
name = Digit;
}
);
customParameters = (
{
name = fsType;
value = (
);
},
{
name = "Use Typo Metrics";
value = 1;
},
{
name = blueScale;
value = 0.03796;
},
{
name = "Variable Font Origin";
value = "CAA188E2-8C62-414B-93AE-B576BEB044DB";
},
{
name = "Virtual Master";
value = (
{
Axis = Weight;
Location = 400;
}

glyphs = (
{
glyphname = A;
kernLeft = A;
kernRight = A;
lastChange = "2020-02-20 18:21:12 +0000";
layers = (
{
layerId = "CAA188E2-8C62-414B-93AE-B576BEB044DB";
shapes = (
{
closed = 1;
nodes = (
(130,0,l),
(638,1402,l),
(578,1402,l),
(1088,0,l),
(1178,0,l),
(654,1440,l),
(564,1440,l),
(40,0,l)
);
},
{
closed = 1;
nodes = (
(976,374,l),
(976,454,l),
(240,454,l),
(240,374,l)
);
}
);
width = 1218;
},
{
layerId = "0DA27741-1AFD-43F2-A947-40AFBF8D6498";
shapes = (
{
closed = 1;
nodes = (
(320,0,l),
(706,1270,l),
(654,1270,l),
(1046,0,l),
(1326,0,l),
(886,1440,l),
(480,1440,l),
(40,0,l)
);
},
{
closed = 1;
nodes = (
(1064,300,l),
(1064,554,l),
(304,554,l),
(304,300,l)
);
}
);
width = 1366;
},
{
associatedMasterId = "0DA27741-1AFD-43F2-A947-40AFBF8D6498";
layerId = "A2873047-0ED6-4C67-9B4D-3870B51BD5C6";
shapes = (
{
closed = 1;
nodes = (
(10,0,l),
(310,0,l),
(366,180,l),
(952,180,l),
(1008,0,l),
(1308,0,l),
(868,1440,l),
(450,1440,l)
);
},
{
closed = 1;
nodes = (
(660,1140,l),
(862,480,l),
(458,480,l)
);
}
);
width = 1318;
},
{
associatedMasterId = "0DA27741-1AFD-43F2-A947-40AFBF8D6498";
layerId = "55314CA7-5524-4D70-B802-98D4FAE25636";
width = 986;
},
{
associatedMasterId = "0DA27741-1AFD-43F2-A947-40AFBF8D6498";
layerId = "13A3DD5D-E91B-4961-8595-F8141D3FA442";
width = 1264;
}
);
note = A;
unicode = 65;
},
{
glyphname = AE;
kernLeft = A;
kernRight = E;
lastChange = "2020-08-02 04:54:55 +0000";
layers = (
{
layerId = "CAA188E2-8C62-414B-93AE-B576BEB044DB";
shapes = (
{
closed = 1;
nodes = (
(130,0,l),
(636,1398,l),
(572,1356,l),
(870,1356,l),
(870,1440,l),
(564,1440,l),
(40,0,l)
);
},
{
closed = 1;
nodes = (
(876,374,l),
(876,454,l),
(240,454,l),
(240,374,l)
);
},
{
pos = (690,0);
ref = E;
}
);
width = 1810;
},
{
layerId = "0DA27741-1AFD-43F2-A947-40AFBF8D6498";
shapes = (
{
closed = 1;
nodes = (
(320,0,l),
(706,1272,l),
(590,1186,l),
(940,1186,l),
(940,1440,l),
(480,1440,l),
(40,0,l)
);
},
{
closed = 1;
nodes = (
(1064,300,l),
(1064,554,l),
(304,554,l),
(304,300,l)
);
},
{
pos = (710,0);
ref = E;
}
);
width = 1890;
},
{
associatedMasterId = "0DA27741-1AFD-43F2-A947-40AFBF8D6498";
layerId = "A2873047-0ED6-4C67-9B4D-3870B51BD5C6";
width = 1200;
},
{
associatedMasterId = "0DA27741-1AFD-43F2-A947-40AFBF8D6498";
layerId = "55314CA7-5524-4D70-B802-98D4FAE25636";
width = 1876;
},
{
associatedMasterId = "0DA27741-1AFD-43F2-A947-40AFBF8D6498";
layerId = "13A3DD5D-E91B-4961-8595-F8141D3FA442";
width = 1308;
}
);
metricLeft = A;
metricRight = E;
unicode = 198;
},
{
glyphname = B;
kernLeft = B;
kernRight = B;
lastChange = "2020-02-20 18:21:12 +0000";
layers = (
{
background = {
shapes = (
{
closed = 1;
nodes = (
(686,800,ls),
(774,800,o),
(874,844,o),
(928,924,cs),
(964,976,o),
(982,1038,o),
(982,1100,cs),
(982,1168,o),
(956,1226,o),
(910,1272,cs),
(854,1328,o),
(774,1358,o),
(686,1358,c),
(220,1358,l),
(220,1440,l),
(686,1440,l),
(804,1440,o),
(898,1398,o),
(976,1324,cs),
(1038,1264,o),
(1072,1164,o),
(1072,1080,cs),
(1072,1004,o),
(1046,934,o),
(1002,872,cs),
(934,776,o),
(830,718,o),
(696,718,c),
(220,718,l),
(220,800,l)
);
},
{
closed = 1;
nodes = (
(684,84,l),
(806,84,o),
(884,102,o),
(974,188,cs),
(1028,240,o),
(1052,306,o),
(1052,380,cs),
(1052,450,o),
(1032,520,o),
(992,576,cs),
(936,664,o),
(816,718,o),
(724,718,c),
(220,718,l),
(220,798,l),
(724,798,l),
(868,798,o),
(986,736,o),
(1062,630,cs),
(1118,560,o),
(1148,468,o),
(1142,380,cs),
(1136,292,o),
(1108,198,o),
(1052,136,cs),
(954,30,o),
(866,0,o),
(686,0,c),
(180,0,l),
(180,84,l)
);
},
{
closed = 1;
nodes = (
(224,1440,l),
(224,0,l),
(140,0,l),
(140,1440,l)
);
}
);
};
layerId = "CAA188E2-8C62-414B-93AE-B576BEB044DB";
shapes = (
{
closed = 1;
nodes = (
(724,0,ls),
(958,0,o),
(1144,142,o),
(1144,388,cs),
(1144,592,o),
(1018,728,o),
(828,790,c),
(832,742,l),
(976,794,o),
(1072,934,o),
(1072,1086,cs),
(1072,1296,o),
(894,1440,o),
(686,1440,cs),
(140,1440,l),
(140,0,l)
);
},
{
closed = 1;
nodes = (
(224,718,l),
(724,718,ls),
(904,718,o),
(1052,568,o),
(1052,380,cs),
(1052,192,o),
(892,84,o),
(684,84,cs),
(224,84,l)
);
},
{
closed = 1;
nodes = (
(224,1358,l),
(686,1358,ls),
(852,1358,o),
(982,1252,o),
(982,1092,cs),
(982,928,o),
(848,800,o),
(686,800,cs),
(224,800,l)
);
}
);
width = 1202;
},
{
background = {
shapes = (
{
closed = 1;
nodes = (
(712,878,ls),
(772,878,o),
(808,896,o),
(838,926,cs),
(866,954,o),
(872,992,o),
(872,1030,cs),
(872,1070,o),
(860,1112,o),
(828,1144,cs),
(798,1174,o),
(760,1186,o),
(712,1186,cs),
(390,1186,l),
(390,1440,l),
(714,1440,ls),
(840,1440,o),
(936,1414,o),
(1022,1334,cs),
(1110,1252,o),
(1146,1150,o),
(1148,1030,cs),
(1150,926,o),
(1106,832,o),
(1044,782,cs),
(976,726,o),
(886,704,o),
(794,704,cs),
(350,704,l),
(350,878,l)
);
},
{
closed = 1;
nodes = (
(750,256,ls),
(808,256,o),
(850,274,o),
(886,308,cs),
(922,342,o),
(940,388,o),
(940,440,cs),
(940,488,o),
(926,540,o),
(890,576,cs),
(848,618,o),
(792,624,o),
(750,624,cs),
(376,624,l),
(376,796,l),
(788,796,ls),
(882,796,o),
(1014,776,o),
(1100,704,cs),
(1170,644,o),
(1214,540,o),
(1214,440,cs),
(1214,310,o),
(1180,190,o),
(1090,106,cs),
(1006,28,o),
(920,0,o),
(748,0,cs),
(376,0,l),
(376,256,l)
);
},
{
closed = 1;
nodes = (
(416,1440,l),
(416,0,l),
(140,0,l),
(140,1440,l)
);
}
);
};
layerId = "0DA27741-1AFD-43F2-A947-40AFBF8D6498";
shapes = (
{
closed = 1;
nodes = (
(778,0,ls),
(1072,0,o),
(1214,178,o),
(1214,436,cs),
(1214,596,o),
(1124,740,o),
(944,778,c),
(944,728,l),
(1070,764,o),
(1148,874,o),
(1148,1036,cs),
(1148,1226,o),
(1024,1440,o),
(716,1440,cs),
(140,1440,l),
(140,0,l)
);
},
{
closed = 1;
nodes = (
(416,624,l),
(750,624,ls),
(876,624,o),
(940,548,o),
(940,446,cs),
(940,330,o),
(860,256,o),
(750,256,cs),
(416,256,l)
);
},
{
closed = 1;
nodes = (
(416,1186,l),
(712,1186,ls),
(816,1186,o),
(872,1118,o),
(872,1030,cs),
(872,924,o),
(804,878,o),
(712,878,cs),
(416,878,l)
);
}
);
width = 1274;
},
{
associatedMasterId = "0DA27741-1AFD-43F2-A947-40AFBF8D6498";
layerId = "A2873047-0ED6-4C67-9B4D-3870B51BD5C6";
width = 1200;
},
{
associatedMasterId = "0DA27741-1AFD-43F2-A947-40AFBF8D6498";
layerId = "55314CA7-5524-4D70-B802-98D4FAE25636";
width = 1212;
},
{
associatedMasterId = "0DA27741-1AFD-43F2-A947-40AFBF8D6498";
layerId = "13A3DD5D-E91B-4961-8595-F8141D3FA442";
width = 1202;
}
);
metricLeft = H;
note = B;
unicode = 66;
},
{
glyphname = C;
kernLeft = C;
kernRight = C;
lastChange = "2020-02-20 18:21:12 +0000";
layers = (
{
layerId = "CAA188E2-8C62-414B-93AE-B576BEB044DB";
shapes = (
{
closed = 1;
nodes = (
(1042,-30,o),
(1248,160,o),
(1320,452,c),
(1232,472,l),
(1168,218,o),
(992,54,o),
(706,54,cs),
(336,54,o),
(146,330,o),
(150,720,cs),
(154,1110,o),
(336,1386,o),
(706,1386,cs),
(992,1386,o),
(1168,1222,o),
(1232,968,c),
(1320,988,l),
(1248,1280,o),
(1042,1470,o),
(706,1470,cs),
(276,1470,o),
(60,1160,o),
(60,720,cs),
(60,280,o),
(276,-30,o),
(706,-30,cs)
);
}
);
width = 1400;
},
{
layerId = "0DA27741-1AFD-43F2-A947-40AFBF8D6498";
shapes = (
{
closed = 1;
nodes = (
(1088,-30,o),
(1320,146,o),
(1412,426,c),
(1138,502,l),
(1084,328,o),
(958,226,o),
(758,226,cs),
(484,226,o),
(346,420,o),
(346,720,cs),
(346,1020,o),
(484,1214,o),
(758,1214,cs),
(958,1214,o),
(1084,1112,o),
(1138,938,c),
(1412,1014,l),
(1320,1294,o),
(1088,1470,o),
(758,1470,cs),
(326,1470,o),
(60,1168,o),
(60,720,cs),
(60,272,o),
(326,-30,o),
(758,-30,cs)
);
}
);
width = 1492;
},
{
associatedMasterId = "0DA27741-1AFD-43F2-A947-40AFBF8D6498";
layerId = "A2873047-0ED6-4C67-9B4D-3870B51BD5C6";
width = 1200;
},
{
associatedMasterId = "0DA27741-1AFD-43F2-A947-40AFBF8D6498";
layerId = "55314CA7-5524-4D70-B802-98D4FAE25636";
width = 1436;
},
{
associatedMasterId = "0DA27741-1AFD-43F2-A947-40AFBF8D6498";
layerId = "13A3DD5D-E91B-4961-8595-F8141D3FA442";
width = 1238;
}
);
metricLeft = O;
note = C;
unicode = 67;
},
{
glyphname = D;
kernRight = D;
lastChange = "2020-02-20 18:21:12 +0000";
layers = (
{
background = {
shapes = (
{
closed = 1;
nodes = (
(562,0,ls),
(594,0,o),
(686,0,o),
(754,10,cs),
(1072,56,o),
(1224,350,o),
(1224,720,cs),
(1224,1088,o),
(1072,1384,o),
(754,1430,cs),
(684,1440,o),
(596,1440,o),
(562,1440,cs),
(140,1440,l),
(140,0,l)
);
},
{
closed = 1;
nodes = (
(230,1356,l),
(562,1356,ls),
(626,1356,o),
(696,1352,o),
(740,1344,cs),
(1024,1296,o),
(1134,1048,o),
(1134,720,cs),
(1134,392,o),
(1024,144,o),
(740,96,cs),
(696,88,o),
(626,84,o),
(562,84,cs),
(230,84,l)
);
}
);
};
layerId = "CAA188E2-8C62-414B-93AE-B576BEB044DB";
shapes = (
{
closed = 1;
nodes = (
(562,0,ls),
(594,0,o),
(686,0,o),
(754,10,cs),
(1072,56,o),
(1224,350,o),
(1224,720,cs),
(1224,1088,o),
(1072,1384,o),
(754,1430,cs),
(684,1440,o),
(596,1440,o),
(562,1440,cs),
(140,1440,l),
(140,0,l)
);
},
{
closed = 1;
nodes = (
(230,1356,l),
(562,1356,ls),
(622,1356,o),
(696,1352,o),
(740,1344,cs),
(1024,1296,o),
(1134,1048,o),
(1134,720,cs),
(1134,392,o),
(1024,144,o),
(740,96,cs),
(696,88,o),
(626,84,o),
(562,84,cs),
(230,84,l)
);
}
);
width = 1304;
},
{
background = {
shapes = (
{
closed = 1;
nodes = (
(606,0,ls),
(628,0,o),
(712,0,o),
(778,8,cs),
(1126,50,o),
(1320,354,o),
(1320,720,cs),
(1320,1086,o),
(1126,1390,o),
(778,1432,cs),
(712,1440,o),
(628,1440,o),
(606,1440,cs),
(140,1440,l),
(140,0,l)
);
},
{
closed = 1;
nodes = (
(416,1184,l),
(606,1184,ls),
(642,1184,o),
(712,1184,o),
(762,1174,cs),
(944,1138,o),
(1032,936,o),
(1032,720,cs),
(1032,514,o),
(950,304,o),
(762,266,cs),
(712,256,o),
(642,256,o),
(606,256,cs),
(416,256,l)
);
}
);
};
layerId = "0DA27741-1AFD-43F2-A947-40AFBF8D6498";
shapes = (
{
closed = 1;
nodes = (
(606,0,ls),
(628,0,o),
(712,0,o),
(778,8,cs),
(1126,50,o),
(1320,354,o),
(1320,720,cs),
(1320,1086,o),
(1126,1390,o),
(778,1432,cs),
(712,1440,o),
(628,1440,o),
(606,1440,cs),
(140,1440,l),
(140,0,l)
);
},
{
closed = 1;
nodes = (
(416,1184,l),
(606,1184,ls),
(642,1184,o),
(712,1184,o),
(762,1174,cs),
(944,1138,o),
(1032,936,o),
(1032,720,cs),
(1032,514,o),
(950,304,o),
(762,266,cs),
(712,256,o),
(642,256,o),
(606,256,cs),
(416,256,l)
);
}
);
width = 1420;
},
{
associatedMasterId = "0DA27741-1AFD-43F2-A947-40AFBF8D6498";
layerId = "A2873047-0ED6-4C67-9B4D-3870B51BD5C6";
width = 1200;
},
{
associatedMasterId = "0DA27741-1AFD-43F2-A947-40AFBF8D6498";
layerId = "55314CA7-5524-4D70-B802-98D4FAE25636";
width = 1326;
},
{
associatedMasterId = "0DA27741-1AFD-43F2-A947-40AFBF8D6498";
layerId = "13A3DD5D-E91B-4961-8595-F8141D3FA442";
width = 1220;
}
);
metricLeft = H;
note = D;
unicode = 68;
},
{
glyphname = Eth;
kernLeft = D;
kernRight = D;
lastChange = "2020-02-20 18:21:12 +0000";
layers = (
{
layerId = "CAA188E2-8C62-414B-93AE-B576BEB044DB";
shapes = (
{
closed = 1;
nodes = (
(620,678,l),
(620,762,l),
(20,762,l),
(20,678,l)
);
},
{
pos = (-22,0);
ref = D;
}
);
width = 1282;
},
{
layerId = "0DA27741-1AFD-43F2-A947-40AFBF8D6498";
shapes = (
{
closed = 1;
nodes = (
(710,616,l),
(710,826,l),
(20,826,l),
(20,616,l)
);
},
{
pos = (8,0);
ref = D;
}
);
width = 1428;
},
{
associatedMasterId = "0DA27741-1AFD-43F2-A947-40AFBF8D6498";
layerId = "A2873047-0ED6-4C67-9B4D-3870B51BD5C6";
width = 1200;
},
{
associatedMasterId = "0DA27741-1AFD-43F2-A947-40AFBF8D6498";
layerId = "55314CA7-5524-4D70-B802-98D4FAE25636";
width = 1422;
},
{
associatedMasterId = "0DA27741-1AFD-43F2-A947-40AFBF8D6498";
layerId = "13A3DD5D-E91B-4961-8595-F8141D3FA442";
width = 1236;
}
);
metricLeft = t;
metricRight = D;
unicode = 208;
},
{
glyphname = E;
kernLeft = E;
kernRight = E;
lastChange = "2020-02-22 07:59:31 +0000";
layers = (
{
layerId = "CAA188E2-8C62-414B-93AE-B576BEB044DB";
shapes = (
{
closed = 1;
nodes = (
(1020,0,l),
(1020,84,l),
(224,84,l),
(224,678,l),
(900,678,l),
(900,762,l),
(224,762,l),
(224,1356,l),
(1020,1356,l),
(1020,1440,l),
(140,1440,l),
(140,0,l)
);
}
);
width = 1120;
},
{
layerId = "0DA27741-1AFD-43F2-A947-40AFBF8D6498";
shapes = (
{
closed = 1;
nodes = (
(1080,0,l),
(1080,254,l),
(412,254,l),
(412,624,l),
(960,624,l),
(960,878,l),
(412,878,l),
(412,1186,l),
(1080,1186,l),
(1080,1440,l),
(140,1440,l),
(140,0,l)
);
}
);
width = 1180;
},
{
associatedMasterId = "0DA27741-1AFD-43F2-A947-40AFBF8D6498";
layerId = "A2873047-0ED6-4C67-9B4D-3870B51BD5C6";
width = 1200;
},
{
associatedMasterId = "0DA27741-1AFD-43F2-A947-40AFBF8D6498";
layerId = "55314CA7-5524-4D70-B802-98D4FAE25636";
width = 1126;
},
{
associatedMasterId = "0DA27741-1AFD-43F2-A947-40AFBF8D6498";
layerId = "13A3DD5D-E91B-4961-8595-F8141D3FA442";
width = 1188;
}
);
metricLeft = H;
note = E;
unicode = 69;
},
{
glyphname = F;
lastChange = "2020-02-20 18:21:12 +0000";
layers = (
{
layerId = "CAA188E2-8C62-414B-93AE-B576BEB044DB";
shapes = (
{
closed = 1;
nodes = (
(224,0,l),
(224,678,l),
(820,678,l),
(820,762,l),
(224,762,l),
(224,1356,l),
(940,1356,l),
(940,1440,l),
(140,1440,l),
(140,0,l)
);
}
);
width = 980;
},
{
layerId = "0DA27741-1AFD-43F2-A947-40AFBF8D6498";
shapes = (
{
closed = 1;
nodes = (
(412,0,l),
(412,584,l),
(900,584,l),
(900,856,l),
(412,856,l),
(412,1168,l),
(1020,1168,l),
(1020,1440,l),
(140,1440,l),
(140,0,l)
);
}
);
width = 1060;
},
{
associatedMasterId = "0DA27741-1AFD-43F2-A947-40AFBF8D6498";
layerId = "A2873047-0ED6-4C67-9B4D-3870B51BD5C6";
width = 1200;
},
{
associatedMasterId = "0DA27741-1AFD-43F2-A947-40AFBF8D6498";
layerId = "55314CA7-5524-4D70-B802-98D4FAE25636";
width = 1000;
},
{
associatedMasterId = "0DA27741-1AFD-43F2-A947-40AFBF8D6498";
layerId = "13A3DD5D-E91B-4961-8595-F8141D3FA442";
width = 1168;
}
);
metricLeft = H;
note = F;
unicode = 70;
},
{
glyphname = G;
kernLeft = O;
kernRight = G;
lastChange = "2020-08-02 05:08:48 +0000";
layers = (
{
layerId = "CAA188E2-8C62-414B-93AE-B576BEB044DB";
shapes = (
{
closed = 1;
nodes = (
(1132,-30,o),
(1314,258,o),
(1314,634,cs),
(1314,652,o),
(1314,682,o),
(1310,720,c),
(700,720,l),
(700,636,l),
(1224,636,l),
(1224,290,o),
(1076,54,o),
(706,54,cs),
(336,54,o),
(146,330,o),
(150,720,cs),
(154,1110,o),
(336,1384,o),
(706,1384,cs),
(932,1384,o),
(1092,1268,o),
(1162,1088,c),
(1244,1122,l),
(1166,1326,o),
(980,1468,o),
(706,1468,cs),
(276,1468,o),
(60,1160,o),
(60,720,cs),
(60,280,o),
(276,-30,o),
(706,-30,cs)
);
}
);
width = 1374;
},
{
layerId = "0DA27741-1AFD-43F2-A947-40AFBF8D6498";
shapes = (
{
closed = 1;
nodes = (
(1156,-30,o),
(1422,264,o),
(1422,678,cs),
(1422,684,o),
(1420,744,o),
(1418,762,c),
(800,762,l),
(800,552,l),
(1128,552,l),
(1084,324,o),
(944,222,o),
(758,226,cs),
(484,230,o),
(348,420,o),
(348,720,cs),
(348,1020,o),
(484,1218,o),
(758,1214,cs),
(942,1212,o),
(1045,1110,o),
(1097,975,c),
(1375,1015,l),
(1303,1295,o),
(1110,1470,o),
(740,1470,cs),
(364,1470,o),
(60,1198,o),
(60,720,cs),
(60,232,o),
(376,-30,o),
(740,-30,cs)
);
}
);
width = 1482;
},
{
associatedMasterId = "0DA27741-1AFD-43F2-A947-40AFBF8D6498";
layerId = "A2873047-0ED6-4C67-9B4D-3870B51BD5C6";
width = 1200;
},
{
associatedMasterId = "0DA27741-1AFD-43F2-A947-40AFBF8D6498";
layerId = "55314CA7-5524-4D70-B802-98D4FAE25636";
width = 1466;
},
{
associatedMasterId = "0DA27741-1AFD-43F2-A947-40AFBF8D6498";
layerId = "13A3DD5D-E91B-4961-8595-F8141D3FA442";
width = 1242;
}
);
metricLeft = O;
metricRight = O;
note = G;
unicode = 71;
},
{
glyphname = H;
kernLeft = M;
kernRight = M;
lastChange = "2020-02-20 18:21:12 +0000";
layers = (
{
layerId = "CAA188E2-8C62-414B-93AE-B576BEB044DB";
shapes = (
{
closed = 1;
nodes = (
(224,0,l),
(224,678,l),
(1096,678,l),
(1096,0,l),
(1180,0,l),
(1180,1440,l),
(1096,1440,l),
(1096,762,l),
(224,762,l),
(224,1440,l),
(140,1440,l),
(140,0,l)
);
}
);
width = 1320;
},
{
layerId = "0DA27741-1AFD-43F2-A947-40AFBF8D6498";
shapes = (
{
closed = 1;
nodes = (
(412,0,l),
(412,594,l),
(1056,594,l),
(1056,0,l),
(1328,0,l),
(1328,1440,l),
(1056,1440,l),
(1056,848,l),
(412,848,l),
(412,1440,l),
(140,1440,l),
(140,0,l)
);
}
);
width = 1468;
},
{
associatedMasterId = "0DA27741-1AFD-43F2-A947-40AFBF8D6498";
layerId = "A2873047-0ED6-4C67-9B4D-3870B51BD5C6";
width = 1200;
},
{
associatedMasterId = "0DA27741-1AFD-43F2-A947-40AFBF8D6498";
layerId = "55314CA7-5524-4D70-B802-98D4FAE25636";
width = 1450;
},
{
associatedMasterId = "0DA27741-1AFD-43F2-A947-40AFBF8D6498";
layerId = "13A3DD5D-E91B-4961-8595-F8141D3FA442";
width = 1240;
}
);
note = H;
unicode = 72;
},
{
glyphname = Hbar;
kernLeft = H;
kernRight = H;
lastChange = "2020-02-20 18:21:12 +0000";
layers = (
{
layerId = "CAA188E2-8C62-414B-93AE-B576BEB044DB";
shapes = (
{
closed = 1;
nodes = (
(244,0,l),
(244,678,l),
(1116,678,l),
(1116,0,l),
(1200,0,l),
(1200,1440,l),
(1116,1440,l),
(1116,762,l),
(244,762,l),
(244,1440,l),
(160,1440,l),
(160,0,l)
);
},
{
closed = 1;
nodes = (
(1340,996,l),
(1340,1080,l),
(20,1080,l),
(20,996,l)
);
}
);
width = 1360;
},
{
layerId = "0DA27741-1AFD-43F2-A947-40AFBF8D6498";
shapes = (
{
closed = 1;
nodes = (
(432,0,l),
(432,594,l),
(1076,594,l),
(1076,0,l),
(1348,0,l),
(1348,1440,l),
(1076,1440,l),
(1076,848,l),
(432,848,l),
(432,1440,l),
(160,1440,l),
(160,0,l)
);
},
{
closed = 1;
nodes = (
(1488,988,l),
(1488,1242,l),
(20,1242,l),
(20,988,l)
);
}
);
width = 1508;
},
{
associatedMasterId = "0DA27741-1AFD-43F2-A947-40AFBF8D6498";
layerId = "A2873047-0ED6-4C67-9B4D-3870B51BD5C6";
width = 1200;
},
{
associatedMasterId = "0DA27741-1AFD-43F2-A947-40AFBF8D6498";
layerId = "55314CA7-5524-4D70-B802-98D4FAE25636";
width = 1450;
},
{
associatedMasterId = "0DA27741-1AFD-43F2-A947-40AFBF8D6498";
layerId = "13A3DD5D-E91B-4961-8595-F8141D3FA442";
width = 1240;
}
);
unicode = 294;
},
{
glyphname = I;
kernLeft = n;
kernRight = u;
lastChange = "2020-02-20 18:21:12 +0000";
layers = (
{
layerId = "CAA188E2-8C62-414B-93AE-B576BEB044DB";
shapes = (
{
closed = 1;
nodes = (
(244,0,l),
(244,1440,l),
(160,1440,l),
(160,0,l)
);
}
);
width = 404;
},
{
hints = (
{
horizontal = 1;
origin = (0,3);
target = up;
type = BottomGhost;
},
{
horizontal = 1;
origin = (0,2);
target = down;
type = TopGhost;
},
{
place = (140, 280);
place = (140, 280);
type = Stem;
}
);
layerId = "0DA27741-1AFD-43F2-A947-40AFBF8D6498";
shapes = (
{
closed = 1;
nodes = (
(432,0,l),
(432,1440,l),
(160,1440,l),
(160,0,l)
);
}
);
width = 592;
},
{
associatedMasterId = "0DA27741-1AFD-43F2-A947-40AFBF8D6498";
layerId = "A2873047-0ED6-4C67-9B4D-3870B51BD5C6";
width = 1200;
},
{
associatedMasterId = "0DA27741-1AFD-43F2-A947-40AFBF8D6498";
layerId = "55314CA7-5524-4D70-B802-98D4FAE25636";
width = 426;
},
{
associatedMasterId = "0DA27741-1AFD-43F2-A947-40AFBF8D6498";
layerId = "13A3DD5D-E91B-4961-8595-F8141D3FA442";
width = 1076;
}
);
note = I;
unicode = 73;
},
{
glyphname = J;
kernLeft = J;
kernRight = J;
lastChange = "2020-02-20 18:21:12 +0000";
layers = (
{
layerId = "CAA188E2-8C62-414B-93AE-B576BEB044DB";
shapes = (
{
closed = 1;
nodes = (
(490,-28,o),
(606,30,o),
(670,142,cs),
(720,230,o),
(716,314,o),
(716,424,cs),
(716,1440,l),
(632,1440,l),
(632,424,ls),
(632,320,o),
(632,252,o),
(596,186,cs),
(544,92,o),
(448,56,o),
(362,56,cs),
(222,56,o),
(116,148,o),
(86,270,c),
(0,250,l),
(40,82,o),
(184,-28,o),
(358,-28,cs)
);
}
);
width = 878;
},
{
layerId = "0DA27741-1AFD-43F2-A947-40AFBF8D6498";
shapes = (
{
closed = 1;
nodes = (
(600,-30,o),
(736,30,o),
(818,172,cs),
(874,268,o),
(866,342,o),
(866,480,cs),
(866,1440,l),
(590,1440,l),
(590,480,ls),
(590,406,o),
(590,350,o),
(574,312,cs),
(548,250,o),
(480,224,o),
(430,224,cs),
(356,224,o),
(280,286,o),
(268,360,c),
(0,296,l),
(62,96,o),
(212,-30,o),
(442,-30,cs)
);
}
);
width = 1026;
},
{
associatedMasterId = "0DA27741-1AFD-43F2-A947-40AFBF8D6498";
layerId = "A2873047-0ED6-4C67-9B4D-3870B51BD5C6";
width = 1200;
},
{
associatedMasterId = "0DA27741-1AFD-43F2-A947-40AFBF8D6498";
layerId = "55314CA7-5524-4D70-B802-98D4FAE25636";
width = 830;
},
{
associatedMasterId = "0DA27741-1AFD-43F2-A947-40AFBF8D6498";
layerId = "13A3DD5D-E91B-4961-8595-F8141D3FA442";
width = 1140;
}
);
note = J;
unicode = 74;
},
{
glyphname = K;
kernLeft = H;
kernRight = K;
lastChange = "2020-08-02 05:34:19 +0000";
layers = (
{
hints = (
{
horizontal = 1;
origin = (2,3);
target = up;
type = BottomGhost;
},
{
horizontal = 1;
origin = (2,2);
target = down;
type = TopGhost;
},
{
origin = (2,3);
target = (2,0);
type = Stem;
}
);
layerId = "CAA188E2-8C62-414B-93AE-B576BEB044DB";
shapes = (
{
closed = 1;
nodes = (
(180,639,l),
(180,518,l),
(1052,1440,l),
(937,1440,l)
);
},
{
closed = 1;
nodes = (
(1116,0,l),
(460,828,l),
(386,782,l),
(1001,0,l)
);
},
{
closed = 1;
nodes = (
(224,0,l),
(224,1440,l),
(140,1440,l),
(140,0,l)
);
}
);
width = 1116;
},
{
hints = (
{
horizontal = 1;
origin = (2,3);
target = up;
type = BottomGhost;
},
{
horizontal = 1;
origin = (2,2);
target = down;
type = TopGhost;
},
{
place = (270, 2);
place = (270, 2);
type = Stem;
}
);
layerId = "0DA27741-1AFD-43F2-A947-40AFBF8D6498";
shapes = (
{
closed = 1;
nodes = (
(273,696,l),
(271,323,l),
(1292,1440,l),
(960,1440,l)
);
},
{
closed = 1;
nodes = (
(1330,0,l),
(676,799,l),
(423,696,l),
(993,0,l)
);
},
{
closed = 1;
nodes = (
(402,0,l),
(402,1440,l),
(140,1440,l),
(140,0,l)
);
}
);
width = 1330;
},
{
associatedMasterId = "0DA27741-1AFD-43F2-A947-40AFBF8D6498";
layerId = "A2873047-0ED6-4C67-9B4D-3870B51BD5C6";
width = 1200;
},
{
associatedMasterId = "0DA27741-1AFD-43F2-A947-40AFBF8D6498";
layerId = "55314CA7-5524-4D70-B802-98D4FAE25636";
width = 1168;
},
{
associatedMasterId = "0DA27741-1AFD-43F2-A947-40AFBF8D6498";
layerId = "13A3DD5D-E91B-4961-8595-F8141D3FA442";
width = 1194;
}
);
metricLeft = H;
note = K;
unicode = 75;
},
{
glyphname = L;
kernRight = L;
lastChange = "2020-02-20 18:21:12 +0000";
layers = (
{
layerId = "CAA188E2-8C62-414B-93AE-B576BEB044DB";
shapes = (
{
closed = 1;
nodes = (
(960,0,l),
(960,84,l),
(244,84,l),
(244,1440,l),
(160,1440,l),
(160,0,l)
);
}
);
width = 990;
},
{
layerId = "0DA27741-1AFD-43F2-A947-40AFBF8D6498";
shapes = (
{
closed = 1;
nodes = (
(1052,0,l),
(1052,254,l),
(432,254,l),
(432,1440,l),
(160,1440,l),
(160,0,l)
);
}
);
width = 1082;
},
{
associatedMasterId = "0DA27741-1AFD-43F2-A947-40AFBF8D6498";
layerId = "A2873047-0ED6-4C67-9B4D-3870B51BD5C6";
width = 1200;
},
{
associatedMasterId = "0DA27741-1AFD-43F2-A947-40AFBF8D6498";
layerId = "55314CA7-5524-4D70-B802-98D4FAE25636";
width = 862;
},
{
associatedMasterId = "0DA27741-1AFD-43F2-A947-40AFBF8D6498";
layerId = "13A3DD5D-E91B-4961-8595-F8141D3FA442";
width = 1146;
}
);
note = L;
unicode = 76;
},
{
glyphname = M;
kernLeft = M;
kernRight = M;
lastChange = "2020-02-20 18:21:12 +0000";
layers = (
{
layerId = "CAA188E2-8C62-414B-93AE-B576BEB044DB";
shapes = (
{
closed = 1;
nodes = (
(224,0,l),
(224,1238,l),
(784,0,l),
(878,0,l),
(1438,1238,l),
(1438,2,l),
(1522,2,l),
(1522,1440,l),
(1438,1440,l),
(832,102,l),
(220,1440,l),
(140,1440,l),
(140,0,l)
);
}
);
width = 1662;
},
{
layerId = "0DA27741-1AFD-43F2-A947-40AFBF8D6498";
shapes = (
{
closed = 1;
nodes = (
(394,0,l),
(394,860,l),
(812,0,l),
(908,0,l),
(1326,860,l),
(1326,0,l),
(1580,0,l),
(1580,1440,l),
(1336,1440,l),
(860,484,l),
(384,1440,l),
(140,1440,l),
(140,0,l)
);
}
);
width = 1720;
},
{
associatedMasterId = "0DA27741-1AFD-43F2-A947-40AFBF8D6498";
layerId = "A2873047-0ED6-4C67-9B4D-3870B51BD5C6";
width = 1200;
},
{
associatedMasterId = "0DA27741-1AFD-43F2-A947-40AFBF8D6498";
layerId = "55314CA7-5524-4D70-B802-98D4FAE25636";
width = 1828;
},
{
associatedMasterId = "0DA27741-1AFD-43F2-A947-40AFBF8D6498";
layerId = "13A3DD5D-E91B-4961-8595-F8141D3FA442";
width = 1300;
}
);
metricLeft = H;
metricRight = H;
note = M;
unicode = 77;
},
{
glyphname = N;
kernLeft = M;
kernRight = M;
lastChange = "2020-02-20 18:21:12 +0000";
layers = (
{
layerId = "CAA188E2-8C62-414B-93AE-B576BEB044DB";
shapes = (
{
closed = 1;
nodes = (
(224,0,l),
(224,1292,l),
(1100,0,l),
(1184,0,l),
(1184,1440,l),
(1100,1440,l),
(1100,150,l),
(224,1440,l),
(140,1440,l),
(140,0,l)
);
}
);
width = 1324;
},
{
layerId = "0DA27741-1AFD-43F2-A947-40AFBF8D6498";
shapes = (
{
closed = 1;
nodes = (
(416,0,l),
(416,960,l),
(1042,0,l),
(1318,0,l),
(1318,1440,l),
(1042,1440,l),
(1042,480,l),
(416,1440,l),
(140,1440,l),
(140,0,l)
);
}
);
width = 1458;
},
{
associatedMasterId = "0DA27741-1AFD-43F2-A947-40AFBF8D6498";
layerId = "A2873047-0ED6-4C67-9B4D-3870B51BD5C6";
width = 1200;
},
{
associatedMasterId = "0DA27741-1AFD-43F2-A947-40AFBF8D6498";
layerId = "55314CA7-5524-4D70-B802-98D4FAE25636";
width = 1450;
},
{
associatedMasterId = "0DA27741-1AFD-43F2-A947-40AFBF8D6498";
layerId = "13A3DD5D-E91B-4961-8595-F8141D3FA442";
width = 1240;
}
);
metricLeft = H;
metricRight = H;
note = N;
unicode = 78;
},
{
glyphname = Eng;
kernLeft = N;
kernRight = N;
lastChange = "2020-02-20 18:21:12 +0000";
layers = (
{
layerId = "CAA188E2-8C62-414B-93AE-B576BEB044DB";
shapes = (
{
closed = 1;
nodes = (
(1100,150,l),
(224,1440,l),
(140,1440,l),
(140,0,l),
(224,0,l),
(224,1292,l),
(1058,62,ls),
(1086,20,o),
(1100,-38,o),
(1100,-110,cs),
(1100,-238,o),
(1080,-272,o),
(1008,-272,cs),
(992,-272,o),
(972,-270,o),
(950,-266,c),
(950,-348,l),
(984,-356,o),
(1006,-358,o),
(1032,-358,cs),
(1138,-358,o),
(1184,-306,o),
(1184,-190,cs),
(1184,1440,l),
(1100,1440,l)
);
}
);
width = 1324;
},
{
layerId = "0DA27741-1AFD-43F2-A947-40AFBF8D6498";
shapes = (
{
closed = 1;
nodes = (
(1042,480,l),
(416,1440,l),
(140,1440,l),
(140,0,l),
(416,0,l),
(416,960,l),
(976,102,ls),
(1068,-44,o),
(1094,-100,o),
(1094,-158,cs),
(1094,-228,o),
(1042,-264,o),
(942,-264,cs),
(922,-264,o),
(908,-262,o),
(858,-258,c),
(858,-458,l),
(908,-472,o),
(964,-478,o),
(1018,-478,cs),
(1220,-478,o),
(1318,-378,o),
(1318,-176,cs),
(1318,1440,l),
(1042,1440,l)
);
}
);
width = 1458;
},
{
associatedMasterId = "0DA27741-1AFD-43F2-A947-40AFBF8D6498";
layerId = "A2873047-0ED6-4C67-9B4D-3870B51BD5C6";
width = 1200;
},
{
associatedMasterId = "0DA27741-1AFD-43F2-A947-40AFBF8D6498";
layerId = "55314CA7-5524-4D70-B802-98D4FAE25636";
width = 1450;
},
{
associatedMasterId = "0DA27741-1AFD-43F2-A947-40AFBF8D6498";
layerId = "13A3DD5D-E91B-4961-8595-F8141D3FA442";
width = 1240;
}
);
metricLeft = N;
metricRight = N;
unicode = 330;
},
{
glyphname = O;
kernLeft = O;
kernRight = O;
lastChange = "2020-02-20 18:21:12 +0000";
layers = (
{
layerId = "CAA188E2-8C62-414B-93AE-B576BEB044DB";
shapes = (
{
closed = 1;
nodes = (
(1136,-30,o),
(1352,280,o),
(1352,720,cs),
(1352,1160,o),
(1136,1470,o),
(706,1470,cs),
(276,1470,o),
(60,1160,o),
(60,720,cs),
(60,280,o),
(276,-30,o),
(706,-30,cs)
);
},
{
closed = 1;
nodes = (
(336,54,o),
(146,330,o),
(150,720,cs),
(154,1110,o),
(336,1386,o),
(706,1386,cs),
(1076,1386,o),
(1262,1110,o),
(1262,720,cs),
(1262,330,o),
(1076,54,o),
(706,54,cs)
);
}
);
width = 1412;
},
{
layerId = "0DA27741-1AFD-43F2-A947-40AFBF8D6498";
shapes = (
{
closed = 1;
nodes = (
(1190,-30,o),
(1456,272,o),
(1456,720,cs),
(1456,1168,o),
(1190,1470,o),
(758,1470,cs),
(326,1470,o),
(60,1168,o),
(60,720,cs),
(60,272,o),
(326,-30,o),
(758,-30,cs)
);
},
{
closed = 1;
nodes = (
(484,230,o),
(348,420,o),
(348,720,cs),
(348,1020,o),
(484,1218,o),
(758,1214,cs),
(1032,1210,o),
(1168,1020,o),
(1168,720,cs),
(1168,420,o),
(1032,222,o),
(758,226,cs)
);
}
);
width = 1516;
},
{
associatedMasterId = "0DA27741-1AFD-43F2-A947-40AFBF8D6498";
layerId = "A2873047-0ED6-4C67-9B4D-3870B51BD5C6";
width = 1200;
},
{
associatedMasterId = "0DA27741-1AFD-43F2-A947-40AFBF8D6498";
layerId = "55314CA7-5524-4D70-B802-98D4FAE25636";
width = 1468;
},
{
associatedMasterId = "0DA27741-1AFD-43F2-A947-40AFBF8D6498";
layerId = "13A3DD5D-E91B-4961-8595-F8141D3FA442";
width = 1242;
}
);
unicode = 79;
},
{
glyphname = Oslash;
kernLeft = O;
kernRight = O;
lastChange = "2020-02-20 18:21:12 +0000";
layers = (
{
layerId = "CAA188E2-8C62-414B-93AE-B576BEB044DB";
shapes = (
{
closed = 1;
nodes = (
(260,174,l),
(286,202,l),
(1194,1174,l),
(1210,1190,l),
(1407,1404,l),
(1345,1459,l),
(1162,1262,l),
(1142,1242,l),
(232,270,l),
(210,246,l),
(10,32,l),
(72,-26,l)
);
},
{
ref = O;
}
);
width = 1412;
},
{
layerId = "0DA27741-1AFD-43F2-A947-40AFBF8D6498";
shapes = (
{
closed = 1;
nodes = (
(430,138,l),
(444,162,l),
(1224,1044,l),
(1250,1062,l),
(1456,1294,l),
(1264,1466,l),
(1076,1254,l),
(1064,1232,l),
(286,354,l),
(252,324,l),
(94,144,l),
(286,-26,l)
);
},
{
ref = O;
}
);
width = 1516;
},
{
associatedMasterId = "0DA27741-1AFD-43F2-A947-40AFBF8D6498";
layerId = "A2873047-0ED6-4C67-9B4D-3870B51BD5C6";
width = 1200;
},
{
associatedMasterId = "0DA27741-1AFD-43F2-A947-40AFBF8D6498";
layerId = "55314CA7-5524-4D70-B802-98D4FAE25636";
width = 1476;
},
{
associatedMasterId = "0DA27741-1AFD-43F2-A947-40AFBF8D6498";
layerId = "13A3DD5D-E91B-4961-8595-F8141D3FA442";
width = 1244;
}
);
unicode = 216;
},
{
glyphname = P;
lastChange = "2020-02-20 18:21:12 +0000";
layers = (
{
layerId = "CAA188E2-8C62-414B-93AE-B576BEB044DB";
shapes = (
{
closed = 1;
nodes = (
(224,0,l),
(224,576,l),
(670,576,ls),
(698,576,o),
(726,578,o),
(762,584,cs),
(970,616,o),
(1102,792,o),
(1102,1008,cs),
(1102,1224,o),
(970,1400,o),
(762,1432,cs),
(726,1438,o),
(698,1440,o),
(670,1440,cs),
(140,1440,l),
(140,0,l)
);
},
{
closed = 1;
nodes = (
(224,1356,l),
(670,1356,ls),
(692,1356,o),
(726,1354,o),
(758,1348,cs),
(924,1316,o),
(1012,1170,o),
(1012,1008,cs),
(1012,846,o),
(924,700,o),
(758,668,cs),
(726,662,o),
(692,660,o),
(670,660,cs),
(224,660,l)
);
}
);
width = 1162;
},
{
layerId = "0DA27741-1AFD-43F2-A947-40AFBF8D6498";
shapes = (
{
closed = 1;
nodes = (
(412,0,l),
(412,488,l),
(748,488,ls),
(774,488,o),
(830,490,o),
(868,496,cs),
(1124,536,o),
(1240,722,o),
(1240,964,cs),
(1240,1206,o),
(1126,1392,o),
(868,1432,cs),
(830,1438,o),
(776,1440,o),
(748,1440,cs),
(140,1440,l),
(140,0,l)
);
},
{
closed = 1;
nodes = (
(412,1186,l),
(736,1186,ls),
(764,1186,o),
(800,1184,o),
(828,1176,cs),
(938,1146,o),
(966,1042,o),
(966,964,cs),
(966,886,o),
(938,782,o),
(828,752,cs),
(800,744,o),
(764,742,o),
(736,742,cs),
(412,742,l)
);
}
);
width = 1300;
},
{
associatedMasterId = "0DA27741-1AFD-43F2-A947-40AFBF8D6498";
layerId = "A2873047-0ED6-4C67-9B4D-3870B51BD5C6";
width = 1200;
},
{
associatedMasterId = "0DA27741-1AFD-43F2-A947-40AFBF8D6498";
layerId = "55314CA7-5524-4D70-B802-98D4FAE25636";
width = 1128;
},
{
associatedMasterId = "0DA27741-1AFD-43F2-A947-40AFBF8D6498";
layerId = "13A3DD5D-E91B-4961-8595-F8141D3FA442";
width = 1188;
}
);
metricLeft = H;
note = P;
unicode = 80;
},
{
glyphname = Thorn;
kernLeft = P;
kernRight = P;
lastChange = "2020-02-20 18:21:12 +0000";
layers = (
{
layerId = "CAA188E2-8C62-414B-93AE-B576BEB044DB";
shapes = (
{
closed = 1;
nodes = (
(224,0,l),
(224,288,l),
(650,288,ls),
(768,288,o),
(890,342,o),
(968,430,cs),
(1038,508,o),
(1082,612,o),
(1082,720,cs),
(1082,836,o),
(1032,952,o),
(946,1032,cs),
(906,1070,o),
(856,1102,o),
(804,1122,cs),
(754,1142,o),
(702,1152,o),
(650,1152,cs),
(224,1152,l),
(224,1440,l),
(140,1440,l),
(140,0,l)
);
},
{
closed = 1;
nodes = (
(224,1068,l),
(650,1068,ls),
(736,1068,o),
(826,1030,o),
(886,970,cs),
(952,904,o),
(990,814,o),
(992,720,cs),
(994,638,o),
(962,558,o),
(910,496,cs),
(846,420,o),
(748,372,o),
(650,372,cs),
(224,372,l)
);
}
);
width = 1142;
},
{
layerId = "0DA27741-1AFD-43F2-A947-40AFBF8D6498";
shapes = (
{
closed = 1;
nodes = (
(416,0,l),
(416,246,l),
(742,246,ls),
(900,246,o),
(1044,322,o),
(1128,438,cs),
(1188,518,o),
(1226,620,o),
(1224,720,cs),
(1222,820,o),
(1188,922,o),
(1128,1002,cs),
(1070,1084,o),
(984,1144,o),
(888,1174,cs),
(842,1188,o),
(792,1196,o),
(742,1196,cs),
(416,1196,l),
(416,1440,l),
(140,1440,l),
(140,0,l)
);
},
{
closed = 1;
nodes = (
(416,940,l),
(740,940,ls),
(796,940,o),
(858,906,o),
(896,862,cs),
(930,824,o),
(946,772,o),
(948,720,cs),
(950,672,o),
(932,626,o),
(904,588,cs),
(862,532,o),
(794,500,o),
(740,500,cs),
(416,500,l)
);
}
);
width = 1284;
},
{
associatedMasterId = "0DA27741-1AFD-43F2-A947-40AFBF8D6498";
layerId = "A2873047-0ED6-4C67-9B4D-3870B51BD5C6";
width = 1200;
},
{
associatedMasterId = "0DA27741-1AFD-43F2-A947-40AFBF8D6498";
layerId = "55314CA7-5524-4D70-B802-98D4FAE25636";
width = 1202;
},
{
associatedMasterId = "0DA27741-1AFD-43F2-A947-40AFBF8D6498";
layerId = "13A3DD5D-E91B-4961-8595-F8141D3FA442";
width = 1200;
}
);
metricLeft = P;
metricRight = P;
unicode = 222;
},
{
glyphname = Q;
kernLeft = O;
kernRight = O;
lastChange = "2020-08-02 05:08:27 +0000";
layers = (
{
layerId = "CAA188E2-8C62-414B-93AE-B576BEB044DB";
shapes = (
{
closed = 1;
nodes = (
(1338,38,l),
(974,402,l),
(908,336,l),
(1274,-28,l)
);
},
{
ref = O;
}
);
width = 1412;
},
{
layerId = "0DA27741-1AFD-43F2-A947-40AFBF8D6498";
shapes = (
{
closed = 1;
nodes = (
(1432,138,l),
(1014,556,l),
(846,388,l),
(1266,-30,l)
);
},
{
ref = O;
}
);
width = 1516;
},
{
associatedMasterId = "0DA27741-1AFD-43F2-A947-40AFBF8D6498";
layerId = "A2873047-0ED6-4C67-9B4D-3870B51BD5C6";
width = 1200;
},
{
associatedMasterId = "0DA27741-1AFD-43F2-A947-40AFBF8D6498";
layerId = "55314CA7-5524-4D70-B802-98D4FAE25636";
width = 1468;
},
{
associatedMasterId = "0DA27741-1AFD-43F2-A947-40AFBF8D6498";
layerId = "13A3DD5D-E91B-4961-8595-F8141D3FA442";
width = 1242;
}
);
metricLeft = O;
metricRight = O;
note = Q;
unicode = 81;
},
{
glyphname = R;
kernLeft = P;
kernRight = R;
lastChange = "2020-08-02 04:54:02 +0000";
layers = (
{
background = {
shapes = (
{
closed = 1;
nodes = (
(224,0,l),
(224,576,l),
(670,576,ls),
(698,576,o),
(726,578,o),
(762,584,cs),
(970,616,o),
(1102,792,o),
(1102,1008,cs),
(1102,1224,o),
(970,1400,o),
(762,1432,cs),
(726,1438,o),
(698,1440,o),
(670,1440,cs),
(140,1440,l),
(140,0,l)
);
},
{
closed = 1;
nodes = (
(1142,0,l),
(830,640,l),
(758,586,l),
(1042,0,l)
);
},
{
closed = 1;
nodes = (
(224,1356,l),
(670,1356,ls),
(692,1356,o),
(726,1354,o),
(758,1348,cs),
(924,1316,o),
(1012,1170,o),
(1012,1008,cs),
(1012,846,o),
(924,700,o),
(758,668,cs),
(726,662,o),
(692,660,o),
(670,660,cs),
(224,660,l)
);
}
);
};
layerId = "CAA188E2-8C62-414B-93AE-B576BEB044DB";
shapes = (
{
closed = 1;
nodes = (
(1121,0,l),
(768,682,l),
(670,682,l),
(1021,0,l)
);
},
{
closed = 1;
nodes = (
(224,0,l),
(224,636,l),
(670,636,ls),
(698,636,o),
(726,638,o),
(762,644,cs),
(970,679,o),
(1102,842,o),
(1102,1038,cs),
(1102,1234,o),
(970,1400,o),
(762,1432,cs),
(726,1438,o),
(698,1440,o),
(670,1440,cs),
(140,1440,l),
(140,0,l)
);
},
{
closed = 1;
nodes = (
(224,1356,l),
(670,1356,ls),
(692,1356,o),
(726,1354,o),
(758,1348,cs),
(924,1316,o),
(1012,1180,o),
(1012,1038,cs),
(1012,896,o),
(924,759,o),
(758,728,cs),
(726,722,o),
(692,720,o),
(670,720,cs),
(224,720,l)
);
}
);
width = 1222;
},
{
layerId = "0DA27741-1AFD-43F2-A947-40AFBF8D6498";
shapes = (
{
closed = 1;
nodes = (
(1270,0,l),
(938,640,l),
(658,586,l),
(962,0,l)
);
},
{
closed = 1;
nodes = (
(412,0,l),
(412,528,l),
(748,528,ls),
(774,528,o),
(830,530,o),
(868,536,cs),
(1124,576,o),
(1240,792,o),
(1240,984,cs),
(1240,1216,o),
(1126,1392,o),
(868,1432,cs),
(830,1438,o),
(776,1440,o),
(748,1440,cs),
(140,1440,l),
(140,0,l)
);
},
{
closed = 1;
nodes = (
(412,1186,l),
(736,1186,ls),
(764,1186,o),
(800,1184,o),
(828,1176,cs),
(938,1146,o),
(966,1052,o),
(966,984,cs),
(966,916,o),
(938,843,o),
(828,792,cs),
(802,780,o),
(764,782,o),
(736,782,cs),
(412,782,l)
);
}
);
width = 1340;
},
{
associatedMasterId = "0DA27741-1AFD-43F2-A947-40AFBF8D6498";
layerId = "A2873047-0ED6-4C67-9B4D-3870B51BD5C6";
width = 1200;
},
{
associatedMasterId = "0DA27741-1AFD-43F2-A947-40AFBF8D6498";
layerId = "55314CA7-5524-4D70-B802-98D4FAE25636";
width = 1102;
},
{
associatedMasterId = "0DA27741-1AFD-43F2-A947-40AFBF8D6498";
layerId = "13A3DD5D-E91B-4961-8595-F8141D3FA442";
width = 1184;
}
);
metricLeft = H;
note = R;
unicode = 82;
},
{
glyphname = S;
kernLeft = S;
kernRight = S;
lastChange = "2020-02-20 18:21:12 +0000";
layers = (
{
background = {
shapes = (
{
closed = 1;
nodes = (
(1086,1226,o),
(994,1326,o),
(890,1392,cs),
(808,1444,o),
(680,1470,o),
(576,1470,cs),
(486,1470,o),
(384,1450,o),
(302,1402,cs),
(190,1336,o),
(116,1222,o),
(116,1084,cs),
(116,1002,o),
(146,926,o),
(212,866,cs),
(290,794,o),
(382,772,o),
(470,746,cs),
(732,668,ls),
(824,640,o),
(910,616,o),
(970,554,cs),
(1016,508,o),
(1036,442,o),
(1036,382,cs),
(1036,268,o),
(988,190,o),
(910,134,cs),
(834,78,o),
(720,54,o),
(612,54,cs),
(464,54,o),
(352,98,o),
(262,178,cs),
(194,238,o),
(162,306,o),
(144,374,c),
(60,358,l),
(76,282,o),
(114,202,o),
(176,136,cs),
(296,12,o),
(464,-30,o),
(610,-30,cs),
(756,-30,o),
(866,-2,o),
(964,66,cs),
(1062,134,o),
(1118,248,o),
(1118,382,cs),
(1118,476,o),
(1094,550,o),
(1026,618,cs),
(954,688,o),
(850,724,o),
(756,752,cs),
(494,830,ls),
(402,858,o),
(330,884,o),
(270,936,cs),
(222,978,o),
(206,1046,o),
(206,1090,cs),
(206,1208,o),
(278,1282,o),
(346,1326,cs),
(412,1368,o),
(496,1386,o),
(578,1386,cs),
(664,1386,o),
(764,1362,o),
(832,1324,cs),
(932,1268,o),
(1006,1180,o),
(1028,1034,c),
(1112,1050,l)
);
}
);
};
layerId = "CAA188E2-8C62-414B-93AE-B576BEB044DB";
shapes = (
{
closed = 1;
nodes = (
(922,-30,o),
(1118,128,o),
(1118,376,cs),
(1118,640,o),
(894,710,o),
(792,740,cs),
(494,830,ls),
(372,866,o),
(206,922,o),
(206,1094,cs),
(206,1258,o),
(360,1386,o),
(586,1386,cs),
(822,1386,o),
(1000,1244,o),
(1028,1034,c),
(1112,1050,l),
(1076,1304,o),
(868,1470,o),
(586,1470,cs),
(308,1470,o),
(116,1312,o),
(116,1092,cs),
(116,940,o),
(206,824,o),
(414,762,cs),
(774,654,ls),
(868,626,o),
(1036,570,o),
(1036,376,cs),
(1036,182,o),
(870,54,o),
(618,54,cs),
(376,54,o),
(196,176,o),
(144,374,c),
(60,358,l),
(112,120,o),
(326,-30,o),
(618,-30,cs)
);
}
);
width = 1178;
},
{
background = {
shapes = (
{
closed = 1;
nodes = (
(1206,1224,o),
(1098,1334,o),
(976,1400,cs),
(880,1452,o),
(772,1468,o),
(674,1470,cs),
(540,1470,o),
(404,1442,o),
(300,1366,cs),
(202,1294,o),
(136,1180,o),
(136,1048,cs),
(136,942,o),
(160,850,o),
(240,774,cs),
(310,706,o),
(410,676,o),
(536,640,cs),
(804,562,ls),
(860,546,o),
(900,532,o),
(932,504,cs),
(962,478,o),
(976,442,o),
(976,404,cs),
(976,364,o),
(956,320,o),
(910,284,cs),
(858,244,o),
(770,224,o),
(694,224,cs),
(598,224,o),
(506,266,o),
(444,330,cs),
(400,374,o),
(374,440,o),
(364,482,c),
(80,440,l),
(94,348,o),
(128,252,o),
(206,164,cs),
(330,26,o),
(492,-30,o),
(684,-30,cs),
(848,-30,o),
(996,4,o),
(1114,108,cs),
(1202,186,o),
(1262,286,o),
(1262,396,cs),
(1262,522,o),
(1244,602,o),
(1166,684,cs),
(1112,742,o),
(994,794,o),
(864,830,cs),
(614,898,ls),
(536,920,o),
(476,946,o),
(450,976,cs),
(428,1000,o),
(422,1028,o),
(422,1056,cs),
(422,1104,o),
(456,1148,o),
(500,1174,cs),
(544,1200,o),
(602,1216,o),
(670,1214,cs),
(736,1214,o),
(794,1192,o),
(840,1162,cs),
(896,1124,o),
(942,1062,o),
(956,996,c),
(1250,1046,l)
);
}
);
};
layerId = "0DA27741-1AFD-43F2-A947-40AFBF8D6498";
shapes = (
{
closed = 1;
nodes = (
(978,-30,o),
(1262,118,o),
(1262,428,cs),
(1262,718,o),
(1012,790,o),
(864,830,cs),
(614,898,ls),
(522,922,o),
(422,958,o),
(422,1052,cs),
(422,1154,o),
(542,1218,o),
(670,1214,cs),
(800,1210,o),
(924,1136,o),
(956,996,c),
(1250,1046,l),
(1180,1316,o),
(972,1464,o),
(674,1468,cs),
(378,1470,o),
(136,1328,o),
(136,1038,cs),
(136,764,o),
(350,694,o),
(462,662,cs),
(836,552,ls),
(948,518,o),
(976,466,o),
(976,408,cs),
(976,288,o),
(836,224,o),
(702,224,cs),
(542,224,o),
(404,316,o),
(364,482,c),
(80,440,l),
(124,148,o),
(364,-30,o),
(684,-30,cs)
);
}
);
width = 1342;
},
{
associatedMasterId = "0DA27741-1AFD-43F2-A947-40AFBF8D6498";
layerId = "A2873047-0ED6-4C67-9B4D-3870B51BD5C6";
width = 1200;
},
{
associatedMasterId = "0DA27741-1AFD-43F2-A947-40AFBF8D6498";
layerId = "55314CA7-5524-4D70-B802-98D4FAE25636";
width = 1232;
},
{
associatedMasterId = "0DA27741-1AFD-43F2-A947-40AFBF8D6498";
layerId = "13A3DD5D-E91B-4961-8595-F8141D3FA442";
width = 1206;
}
);
note = S;
unicode = 83;
},
{
glyphname = Germandbls;
kernLeft = b;
kernRight = b;
lastChange = "2020-03-14 01:05:12 +0000";
layers = (
{
layerId = "0DA27741-1AFD-43F2-A947-40AFBF8D6498";
shapes = (
{
closed = 1;
nodes = (
(1246,-30,o),
(1408,152,o),
(1408,428,cs),
(1408,661,o),
(1261,802,o),
(1073,845,c),
(1339,1299,l),
(1213,1376,o),
(1064,1470,o),
(776,1470,cs),
(512,1470,o),
(275,1355,o),
(179,1099,cs),
(152,1026,o),
(138,930,o),
(138,800,cs),
(138,0,l),
(412,0,l),
(412,746,ls),
(412,829,o),
(420,914,o),
(438,973,cs),
(489,1137,o),
(629,1216,o),
(806,1216,cs),
(868,1216,o),
(938,1208,o),
(1003,1179,c),
(784,832,l),
(834,664,l),
(981,664,o),
(1143,612,o),
(1144,438,cs),
(1145,294,o),
(1044,236,o),
(910,236,cs),
(848,236,o),
(787,245,o),
(734,266,c),
(734,0,l),
(781,-19,o),
(862,-30,o),
(950,-30,cs)
);
}
);
width = 1528;
},
{
layerId = "CAA188E2-8C62-414B-93AE-B576BEB044DB";
shapes = (
{
closed = 1;
nodes = (
(1066,-30,o),
(1239,128,o),
(1239,398,cs),
(1239,662,o),
(1026,793,o),
(839,809,c),
(1117,1310,l),
(1028,1375,o),
(869,1470,o),
(678,1470,cs),
(462,1470,o),
(226,1397,o),
(160,1108,cs),
(147,1052,o),
(140,986,o),
(140,894,cs),
(140,0,l),
(232,0,l),
(232,812,ls),
(232,900,o),
(234,990,o),
(253,1081,cs),
(287,1248,o),
(421,1382,o),
(665,1382,cs),
(834,1382,o),
(933,1323,o),
(998,1279,c),
(730,806,l),
(730,728,l),
(1008,718,o),
(1150,584,o),
(1150,397,cs),
(1150,179,o),
(991,58,o),
(788,58,cs),
(722,58,o),
(674,64,o),
(606,84,c),
(606,0,l),
(664,-18,o),
(706,-30,o),
(784,-30,cs)
);
}
);
width = 1359;
}
);
metricLeft = b;
metricRight = n;
unicode = 7838;
},
{
glyphname = T;
kernLeft = T;
kernRight = T;
lastChange = "2020-03-06 05:47:16 +0000";
layers = (
{
layerId = "CAA188E2-8C62-414B-93AE-B576BEB044DB";
shapes = (
{
closed = 1;
nodes = (
(632,0,l),
(632,1356,l),
(1160,1356,l),
(1160,1440,l),
(20,1440,l),
(20,1356,l),
(548,1356,l),
(548,0,l)
);
}
);
width = 1180;
},
{
layerId = "0DA27741-1AFD-43F2-A947-40AFBF8D6498";
shapes = (
{
closed = 1;
nodes = (
(746,0,l),
(746,1186,l),
(1200,1186,l),
(1200,1440,l),
(20,1440,l),
(20,1186,l),
(474,1186,l),
(474,0,l)
);
}
);
width = 1220;
},
{
associatedMasterId = "0DA27741-1AFD-43F2-A947-40AFBF8D6498";
layerId = "A2873047-0ED6-4C67-9B4D-3870B51BD5C6";
width = 1200;
},
{
associatedMasterId = "0DA27741-1AFD-43F2-A947-40AFBF8D6498";
layerId = "55314CA7-5524-4D70-B802-98D4FAE25636";
width = 1026;
},
{
associatedMasterId = "0DA27741-1AFD-43F2-A947-40AFBF8D6498";
layerId = "13A3DD5D-E91B-4961-8595-F8141D3FA442";
width = 1172;
}
);
note = T;
unicode = 84;
},
{
glyphname = Tbar;
kernLeft = X;
kernRight = X;
lastChange = "2020-02-20 18:21:12 +0000";
layers = (
{
layerId = "CAA188E2-8C62-414B-93AE-B576BEB044DB";
shapes = (
{
closed = 1;
nodes = (
(1010,678,l),
(1010,762,l),
(170,762,l),
(170,678,l)
);
},
{
ref = T;
}
);
width = 1180;
},
{
layerId = "0DA27741-1AFD-43F2-A947-40AFBF8D6498";
shapes = (
{
closed = 1;
nodes = (
(1090,584,l),
(1090,856,l),
(130,856,l),
(130,584,l)
);
},
{
ref = T;
}
);
width = 1220;
},
{
associatedMasterId = "0DA27741-1AFD-43F2-A947-40AFBF8D6498";
layerId = "A2873047-0ED6-4C67-9B4D-3870B51BD5C6";
width = 1200;
},
{
associatedMasterId = "0DA27741-1AFD-43F2-A947-40AFBF8D6498";
layerId = "55314CA7-5524-4D70-B802-98D4FAE25636";
width = 1026;
},
{
associatedMasterId = "0DA27741-1AFD-43F2-A947-40AFBF8D6498";
layerId = "13A3DD5D-E91B-4961-8595-F8141D3FA442";
width = 1172;
}
);
metricLeft = T;
metricRight = T;
unicode = 358;
},
{
glyphname = U;
kernLeft = U;
kernRight = U;
lastChange = "2020-02-20 18:21:12 +0000";
layers = (
{
background = {
shapes = (
{
closed = 1;
nodes = (
(1156,1440,l),
(1156,610,ls),
(1156,524,o),
(1152,452,o),
(1136,386,cs),
(1090,194,o),
(902,50,o),
(690,50,cs),
(478,50,o),
(290,194,o),
(244,386,cs),
(228,452,o),
(224,524,o),
(224,610,cs),
(224,1440,l),
(140,1440,l),
(140,506,ls),
(140,426,o),
(152,356,o),
(178,294,cs),
(258,100,o),
(434,-30,o),
(690,-30,cs),
(946,-30,o),
(1122,100,o),
(1202,294,cs),
(1228,356,o),
(1240,426,o),
(1240,506,cs),
(1240,1440,l)
);
}
);
};
layerId = "CAA188E2-8C62-414B-93AE-B576BEB044DB";
shapes = (
{
closed = 1;
nodes = (
(1010,-30,o),
(1240,186,o),
(1240,510,cs),
(1240,1440,l),
(1156,1440,l),
(1156,538,ls),
(1156,182,o),
(882,50,o),
(690,50,cs),
(498,50,o),
(224,182,o),
(224,538,cs),
(224,1440,l),
(140,1440,l),
(140,510,ls),
(140,184,o),
(370,-30,o),
(690,-30,cs)
);
}
);
width = 1380;
},
{
background = {
shapes = (
{
closed = 1;
nodes = (
(1036,1440,l),
(1036,544,ls),
(1036,512,o),
(1034,480,o),
(1024,444,cs),
(988,316,o),
(868,226,o),
(726,226,cs),
(584,226,o),
(464,316,o),
(428,444,cs),
(418,480,o),
(416,512,o),
(416,544,cs),
(416,1440,l),
(140,1438,l),
(140,540,ls),
(140,492,o),
(144,446,o),
(154,400,cs),
(212,128,o),
(434,-30,o),
(726,-30,cs),
(1018,-30,o),
(1240,128,o),
(1298,400,cs),
(1308,446,o),
(1312,492,o),
(1312,540,cs),
(1312,1440,l)
);
}
);
};
layerId = "0DA27741-1AFD-43F2-A947-40AFBF8D6498";
shapes = (
{
closed = 1;
nodes = (
(1074,-30,o),
(1312,194,o),
(1312,540,cs),
(1312,1440,l),
(1036,1440,l),
(1036,542,ls),
(1036,356,o),
(902,226,o),
(726,226,cs),
(554,226,o),
(416,352,o),
(416,542,cs),
(416,1440,l),
(140,1438,l),
(140,540,ls),
(140,194,o),
(378,-30,o),
(726,-30,cs)
);
}
);
width = 1452;
},
{
associatedMasterId = "0DA27741-1AFD-43F2-A947-40AFBF8D6498";
layerId = "A2873047-0ED6-4C67-9B4D-3870B51BD5C6";
width = 1200;
},
{
associatedMasterId = "0DA27741-1AFD-43F2-A947-40AFBF8D6498";
layerId = "55314CA7-5524-4D70-B802-98D4FAE25636";
width = 1450;
},
{
associatedMasterId = "0DA27741-1AFD-43F2-A947-40AFBF8D6498";
layerId = "13A3DD5D-E91B-4961-8595-F8141D3FA442";
width = 1240;
}
);
metricLeft = H;
metricRight = H;
note = U;
unicode = 85;
},
{
glyphname = V;
kernLeft = V;
kernRight = V;
lastChange = "2020-02-20 18:21:12 +0000";
layers = (
{
layerId = "CAA188E2-8C62-414B-93AE-B576BEB044DB";
shapes = (
{
closed = 1;
nodes = (
(624,0,l),
(1148,1440,l),
(1058,1440,l),
(578,122,l),
(100,1440,l),
(10,1440,l),
(534,0,l)
);
}
);
width = 1158;
},
{
layerId = "0DA27741-1AFD-43F2-A947-40AFBF8D6498";
shapes = (
{
closed = 1;
nodes = (
(856,0,l),
(1296,1440,l),
(1016,1440,l),
(650,256,l),
(290,1440,l),
(10,1440,l),
(450,0,l)
);
}
);
width = 1306;
},
{
associatedMasterId = "0DA27741-1AFD-43F2-A947-40AFBF8D6498";
layerId = "A2873047-0ED6-4C67-9B4D-3870B51BD5C6";
width = 1200;
},
{
associatedMasterId = "0DA27741-1AFD-43F2-A947-40AFBF8D6498";
layerId = "55314CA7-5524-4D70-B802-98D4FAE25636";
width = 1246;
},
{
associatedMasterId = "0DA27741-1AFD-43F2-A947-40AFBF8D6498";
layerId = "13A3DD5D-E91B-4961-8595-F8141D3FA442";
width = 1208;
}
);
note = V;
unicode = 86;
},
{
glyphname = W;
kernLeft = V;
kernRight = V;
lastChange = "2020-03-10 05:32:26 +0000";
layers = (
{
layerId = "CAA188E2-8C62-414B-93AE-B576BEB044DB";
shapes = (
{
closed = 1;
nodes = (
(540,0,l),
(908,1286,l),
(1278,0,l),
(1366,0,l),
(1778,1440,l),
(1690,1440,l),
(1322,152,l),
(952,1440,l),
(864,1440,l),
(496,152,l),
(126,1440,l),
(40,1440,l),
(452,0,l)
);
}
);
width = 1818;
},
{
layerId = "0DA27741-1AFD-43F2-A947-40AFBF8D6498";
shapes = (
{
closed = 1;
nodes = (
(710,0,l),
(989,972,l),
(1268,0,l),
(1536,0,l),
(1958,1440,l),
(1672,1440,l),
(1402,450,l),
(1132,1440,l),
(846,1438,l),
(576,450,l),
(306,1440,l),
(20,1440,l),
(442,0,l)
);
}
);
width = 1978;
},
{
associatedMasterId = "0DA27741-1AFD-43F2-A947-40AFBF8D6498";
layerId = "A2873047-0ED6-4C67-9B4D-3870B51BD5C6";
width = 1200;
},
{
associatedMasterId = "0DA27741-1AFD-43F2-A947-40AFBF8D6498";
layerId = "55314CA7-5524-4D70-B802-98D4FAE25636";
width = 1812;
},
{
associatedMasterId = "0DA27741-1AFD-43F2-A947-40AFBF8D6498";
layerId = "13A3DD5D-E91B-4961-8595-F8141D3FA442";
width = 1298;
}
);
note = W;
unicode = 87;
},
{
glyphname = X;
kernLeft = X;
kernRight = X;
lastChange = "2020-02-20 18:21:12 +0000";
layers = (
{
layerId = "CAA188E2-8C62-414B-93AE-B576BEB044DB";
shapes = (
{
closed = 1;
nodes = (
(120,0,l),
(572,660,l),
(1026,0,l),
(1126,0,l),
(620,730,l),
(1114,1440,l),
(1014,1440,l),
(572,798,l),
(132,1440,l),
(32,1440,l),
(526,730,l),
(20,0,l)
);
}
);
width = 1146;
},
{
layerId = "0DA27741-1AFD-43F2-A947-40AFBF8D6498";
shapes = (
{
closed = 1;
nodes = (
(356,0,l),
(674,496,l),
(990,0,l),
(1324,0,l),
(842,728,l),
(1312,1440,l),
(976,1440,l),
(674,960,l),
(368,1440,l),
(34,1440,l),
(504,728,l),
(20,0,l)
);
}
);
width = 1344;
},
{
associatedMasterId = "0DA27741-1AFD-43F2-A947-40AFBF8D6498";
layerId = "A2873047-0ED6-4C67-9B4D-3870B51BD5C6";
width = 1200;
},
{
associatedMasterId = "0DA27741-1AFD-43F2-A947-40AFBF8D6498";
layerId = "55314CA7-5524-4D70-B802-98D4FAE25636";
width = 1532;
},
{
associatedMasterId = "0DA27741-1AFD-43F2-A947-40AFBF8D6498";
layerId = "13A3DD5D-E91B-4961-8595-F8141D3FA442";
width = 1254;
}
);
note = X;
unicode = 88;
},
{
glyphname = Y;
kernLeft = Y;
kernRight = Y;
lastChange = "2020-02-20 18:21:12 +0000";
layers = (
{
layerId = "CAA188E2-8C62-414B-93AE-B576BEB044DB";
shapes = (
{
closed = 1;
nodes = (
(562,0,l),
(562,612,l),
(1038,1440,l),
(942,1440,l),
(520,708,l),
(96,1440,l),
(0,1440,l),
(478,612,l),
(478,0,l)
);
}
);
width = 1038;
},
{
layerId = "0DA27741-1AFD-43F2-A947-40AFBF8D6498";
shapes = (
{
closed = 1;
nodes = (
(768,0,l),
(768,586,l),
(1260,1440,l),
(942,1440,l),
(630,898,l),
(318,1440,l),
(0,1440,l),
(492,586,l),
(492,0,l)
);
}
);
width = 1260;
},
{
associatedMasterId = "0DA27741-1AFD-43F2-A947-40AFBF8D6498";
layerId = "A2873047-0ED6-4C67-9B4D-3870B51BD5C6";
width = 1200;
},
{
associatedMasterId = "0DA27741-1AFD-43F2-A947-40AFBF8D6498";
layerId = "55314CA7-5524-4D70-B802-98D4FAE25636";
width = 1138;
},
{
associatedMasterId = "0DA27741-1AFD-43F2-A947-40AFBF8D6498";
layerId = "13A3DD5D-E91B-4961-8595-F8141D3FA442";
width = 1190;
}
);
note = Y;
unicode = 89;
},
{
glyphname = Z;
kernLeft = Z;
kernRight = Z;
lastChange = "2020-02-20 18:21:12 +0000";
layers = (
{
layerId = "CAA188E2-8C62-414B-93AE-B576BEB044DB";
shapes = (
{
closed = 1;
nodes = (
(1062,0,l),
(1062,82,l),
(228,82,l),
(1062,1406,l),
(1062,1440,l),
(100,1440,l),
(100,1356,l),
(938,1356,l),
(100,30,l),
(100,0,l)
);
}
);
width = 1162;
},
{
layerId = "0DA27741-1AFD-43F2-A947-40AFBF8D6498";
shapes = (
{
closed = 1;
nodes = (
(1240,0,l),
(1240,256,l),
(580,256,l),
(1260,1406,l),
(1260,1440,l),
(160,1440,l),
(160,1186,l),
(784,1186,l),
(100,34,l),
(100,0,l)
);
}
);
width = 1360;
},
{
associatedMasterId = "0DA27741-1AFD-43F2-A947-40AFBF8D6498";
layerId = "A2873047-0ED6-4C67-9B4D-3870B51BD5C6";
width = 1200;
},
{
associatedMasterId = "0DA27741-1AFD-43F2-A947-40AFBF8D6498";
layerId = "55314CA7-5524-4D70-B802-98D4FAE25636";
width = 1200;
},
{
associatedMasterId = "0DA27741-1AFD-43F2-A947-40AFBF8D6498";
layerId = "13A3DD5D-E91B-4961-8595-F8141D3FA442";
width = 1200;
}
);
note = Z;
unicode = 90;
},
{
glyphname = a;
kernLeft = a;
kernRight = a;
lastChange = "2020-02-20 18:21:12 +0000";
layers = (
{
background = {
shapes = (
{
closed = 1;
nodes = (
(628,-30,o),
(796,36,o),
(886,196,c),
(886,0,l),
(964,0,l),
(964,676,l),
(964,732,o),
(960,782,o),
(946,834,cs),
(898,1008,o),
(766,1110,o),
(566,1110,cs),
(336,1110,o),
(166,1020,o),
(122,822,c),
(210,794,l),
(254,964,o),
(382,1026,o),
(560,1026,cs),
(772,1026,o),
(880,896,o),
(880,664,c),
(676,638,o),
(508,624,o),
(352,588,cs),
(156,542,o),
(80,426,o),
(80,292,cs),
(80,92,o),
(234,-30,o),
(434,-30,cs)
);
},
{
closed = 1;
nodes = (
(280,54,o),
(168,140,o),
(168,292,cs),
(168,404,o),
(250,476,o),
(380,512,cs),
(528,554,o),
(688,562,o),
(880,582,c),
(880,502,o),
(878,362,o),
(832,268,cs),
(760,122,o),
(618,54,o),
(436,54,cs)
);
}
);
};
hints = (
{
horizontal = 1;
origin = (0,32);
target = (1,15);
type = Stem;
},
{
horizontal = 1;
place = (580, 84);
place = (580, 84);
type = Stem;
},
{
horizontal = 1;
origin = (0,12);
target = (0,19);
type = Stem;
},
{
horizontal = 1;
origin = (0,4);
target = up;
type = BottomGhost;
},
{
origin = (0,29);
target = (1,2);
type = Stem;
},
{
origin = (1,12);
target = (0,5);
type = Stem;
},
{
origin = (0,4);
target = (0,5);
type = Stem;
}
);
layerId = "CAA188E2-8C62-414B-93AE-B576BEB044DB";
shapes = (
{
closed = 1;
nodes = (
(684,-30,o),
(868,88,o),
(926,294,c),
(886,296,l),
(886,0,l),
(964,0,l),
(964,676,ls),
(964,748,o),
(956,830,o),
(938,884,cs),
(890,1022,o),
(752,1110,o),
(552,1110,cs),
(324,1110,o),
(170,1004,o),
(122,804,c),
(214,780,l),
(258,946,o),
(366,1026,o),
(548,1026,cs),
(798,1026,o),
(886,902,o),
(880,648,c),
(910,668,l),
(820,656,o),
(562,632,o),
(374,594,cs),
(220,562,o),
(80,476,o),
(80,286,cs),
(80,118,o),
(202,-30,o),
(454,-30,cs)
);
},
{
closed = 1;
nodes = (
(236,54,o),
(168,180,o),
(168,284,cs),
(168,432,o),
(294,492,o),
(392,516,cs),
(560,558,o),
(818,576,o),
(924,586,c),
(880,620,l),
(880,582,o),
(882,482,o),
(872,408,cs),
(842,186,o),
(684,54,o),
(450,54,cs)
);
}
);
width = 1084;
},
{
background = {
shapes = (
{
closed = 1;
nodes = (
(620,-30,o),
(714,24,o),
(808,132,c),
(808,0,l),
(1046,0,l),
(1046,644,ls),
(1046,718,o),
(1040,784,o),
(1022,840,cs),
(964,1018,o),
(814,1110,o),
(588,1110,c),
(348,1110,o),
(190,968,o),
(118,804,c),
(362,730,l),
(400,820,o),
(486,862,o),
(580,862,cs),
(674,862,o),
(762,824,o),
(776,714,c),
(600,688,o),
(414,668,o),
(274,606,cs),
(162,556,o),
(80,466,o),
(80,308,cs),
(80,106,o),
(218,-30,o),
(436,-30,cs)
);
},
{
closed = 1;
nodes = (
(394,182,o),
(346,244,o),
(346,302,cs),
(346,374,o),
(404,412,o),
(484,434,cs),
(568,458,o),
(632,470,o),
(776,494,c),
(776,444,o),
(772,366,o),
(740,312,cs),
(696,240,o),
(600,182,o),
(500,182,cs)
);
}
);
};
hints = (
{
horizontal = 1;
origin = (0,32);
target = (0,29);
type = Stem;
},
{
horizontal = 1;
place = (494, 194);
place = (494, 194);
type = Stem;
},
{
horizontal = 1;
origin = (0,12);
target = (0,19);
type = Stem;
},
{
horizontal = 1;
origin = (0,4);
target = up;
type = BottomGhost;
},
{
origin = (0,4);
target = (0,5);
type = Stem;
},
{
origin = (0,29);
target = (1,2);
type = Stem;
},
{
origin = (0,22);
target = (0,5);
type = Stem;
},
{
origin = (1,12);
target = (0,5);
type = Stem;
}
);
layerId = "0DA27741-1AFD-43F2-A947-40AFBF8D6498";
shapes = (
{
closed = 1;
nodes = (
(626,-30,o),
(736,30,o),
(842,176,c),
(808,222,l),
(808,0,l),
(1046,0,l),
(1046,660,ls),
(1046,758,o),
(1044,834,o),
(1002,914,cs),
(926,1058,o),
(770,1110,o),
(580,1110,cs),
(320,1110,o),
(172,986,o),
(118,808,c),
(364,730,l),
(398,828,o),
(500,862,o),
(580,862,cs),
(724,862,o),
(780,804,o),
(780,676,c),
(878,730,l),
(626,692,o),
(436,668,o),
(316,624,cs),
(142,560,o),
(80,448,o),
(80,298,cs),
(80,118,o),
(208,-30,o),
(440,-30,cs)
);
},
{
closed = 1;
nodes = (
(404,184,o),
(346,228,o),
(346,302,cs),
(346,356,o),
(378,394,o),
(458,426,cs),
(528,452,o),
(614,468,o),
(856,508,c),
(776,528,l),
(776,476,o),
(776,386,o),
(748,328,cs),
(726,282,o),
(648,184,o),
(498,184,cs)
);
}
);
width = 1166;
},
{
associatedMasterId = "0DA27741-1AFD-43F2-A947-40AFBF8D6498";
layerId = "A2873047-0ED6-4C67-9B4D-3870B51BD5C6";
width = 1200;
},
{
associatedMasterId = "0DA27741-1AFD-43F2-A947-40AFBF8D6498";
layerId = "55314CA7-5524-4D70-B802-98D4FAE25636";
width = 1070;
},
{
associatedMasterId = "0DA27741-1AFD-43F2-A947-40AFBF8D6498";
layerId = "13A3DD5D-E91B-4961-8595-F8141D3FA442";
width = 1180;
}
);
metricRight = n;
note = a;
unicode = 97;
},
{
glyphname = ae;
kernLeft = a;
kernRight = e;
lastChange = "2020-02-20 18:21:12 +0000";
layers = (
{
background = {
shapes = (
{
closed = 1;
nodes = (
(1547,-30,o),
(1704,70,o),
(1787,258,c),
(1721,298,l),
(1645,136,o),
(1517,54,o),
(1346,54,cs),
(1095,54,o),
(965,246,o),
(965,540,cs),
(965,826,o),
(1091,1030,o),
(1346,1026,cs),
(1596,1030,o),
(1719,840,o),
(1726,544,c),
(1726,516,l),
(1811,516,l),
(1811,870,o),
(1662,1110,o),
(1346,1110,cs),
(1048,1110,o),
(880,880,o),
(880,540,cs),
(880,206,o),
(1046,-30,o),
(1346,-30,cs)
);
},
{
closed = 1;
nodes = (
(280,54,o),
(168,140,o),
(168,292,cs),
(168,404,o),
(236,464,o),
(300,492,cs),
(388,530,o),
(700,520,o),
(882,520,c),
(880,440,o),
(874,360,o),
(830,268,cs),
(762,122,o),
(618,54,o),
(436,54,cs)
);
},
{
closed = 1;
nodes = (
(708,-32,o),
(870,82,o),
(938,300,c),
(946,834,l),
(900,1008,o),
(766,1110,o),
(566,1110,cs),
(336,1110,o),
(166,1020,o),
(122,822,c),
(210,794,l),
(254,964,o),
(382,1026,o),
(560,1026,cs),
(852,1026,o),
(886,792,o),
(882,600,c),
(660,600,o),
(392,610,o),
(268,566,cs),
(150,524,o),
(80,422,o),
(80,292,cs),
(80,92,o),
(234,-28,o),
(434,-30,cs)
);
},
{
closed = 1;
nodes = (
(1762,516,l),
(1762,600,l),
(931,600,l),
(931,516,l)
);
}
);
};
layerId = "CAA188E2-8C62-414B-93AE-B576BEB044DB";
shapes = (
{
closed = 1;
nodes = (
(1546,-30,o),
(1704,70,o),
(1786,258,c),
(1720,298,l),
(1644,132,o),
(1510,54,o),
(1348,54,cs),
(1094,54,o),
(964,248,o),
(964,540,cs),
(964,828,o),
(1092,1026,o),
(1348,1026,cs),
(1598,1026,o),
(1718,840,o),
(1726,544,c),
(1726,516,l),
(1812,516,l),
(1812,872,o),
(1660,1110,o),
(1352,1110,cs),
(1048,1110,o),
(880,880,o),
(880,542,cs),
(880,208,o),
(1044,-30,o),
(1348,-30,cs)
);
},
{
closed = 1;
nodes = (
(276,54,o),
(168,136,o),
(168,290,cs),
(168,520,o),
(408,520,o),
(534,520,cs),
(884,520,l),
(880,560,l),
(880,546,o),
(886,382,o),
(832,268,cs),
(772,138,o),
(626,54,o),
(450,54,cs)
);
},
{
closed = 1;
nodes = (
(650,-30,o),
(860,44,o),
(938,300,c),
(964,676,l),
(964,732,o),
(960,782,o),
(946,834,cs),
(900,1008,o),
(770,1110,o),
(552,1110,cs),
(346,1110,o),
(164,1020,o),
(122,822,c),
(210,794,l),
(252,964,o),
(390,1026,o),
(554,1026,cs),
(804,1026,o),
(892,870,o),
(880,588,c),
(882,600,l),
(534,600,ls),
(412,600,o),
(80,600,o),
(80,292,cs),
(80,90,o),
(224,-30,o),
(462,-30,cs)
);
},
{
closed = 1;
nodes = (
(1762,516,l),
(1762,600,l),
(930,600,l),
(930,516,l)
);
}
);
width = 1892;
},
{
background = {
shapes = (
{
closed = 1;
nodes = (
(1512,-30,o),
(1699,86,o),
(1774,282,c),
(1517,360,l),
(1478,270,o),
(1400,224,o),
(1306,224,cs),
(1145,224,o),
(1062,346,o),
(1062,540,cs),
(1062,732,o),
(1122,874,o),
(1306,874,cs),
(1489,874,o),
(1529,760,o),
(1529,564,cs),
(1529,464,l),
(1784,464,l),
(1812,840,o),
(1640,1110,o),
(1306,1110,cs),
(996,1110,o),
(790,876,o),
(790,526,cs),
(790,204,o),
(1001,-30,o),
(1321,-30,cs)
);
},
{
closed = 1;
nodes = (
(390,182,o),
(346,244,o),
(346,302,cs),
(346,380,o),
(398,412,o),
(448,426,cs),
(520,446,o),
(686,444,o),
(790,444,c),
(776,394,o),
(768,364,o),
(736,314,cs),
(692,244,o),
(600,182,o),
(500,182,cs)
);
},
{
closed = 1;
nodes = (
(646,-30,o),
(788,28,o),
(908,212,c),
(1022,840,l),
(964,1018,o),
(814,1110,o),
(588,1110,c),
(348,1110,o),
(190,968,o),
(118,804,c),
(362,730,l),
(400,820,o),
(486,862,o),
(580,862,cs),
(674,862,o),
(794,796,o),
(794,678,c),
(550,678,o),
(400,692,o),
(256,610,cs),
(178,566,o),
(80,466,o),
(80,308,cs),
(80,106,o),
(222,-30,o),
(450,-30,cs)
);
},
{
closed = 1;
nodes = (
(1659,464,l),
(1659,674,l),
(982,674,l),
(982,464,l)
);
}
);
};
layerId = "0DA27741-1AFD-43F2-A947-40AFBF8D6498";
shapes = (
{
closed = 1;
nodes = (
(1512,-30,o),
(1699,86,o),
(1774,282,c),
(1517,360,l),
(1478,270,o),
(1400,224,o),
(1306,224,cs),
(1145,224,o),
(1062,346,o),
(1062,540,cs),
(1062,732,o),
(1122,874,o),
(1306,874,cs),
(1489,874,o),
(1529,760,o),
(1529,564,cs),
(1529,464,l),
(1784,464,l),
(1812,840,o),
(1640,1110,o),
(1306,1110,cs),
(996,1110,o),
(790,876,o),
(790,526,cs),
(790,204,o),
(1001,-30,o),
(1321,-30,cs)
);
},
{
closed = 1;
nodes = (
(402,182,o),
(346,232,o),
(346,300,cs),
(346,428,o),
(544,458,o),
(648,470,cs),
(876,498,l),
(778,532,l),
(782,440,o),
(772,368,o),
(740,312,cs),
(702,248,o),
(608,182,o),
(498,182,cs)
);
},
{
closed = 1;
nodes = (
(652,-30,o),
(802,40,o),
(908,212,c),
(1046,644,l),
(1046,682,o),
(1046,762,o),
(1022,840,cs),
(970,1008,o),
(822,1110,o),
(588,1110,cs),
(348,1110,o),
(190,968,o),
(118,804,c),
(362,730,l),
(400,820,o),
(486,862,o),
(580,862,cs),
(694,862,o),
(796,806,o),
(774,630,c),
(838,682,l),
(592,650,ls),
(402,626,o),
(80,578,o),
(80,290,cs),
(80,106,o),
(212,-30,o),
(454,-30,cs)
);
},
{
closed = 1;
nodes = (
(1659,464,l),
(1659,674,l),
(982,674,l),
(982,464,l)
);
}
);
width = 1868;
},
{
associatedMasterId = "0DA27741-1AFD-43F2-A947-40AFBF8D6498";
layerId = "A2873047-0ED6-4C67-9B4D-3870B51BD5C6";
width = 1200;
},
{
associatedMasterId = "0DA27741-1AFD-43F2-A947-40AFBF8D6498";
layerId = "55314CA7-5524-4D70-B802-98D4FAE25636";
width = 2058;
},
{
associatedMasterId = "0DA27741-1AFD-43F2-A947-40AFBF8D6498";
layerId = "13A3DD5D-E91B-4961-8595-F8141D3FA442";
width = 1338;
}
);
metricLeft = a;
metricRight = e;
unicode = 230;
},
{
glyphname = b;
kernLeft = n;
kernRight = o;
lastChange = "2020-02-20 18:21:12 +0000";
layers = (
{
layerId = "CAA188E2-8C62-414B-93AE-B576BEB044DB";
shapes = (
{
closed = 1;
nodes = (
(908,-30,o),
(1072,218,o),
(1072,542,cs),
(1072,860,o),
(908,1110,o),
(618,1110,cs),
(316,1110,o),
(154,870,o),
(154,542,cs),
(154,220,o),
(316,-30,o),
(602,-30,cs)
);
},
{
closed = 1;
nodes = (
(218,0,l),
(218,850,l),
(224,850,l),
(224,1440,l),
(140,1440,l),
(140,0,l)
);
},
{
closed = 1;
nodes = (
(348,54,o),
(218,264,o),
(218,542,cs),
(218,824,o),
(350,1026,o),
(602,1026,cs),
(860,1026,o),
(982,818,o),
(982,542,cs),
(982,264,o),
(852,54,o),
(602,54,cs)
);
}
);
width = 1152;
},
{
layerId = "0DA27741-1AFD-43F2-A947-40AFBF8D6498";
shapes = (
{
closed = 1;
nodes = (
(968,-30,o),
(1168,216,o),
(1168,540,cs),
(1168,870,o),
(966,1110,o),
(656,1110,cs),
(348,1110,o),
(184,864,o),
(184,540,cs),
(184,216,o),
(348,-30,o),
(670,-30,cs)
);
},
{
closed = 1;
nodes = (
(378,0,l),
(378,740,l),
(412,740,l),
(412,1440,l),
(138,1440,l),
(138,0,l)
);
},
{
closed = 1;
nodes = (
(444,212,o),
(378,344,o),
(378,540,cs),
(378,736,o),
(446,868,o),
(616,868,cs),
(798,868,o),
(880,720,o),
(880,540,cs),
(880,358,o),
(802,212,o),
(626,212,cs)
);
}
);
width = 1248;
},
{
associatedMasterId = "0DA27741-1AFD-43F2-A947-40AFBF8D6498";
layerId = "A2873047-0ED6-4C67-9B4D-3870B51BD5C6";
width = 1200;
},
{
associatedMasterId = "0DA27741-1AFD-43F2-A947-40AFBF8D6498";
layerId = "55314CA7-5524-4D70-B802-98D4FAE25636";
width = 1150;
},
{
associatedMasterId = "0DA27741-1AFD-43F2-A947-40AFBF8D6498";
layerId = "13A3DD5D-E91B-4961-8595-F8141D3FA442";
width = 1192;
}
);
metricLeft = n;
metricRight = o;
note = b;
unicode = 98;
},
{
glyphname = c;
kernLeft = o;
kernRight = c;
lastChange = "2020-02-20 18:21:12 +0000";
layers = (
{
layerId = "CAA188E2-8C62-414B-93AE-B576BEB044DB";
shapes = (
{
closed = 1;
nodes = (
(770,-30,o),
(918,60,o),
(1008,234,c),
(926,270,l),
(860,128,o),
(732,54,o),
(574,54,cs),
(308,54,o),
(174,246,o),
(170,540,cs),
(174,828,o),
(302,1026,o),
(574,1026,cs),
(736,1026,o),
(868,946,o),
(928,808,c),
(1008,842,l),
(942,1008,o),
(774,1110,o),
(574,1110,cs),
(254,1110,o),
(86,886,o),
(80,540,cs),
(86,202,o),
(252,-30,o),
(574,-30,cs)
);
}
);
width = 1078;
},
{
layerId = "0DA27741-1AFD-43F2-A947-40AFBF8D6498";
shapes = (
{
closed = 1;
nodes = (
(866,-30,o),
(1044,98,o),
(1106,328,c),
(828,386,l),
(796,282,o),
(738,224,o),
(616,224,cs),
(452,224,o),
(368,352,o),
(368,540,cs),
(368,720,o),
(444,856,o),
(616,856,cs),
(716,856,o),
(802,790,o),
(834,678,c),
(1106,750,l),
(1058,972,o),
(874,1110,o),
(620,1110,cs),
(290,1110,o),
(80,868,o),
(80,540,cs),
(80,216,o),
(280,-30,o),
(616,-30,cs)
);
}
);
width = 1166;
},
{
associatedMasterId = "0DA27741-1AFD-43F2-A947-40AFBF8D6498";
layerId = "A2873047-0ED6-4C67-9B4D-3870B51BD5C6";
width = 1200;
},
{
associatedMasterId = "0DA27741-1AFD-43F2-A947-40AFBF8D6498";
layerId = "55314CA7-5524-4D70-B802-98D4FAE25636";
width = 1132;
},
{
associatedMasterId = "0DA27741-1AFD-43F2-A947-40AFBF8D6498";
layerId = "13A3DD5D-E91B-4961-8595-F8141D3FA442";
width = 1190;
}
);
metricLeft = o;
note = c;
unicode = 99;
},
{
glyphname = d;
kernLeft = o;
kernRight = u;
lastChange = "2020-02-20 18:21:12 +0000";
layers = (
{
layerId = "CAA188E2-8C62-414B-93AE-B576BEB044DB";
shapes = (
{
closed = 1;
nodes = (
(836,-30,o),
(998,220,o),
(998,542,cs),
(998,870,o),
(836,1110,o),
(534,1110,cs),
(244,1110,o),
(80,860,o),
(80,542,cs),
(80,218,o),
(244,-30,o),
(550,-30,cs)
);
},
{
closed = 1;
nodes = (
(300,54,o),
(170,264,o),
(170,542,cs),
(170,818,o),
(292,1026,o),
(550,1026,cs),
(802,1026,o),
(934,824,o),
(934,542,cs),
(934,264,o),
(804,54,o),
(550,54,cs)
);
},
{
closed = 1;
nodes = (
(1012,0,l),
(1012,1440,l),
(928,1440,l),
(928,850,l),
(934,850,l),
(934,0,l)
);
}
);
width = 1152;
},
{
layerId = "0DA27741-1AFD-43F2-A947-40AFBF8D6498";
shapes = (
{
closed = 1;
nodes = (
(900,-30,o),
(1064,216,o),
(1064,540,cs),
(1064,864,o),
(900,1110,o),
(592,1110,cs),
(282,1110,o),
(80,870,o),
(80,540,cs),
(80,216,o),
(280,-30,o),
(578,-30,cs)
);
},
{
closed = 1;
nodes = (
(446,212,o),
(368,358,o),
(368,540,cs),
(368,720,o),
(450,868,o),
(632,868,cs),
(802,868,o),
(870,736,o),
(870,540,cs),
(870,344,o),
(804,212,o),
(622,212,cs)
);
},
{
closed = 1;
nodes = (
(1110,0,l),
(1110,1440,l),
(836,1440,l),
(836,740,l),
(870,740,l),
(870,0,l)
);
}
);
width = 1250;
},
{
associatedMasterId = "0DA27741-1AFD-43F2-A947-40AFBF8D6498";
layerId = "A2873047-0ED6-4C67-9B4D-3870B51BD5C6";
width = 1200;
},
{
associatedMasterId = "0DA27741-1AFD-43F2-A947-40AFBF8D6498";
layerId = "55314CA7-5524-4D70-B802-98D4FAE25636";
width = 1150;
},
{
associatedMasterId = "0DA27741-1AFD-43F2-A947-40AFBF8D6498";
layerId = "13A3DD5D-E91B-4961-8595-F8141D3FA442";
width = 1192;
}
);
note = d;
unicode = 100;
},
{
glyphname = eth;
kernLeft = d;
kernRight = b;
lastChange = "2020-02-20 18:21:12 +0000";
layers = (
{
layerId = "CAA188E2-8C62-414B-93AE-B576BEB044DB";
shapes = (
{
closed = 1;
nodes = (
(878,-34,o),
(1066,180,o),
(1066,506,cs),
(1066,842,o),
(1054,994,o),
(976,1144,cs),
(880,1340,o),
(704,1452,o),
(470,1466,c),
(460,1384,l),
(762,1362,o),
(934,1170,o),
(970,850,c),
(886,976,o),
(730,1040,o),
(574,1038,cs),
(266,1042,o),
(84,832,o),
(80,504,cs),
(84,180,o),
(262,-34,o),
(574,-30,cs)
);
},
{
closed = 1;
nodes = (
(314,54,o),
(170,222,o),
(170,504,cs),
(170,778,o),
(312,958,o),
(574,954,cs),
(828,958,o),
(976,784,o),
(976,506,cs),
(976,230,o),
(838,54,o),
(574,54,cs)
);
},
{
closed = 1;
nodes = (
(884,1512,l),
(818,1564,l),
(540,1210,l),
(606,1158,l)
);
}
);
width = 1146;
},
{
layerId = "0DA27741-1AFD-43F2-A947-40AFBF8D6498";
shapes = (
{
closed = 1;
nodes = (
(920,-30,o),
(1122,180,o),
(1122,510,cs),
(1122,898,o),
(1064,1128,o),
(920,1304,cs),
(810,1440,o),
(648,1514,o),
(444,1520,c),
(402,1314,l),
(622,1298,o),
(840,1136,o),
(866,966,c),
(760,1018,o),
(690,1036,o),
(602,1036,cs),
(294,1036,o),
(80,818,o),
(80,502,cs),
(80,188,o),
(294,-30,o),
(602,-30,cs)
);
},
{
closed = 1;
nodes = (
(442,210,o),
(352,316,o),
(352,504,cs),
(352,692,o),
(440,796,o),
(602,796,cs),
(758,796,o),
(850,688,o),
(850,504,cs),
(850,318,o),
(758,210,o),
(602,210,cs)
);
},
{
closed = 1;
nodes = (
(970,1434,l),
(822,1566,l),
(492,1190,l),
(640,1058,l)
);
}
);
width = 1202;
},
{
associatedMasterId = "0DA27741-1AFD-43F2-A947-40AFBF8D6498";
layerId = "A2873047-0ED6-4C67-9B4D-3870B51BD5C6";
width = 1200;
},
{
associatedMasterId = "0DA27741-1AFD-43F2-A947-40AFBF8D6498";
layerId = "55314CA7-5524-4D70-B802-98D4FAE25636";
width = 1170;
},
{
associatedMasterId = "0DA27741-1AFD-43F2-A947-40AFBF8D6498";
layerId = "13A3DD5D-E91B-4961-8595-F8141D3FA442";
width = 1196;
}
);
metricLeft = d;
metricRight = b;
unicode = 240;
},
{
glyphname = e;
kernLeft = o;
kernRight = e;
lastChange = "2020-03-29 06:08:58 +0000";
layers = (
{
layerId = "CAA188E2-8C62-414B-93AE-B576BEB044DB";
shapes = (
{
closed = 1;
nodes = (
(784,-30,o),
(952,74,o),
(1040,258,c),
(970,298,l),
(890,140,o),
(752,54,o),
(574,54,cs),
(318,54,o),
(170,232,o),
(170,540,cs),
(170,848,o),
(318,1026,o),
(574,1026,cs),
(826,1026,o),
(968,854,o),
(976,544,c),
(976,516,l),
(1066,516,l),
(1066,892,o),
(884,1110,o),
(574,1110,cs),
(266,1110,o),
(80,894,o),
(80,540,cs),
(80,188,o),
(268,-30,o),
(574,-30,cs)
);
},
{
closed = 1;
nodes = (
(1014,516,l),
(1014,600,l),
(134,600,l),
(134,516,l)
);
}
);
width = 1146;
},
{
background = {
shapes = (
{
closed = 1;
nodes = (
(854,-30,o),
(1046,94,o),
(1122,282,c),
(850,360,l),
(810,272,o),
(730,224,o),
(626,224,cs),
(462,224,o),
(368,338,o),
(368,540,cs),
(368,762,o),
(454,874,o),
(626,874,cs),
(798,874,o),
(862,790,o),
(862,564,cs),
(862,464,l),
(1131,464,l),
(1164,856,o),
(966,1110,o),
(626,1110,cs),
(298,1110,o),
(80,876,o),
(80,526,cs),
(80,198,o),
(310,-30,o),
(642,-30,cs)
);
},
{
closed = 1;
nodes = (
(1000,464,l),
(1000,666,l),
(284,666,l),
(284,464,l)
);
}
);
};
layerId = "0DA27741-1AFD-43F2-A947-40AFBF8D6498";
shapes = (
{
closed = 1;
nodes = (
(850,-30,o),
(1040,84,o),
(1122,282,c),
(850,360,l),
(810,272,o),
(732,224,o),
(626,224,cs),
(456,224,o),
(368,338,o),
(368,540,cs),
(368,760,o),
(452,874,o),
(638,874,cs),
(796,874,o),
(862,784,o),
(862,564,cs),
(862,464,l),
(1131,464,l),
(1164,856,o),
(966,1110,o),
(626,1110,cs),
(306,1110,o),
(80,880,o),
(80,526,cs),
(80,202,o),
(310,-30,o),
(642,-30,cs)
);
},
{
closed = 1;
nodes = (
(1000,464,l),
(1000,666,l),
(284,666,l),
(284,464,l)
);
}
);
width = 1216;
},
{
associatedMasterId = "0DA27741-1AFD-43F2-A947-40AFBF8D6498";
layerId = "A2873047-0ED6-4C67-9B4D-3870B51BD5C6";
width = 1200;
},
{
associatedMasterId = "0DA27741-1AFD-43F2-A947-40AFBF8D6498";
layerId = "55314CA7-5524-4D70-B802-98D4FAE25636";
width = 1168;
},
{
associatedMasterId = "0DA27741-1AFD-43F2-A947-40AFBF8D6498";
layerId = "13A3DD5D-E91B-4961-8595-F8141D3FA442";
width = 1194;
}
);
metricLeft = o;
note = e;
unicode = 101;
},
{
glyphname = eogonek;
kernLeft = e;
kernRight = e;
lastChange = "2020-02-20 18:21:12 +0000";
layers = (
{
layerId = "CAA188E2-8C62-414B-93AE-B576BEB044DB";
shapes = (
{
closed = 1;
nodes = (
(888,-448,o),
(918,-426,o),
(942,-402,c),
(890,-344,l),
(842,-388,o),
(772,-424,o),
(718,-370,cs),
(690,-342,o),
(692,-306,o),
(702,-268,cs),
(716,-216,o),
(750,-162,o),
(784,-112,cs),
(816,-66,o),
(976,118,o),
(1032,242,c),
(948,236,l),
(890,104,o),
(750,-26,o),
(710,-80,cs),
(670,-132,o),
(638,-188,o),
(622,-246,cs),
(602,-318,o),
(612,-382,o),
(660,-430,cs),
(706,-476,o),
(780,-494,o),
(852,-464,cs)
);
},
{
ref = e;
}
);
width = 1146;
},
{
layerId = "0DA27741-1AFD-43F2-A947-40AFBF8D6498";
shapes = (
{
closed = 1;
nodes = (
(1022,-440,o),
(1054,-410,o),
(1074,-374,c),
(980,-250,l),
(948,-276,o),
(896,-290,o),
(872,-262,cs),
(854,-242,o),
(860,-206,o),
(864,-194,cs),
(876,-156,o),
(900,-100,o),
(936,-36,cs),
(972,28,o),
(1018,106,o),
(1080,204,c),
(910,232,l),
(860,178,o),
(804,92,o),
(776,48,cs),
(748,4,o),
(702,-64,o),
(676,-124,cs),
(636,-216,o),
(654,-324,o),
(706,-390,cs),
(768,-470,o),
(884,-502,o),
(978,-460,cs)
);
},
{
ref = e;
}
);
width = 1216;
},
{
associatedMasterId = "0DA27741-1AFD-43F2-A947-40AFBF8D6498";
layerId = "A2873047-0ED6-4C67-9B4D-3870B51BD5C6";
width = 1200;
},
{
associatedMasterId = "0DA27741-1AFD-43F2-A947-40AFBF8D6498";
layerId = "55314CA7-5524-4D70-B802-98D4FAE25636";
width = 1168;
},
{
associatedMasterId = "0DA27741-1AFD-43F2-A947-40AFBF8D6498";
layerId = "13A3DD5D-E91B-4961-8595-F8141D3FA442";
width = 1194;
}
);
metricLeft = e;
metricRight = e;
unicode = 281;
},
{
glyphname = f;
kernLeft = f;
kernRight = f;
lastChange = "2020-03-06 05:46:42 +0000";
layers = (
{
layerId = "CAA188E2-8C62-414B-93AE-B576BEB044DB";
shapes = (
{
closed = 1;
nodes = (
(340,0,l),
(340,1194,ls),
(340,1340,o),
(402,1394,o),
(528,1394,cs),
(658,1394,l),
(658,1470,l),
(518,1470,ls),
(432,1470,o),
(368,1452,o),
(320,1402,cs),
(270,1348,o),
(256,1286,o),
(256,1202,cs),
(256,0,l)
);
},
{
closed = 1;
nodes = (
(658,996,l),
(658,1080,l),
(60,1080,l),
(60,996,l)
);
}
);
width = 678;
},
{
layerId = "0DA27741-1AFD-43F2-A947-40AFBF8D6498";
shapes = (
{
closed = 1;
nodes = (
(502,0,l),
(502,1140,ls),
(502,1200,o),
(542,1250,o),
(628,1250,c),
(752,1250,l),
(752,1470,l),
(618,1470,l),
(540,1470,o),
(402,1482,o),
(302,1370,cs),
(224,1284,o),
(230,1158,o),
(230,1076,cs),
(230,0,l)
);
},
{
closed = 1;
nodes = (
(752,870,l),
(752,1080,l),
(60,1080,l),
(60,870,l)
);
}
);
width = 772;
},
{
associatedMasterId = "0DA27741-1AFD-43F2-A947-40AFBF8D6498";
layerId = "A2873047-0ED6-4C67-9B4D-3870B51BD5C6";
width = 1200;
},
{
associatedMasterId = "0DA27741-1AFD-43F2-A947-40AFBF8D6498";
layerId = "55314CA7-5524-4D70-B802-98D4FAE25636";
width = 596;
},
{
associatedMasterId = "0DA27741-1AFD-43F2-A947-40AFBF8D6498";
layerId = "13A3DD5D-E91B-4961-8595-F8141D3FA442";
width = 1104;
}
);
note = f;
unicode = 102;
},
{
glyphname = g;
kernLeft = g;
kernRight = g;
lastChange = "2020-02-20 18:21:12 +0000";
layers = (
{
layerId = "CAA188E2-8C62-414B-93AE-B576BEB044DB";
shapes = (
{
closed = 1;
nodes = (
(830,-510,o),
(970,-388,o),
(1002,-126,cs),
(1010,-66,o),
(1012,-6,o),
(1012,60,cs),
(1012,1080,l),
(934,1080,l),
(934,336,l),
(926,336,l),
(926,60,ls),
(926,-260,o),
(842,-424,o),
(552,-424,cs),
(418,-424,o),
(274,-368,o),
(202,-220,c),
(128,-270,l),
(226,-452,o),
(396,-510,o),
(552,-510,cs)
);
},
{
closed = 1;
nodes = (
(836,-30,o),
(998,220,o),
(998,542,cs),
(998,870,o),
(836,1110,o),
(534,1110,cs),
(244,1110,o),
(80,860,o),
(80,542,cs),
(80,218,o),
(244,-30,o),
(550,-30,cs)
);
},
{
closed = 1;
nodes = (
(300,54,o),
(170,264,o),
(170,542,cs),
(170,818,o),
(292,1026,o),
(550,1026,cs),
(802,1026,o),
(934,824,o),
(934,542,cs),
(934,264,o),
(804,54,o),
(550,54,cs)
);
}
);
width = 1152;
},
{
layerId = "0DA27741-1AFD-43F2-A947-40AFBF8D6498";
shapes = (
{
closed = 1;
nodes = (
(840,-510,o),
(1040,-418,o),
(1092,-220,cs),
(1104,-174,o),
(1108,-128,o),
(1108,-74,cs),
(1108,1080,l),
(870,1080,l),
(870,244,l),
(836,244,l),
(836,-70,ls),
(840,-190,o),
(726,-252,o),
(604,-252,cs),
(528,-252,o),
(458,-218,o),
(424,-154,c),
(172,-276,l),
(254,-416,o),
(418,-510,o),
(602,-510,cs)
);
},
{
closed = 1;
nodes = (
(900,-30,o),
(1064,216,o),
(1064,540,cs),
(1064,864,o),
(900,1110,o),
(592,1110,cs),
(282,1110,o),
(80,870,o),
(80,540,cs),
(80,216,o),
(280,-30,o),
(578,-30,cs)
);
},
{
closed = 1;
nodes = (
(446,212,o),
(368,358,o),
(368,540,cs),
(368,720,o),
(450,868,o),
(632,868,cs),
(802,868,o),
(870,736,o),
(870,540,cs),
(870,344,o),
(804,212,o),
(622,212,cs)
);
}
);
width = 1248;
},
{
associatedMasterId = "0DA27741-1AFD-43F2-A947-40AFBF8D6498";
layerId = "A2873047-0ED6-4C67-9B4D-3870B51BD5C6";
width = 1200;
},
{
associatedMasterId = "0DA27741-1AFD-43F2-A947-40AFBF8D6498";
layerId = "55314CA7-5524-4D70-B802-98D4FAE25636";
width = 1150;
},
{
associatedMasterId = "0DA27741-1AFD-43F2-A947-40AFBF8D6498";
layerId = "13A3DD5D-E91B-4961-8595-F8141D3FA442";
width = 1192;
}
);
metricLeft = o;
metricRight = u;
note = g;
unicode = 103;
},
{
glyphname = h;
kernLeft = h;
kernRight = h;
lastChange = "2020-02-20 18:21:12 +0000";
layers = (
{
background = {
shapes = (
{
closed = 1;
nodes = (
(1026,0,l),
(1026,526,ls),
(1030,730,o),
(998,922,o),
(834,1034,cs),
(750,1090,o),
(650,1110,o),
(556,1102,cs),
(460,1098,o),
(362,1064,o),
(290,996,cs),
(218,928,o),
(178,834,o),
(160,744,cs),
(146,676,o),
(148,670,o),
(146,474,c),
(224,474,l),
(224,562,o),
(220,648,o),
(238,728,cs),
(252,808,o),
(288,884,o),
(346,936,cs),
(402,990,o),
(480,1018,o),
(560,1022,cs),
(642,1026,o),
(722,1008,o),
(788,966,cs),
(924,874,o),
(942,720,o),
(942,526,cs),
(942,0,l)
);
},
{
closed = 1;
nodes = (
(224,0,l),
(224,590,l),
(218,590,l),
(218,1440,l),
(140,1440,l),
(140,0,l)
);
}
);
};
layerId = "CAA188E2-8C62-414B-93AE-B576BEB044DB";
shapes = (
{
closed = 1;
nodes = (
(1026,0,l),
(1026,588,ls),
(1026,908,o),
(862,1104,o),
(588,1104,cs),
(350,1104,o),
(146,958,o),
(146,588,c),
(224,590,l),
(224,822,o),
(324,1022,o),
(588,1022,cs),
(812,1022,o),
(942,880,o),
(942,572,cs),
(942,0,l)
);
},
{
closed = 1;
nodes = (
(224,0,l),
(224,590,l),
(218,590,l),
(218,1440,l),
(140,1440,l),
(140,0,l)
);
}
);
width = 1146;
},
{
background = {
shapes = (
{
closed = 1;
nodes = (
(1152,0,l),
(1152,522,l),
(1152,690,o),
(1152,878,o),
(1034,994,cs),
(930,1096,o),
(800,1118,o),
(672,1110,cs),
(574,1104,o),
(464,1068,o),
(394,984,cs),
(314,890,o),
(282,820,o),
(264,714,c),
(258,668,o),
(258,506,o),
(258,470,c),
(414,470,l),
(414,544,o),
(416,628,o),
(426,676,c),
(438,736,o),
(466,784,o),
(506,814,cs),
(542,840,o),
(584,854,o),
(634,856,cs),
(708,858,o),
(766,836,o),
(804,794,cs),
(860,734,o),
(876,622,o),
(876,510,c),
(876,0,l)
);
},
{
closed = 1;
nodes = (
(414,0,l),
(414,700,l),
(380,700,l),
(380,1440,l),
(140,1440,l),
(140,0,l)
);
}
);
};
layerId = "0DA27741-1AFD-43F2-A947-40AFBF8D6498";
shapes = (
{
closed = 1;
nodes = (
(1152,0,l),
(1152,606,ls),
(1152,696,o),
(1152,1112,o),
(730,1112,cs),
(412,1112,o),
(258,878,o),
(258,622,c),
(414,548,l),
(414,816,o),
(550,856,o),
(644,856,cs),
(876,856,o),
(876,608,o),
(876,510,cs),
(876,0,l)
);
},
{
closed = 1;
nodes = (
(414,0,l),
(414,700,l),
(380,700,l),
(380,1440,l),
(138,1440,l),
(138,0,l)
);
}
);
width = 1272;
},
{
associatedMasterId = "0DA27741-1AFD-43F2-A947-40AFBF8D6498";
layerId = "A2873047-0ED6-4C67-9B4D-3870B51BD5C6";
width = 1200;
},
{
associatedMasterId = "0DA27741-1AFD-43F2-A947-40AFBF8D6498";
layerId = "55314CA7-5524-4D70-B802-98D4FAE25636";
width = 1128;
},
{
associatedMasterId = "0DA27741-1AFD-43F2-A947-40AFBF8D6498";
layerId = "13A3DD5D-E91B-4961-8595-F8141D3FA442";
width = 1188;
}
);
metricLeft = n;
metricRight = n;
note = h;
unicode = 104;
},
{
glyphname = idotless;
kernLeft = i;
kernRight = i;
lastChange = "2020-02-20 18:21:12 +0000";
layers = (
{
layerId = "CAA188E2-8C62-414B-93AE-B576BEB044DB";
shapes = (
{
closed = 1;
nodes = (
(244,0,l),
(244,1080,l),
(160,1080,l),
(160,0,l)
);
}
);
width = 404;
},
{
layerId = "0DA27741-1AFD-43F2-A947-40AFBF8D6498";
shapes = (
{
closed = 1;
nodes = (
(432,0,l),
(432,1080,l),
(160,1080,l),
(160,0,l)
);
}
);
width = 592;
},
{
associatedMasterId = "0DA27741-1AFD-43F2-A947-40AFBF8D6498";
layerId = "A2873047-0ED6-4C67-9B4D-3870B51BD5C6";
width = 1200;
},
{
associatedMasterId = "0DA27741-1AFD-43F2-A947-40AFBF8D6498";
layerId = "55314CA7-5524-4D70-B802-98D4FAE25636";
width = 326;
},
{
associatedMasterId = "0DA27741-1AFD-43F2-A947-40AFBF8D6498";
layerId = "13A3DD5D-E91B-4961-8595-F8141D3FA442";
width = 1060;
}
);
unicode = 305;
},
{
glyphname = j;
kernLeft = j;
kernRight = j;
lastChange = "2020-08-02 04:55:25 +0000";
layers = (
{
layerId = "CAA188E2-8C62-414B-93AE-B576BEB044DB";
shapes = (
{
closed = 1;
nodes = (
(46,-480,ls),
(220,-480,o),
(290,-404,o),
(290,-220,cs),
(290,1080,l),
(206,1080,l),
(206,-230,ls),
(206,-354,o),
(132,-394,o),
(48,-394,cs),
(-20,-394,l),
(-20,-480,l)
);
},
{
pos = (28,1309);
ref = period;
}
);
width = 450;
},
{
layerId = "0DA27741-1AFD-43F2-A947-40AFBF8D6498";
shapes = (
{
closed = 1;
nodes = (
(164,-480,ls),
(346,-480,o),
(462,-368,o),
(462,-196,cs),
(462,1080,l),
(190,1080,l),
(190,-64,ls),
(190,-168,o),
(152,-226,o),
(28,-226,cs),
(-20,-226,l),
(-20,-480,l)
);
},
{
pos = (6,1213);
ref = period;
}
);
width = 602;
},
{
associatedMasterId = "0DA27741-1AFD-43F2-A947-40AFBF8D6498";
layerId = "A2873047-0ED6-4C67-9B4D-3870B51BD5C6";
width = 1200;
},
{
associatedMasterId = "0DA27741-1AFD-43F2-A947-40AFBF8D6498";
layerId = "55314CA7-5524-4D70-B802-98D4FAE25636";
width = 378;
},
{
associatedMasterId = "0DA27741-1AFD-43F2-A947-40AFBF8D6498";
layerId = "13A3DD5D-E91B-4961-8595-F8141D3FA442";
width = 1068;
}
);
note = j;
unicode = 106;
},
{
glyphname = jcircumflex;
kernLeft = j;
kernRight = j;
lastChange = "2020-03-14 00:18:05 +0000";
layers = (
{
layerId = "CAA188E2-8C62-414B-93AE-B576BEB044DB";
shapes = (
{
closed = 1;
nodes = (
(46,-480,ls),
(220,-480,o),
(290,-404,o),
(290,-220,cs),
(290,1080,l),
(206,1080,l),
(206,-230,ls),
(206,-354,o),
(132,-394,o),
(48,-394,cs),
(-20,-394,l),
(-20,-480,l)
);
},
{
pos = (-238,-360);
ref = circumflexcomb;
}
);
width = 450;
},
{
layerId = "0DA27741-1AFD-43F2-A947-40AFBF8D6498";
shapes = (
{
closed = 1;
nodes = (
(164,-480,ls),
(346,-480,o),
(462,-368,o),
(462,-196,cs),
(462,1080,l),
(190,1080,l),
(190,-64,ls),
(190,-168,o),
(152,-226,o),
(28,-226,cs),
(-20,-226,l),
(-20,-480,l)
);
},
{
pos = (-275,-360);
ref = circumflexcomb;
}
);
width = 602;
}
);
unicode = 309;
},
{
glyphname = k;
kernLeft = k;
kernRight = k;
lastChange = "2020-08-02 05:38:10 +0000";
layers = (
{
layerId = "CAA188E2-8C62-414B-93AE-B576BEB044DB";
shapes = (
{
closed = 1;
nodes = (
(224,0,l),
(224,1440,l),
(140,1440,l),
(140,0,l)
);
},
{
closed = 1;
nodes = (
(176,528,l),
(176,421,l),
(890,1080,l),
(774,1080,l)
);
},
{
closed = 1;
nodes = (
(795,0,l),
(912,0,l),
(366,646,l),
(295,591,l)
);
}
);
width = 936;
},
{
layerId = "0DA27741-1AFD-43F2-A947-40AFBF8D6498";
shapes = (
{
closed = 1;
nodes = (
(396,0,l),
(396,1440,l),
(140,1440,l),
(138,0,l)
);
},
{
closed = 1;
nodes = (
(269,563,l),
(269,225,l),
(1104,1080,l),
(787,1080,l)
);
},
{
closed = 1;
nodes = (
(847,0,l),
(1137,0,l),
(582,743,l),
(406,591,l)
);
}
);
width = 1104;
},
{
associatedMasterId = "0DA27741-1AFD-43F2-A947-40AFBF8D6498";
layerId = "A2873047-0ED6-4C67-9B4D-3870B51BD5C6";
width = 1200;
},
{
associatedMasterId = "0DA27741-1AFD-43F2-A947-40AFBF8D6498";
layerId = "55314CA7-5524-4D70-B802-98D4FAE25636";
width = 1000;
},
{
associatedMasterId = "0DA27741-1AFD-43F2-A947-40AFBF8D6498";
layerId = "13A3DD5D-E91B-4961-8595-F8141D3FA442";
width = 1168;
}
);
metricLeft = n;
note = k;
unicode = 107;
},
{
glyphname = l;
kernLeft = i;
kernRight = i;
lastChange = "2020-03-29 06:07:26 +0000";
layers = (
{
layerId = "CAA188E2-8C62-414B-93AE-B576BEB044DB";
shapes = (
{
closed = 1;
nodes = (
(244,0,l),
(244,1470,l),
(160,1470,l),
(160,0,l)
);
}
);
width = 404;
},
{
layerId = "0DA27741-1AFD-43F2-A947-40AFBF8D6498";
shapes = (
{
closed = 1;
nodes = (
(432,0,l),
(432,1470,l),
(160,1470,l),
(160,0,l)
);
}
);
width = 592;
},
{
associatedMasterId = "0DA27741-1AFD-43F2-A947-40AFBF8D6498";
layerId = "A2873047-0ED6-4C67-9B4D-3870B51BD5C6";
width = 1200;
},
{
associatedMasterId = "0DA27741-1AFD-43F2-A947-40AFBF8D6498";
layerId = "55314CA7-5524-4D70-B802-98D4FAE25636";
width = 326;
},
{
associatedMasterId = "0DA27741-1AFD-43F2-A947-40AFBF8D6498";
layerId = "13A3DD5D-E91B-4961-8595-F8141D3FA442";
width = 1060;
}
);
note = l;
unicode = 108;
},
{
glyphname = m;
kernLeft = m;
kernRight = m;
lastChange = "2020-02-20 18:21:12 +0000";
layers = (
{
background = {
shapes = (
{
closed = 1;
nodes = (
(140,0,l),
(224,0,l),
(224,860,l),
(218,860,l),
(218,1080,l),
(140,1080,l)
);
},
{
closed = 1;
nodes = (
(864,0,l),
(866,668,ls),
(866,834,o),
(862,944,o),
(732,1042,cs),
(668,1090,o),
(588,1110,o),
(512,1110,cs),
(402,1110,o),
(296,1064,o),
(226,980,cs),
(168,910,o),
(146,812,o),
(150,718,c),
(224,718,l),
(224,794,o),
(232,860,o),
(284,928,cs),
(336,998,o),
(420,1034,o),
(510,1034,cs),
(570,1034,o),
(632,1014,o),
(678,976,cs),
(780,894,o),
(782,808,o),
(782,668,cs),
(780,0,l)
);
},
{
closed = 1;
nodes = (
(1506,0,l),
(1508,668,ls),
(1508,834,o),
(1504,944,o),
(1374,1042,cs),
(1310,1090,o),
(1230,1110,o),
(1154,1110,cs),
(1044,1110,o),
(938,1064,o),
(868,980,cs),
(810,910,o),
(788,812,o),
(792,718,c),
(866,718,l),
(866,794,o),
(874,860,o),
(926,928,cs),
(978,998,o),
(1062,1034,o),
(1152,1034,cs),
(1212,1034,o),
(1274,1014,o),
(1320,976,cs),
(1422,894,o),
(1424,808,o),
(1424,668,cs),
(1422,0,l)
);
}
);
};
layerId = "CAA188E2-8C62-414B-93AE-B576BEB044DB";
shapes = (
{
closed = 1;
nodes = (
(1506,0,l),
(1508,750,ls),
(1508,974,o),
(1360,1110,o),
(1156,1110,cs),
(940,1110,o),
(782,956,o),
(792,718,c),
(866,718,l),
(866,958,o),
(1022,1034,o),
(1150,1034,cs),
(1304,1034,o),
(1424,924,o),
(1424,744,cs),
(1422,0,l)
);
},
{
closed = 1;
nodes = (
(224,0,l),
(224,860,l),
(218,860,l),
(218,1080,l),
(140,1080,l),
(140,0,l)
);
},
{
closed = 1;
nodes = (
(864,0,l),
(866,744,ls),
(866,998,o),
(698,1110,o),
(516,1110,cs),
(302,1110,o),
(150,958,o),
(150,750,c),
(224,718,l),
(224,910,o),
(338,1034,o),
(506,1034,cs),
(670,1034,o),
(784,916,o),
(784,730,cs),
(782,0,l)
);
}
);
width = 1628;
},
{
background = {
shapes = (
{
closed = 1;
nodes = (
(138,0,l),
(412,0,l),
(412,722,l),
(378,722,l),
(378,1080,l),
(138,1080,l)
);
},
{
closed = 1;
nodes = (
(1062,0,l),
(1062,658,ls),
(1062,796,o),
(1052,908,o),
(958,1006,cs),
(890,1078,o),
(776,1106,o),
(686,1106,cs),
(544,1106,o),
(414,1034,o),
(342,914,cs),
(292,830,o),
(298,746,o),
(298,654,c),
(412,654,l),
(412,708,o),
(420,756,o),
(462,804,cs),
(496,842,o),
(548,864,o),
(600,864,cs),
(652,864,o),
(704,844,o),
(738,806,cs),
(776,764,o),
(790,716,o),
(790,638,cs),
(790,0,l)
);
},
{
closed = 1;
nodes = (
(1712,0,l),
(1712,658,ls),
(1712,796,o),
(1702,908,o),
(1608,1006,cs),
(1540,1078,o),
(1426,1106,o),
(1336,1106,cs),
(1194,1106,o),
(1064,1034,o),
(992,914,cs),
(942,830,o),
(948,746,o),
(948,654,c),
(1062,654,l),
(1062,708,o),
(1070,756,o),
(1112,804,cs),
(1146,842,o),
(1198,864,o),
(1250,864,cs),
(1302,864,o),
(1354,844,o),
(1388,806,cs),
(1426,764,o),
(1440,716,o),
(1440,638,cs),
(1440,0,l)
);
}
);
};
layerId = "0DA27741-1AFD-43F2-A947-40AFBF8D6498";
shapes = (
{
closed = 1;
nodes = (
(1712,0,l),
(1712,710,ls),
(1712,946,o),
(1584,1106,o),
(1338,1106,cs),
(1122,1106,o),
(948,952,o),
(948,730,c),
(1062,654,l),
(1062,778,o),
(1136,864,o),
(1250,864,cs),
(1368,864,o),
(1440,780,o),
(1440,638,cs),
(1440,0,l)
);
},
{
closed = 1;
nodes = (
(412,0,l),
(412,722,l),
(378,722,l),
(378,1080,l),
(138,1080,l),
(138,0,l)
);
},
{
closed = 1;
nodes = (
(1062,0,l),
(1062,710,ls),
(1062,926,o),
(948,1106,o),
(694,1106,cs),
(472,1106,o),
(298,946,o),
(298,734,c),
(412,654,l),
(412,778,o),
(486,864,o),
(600,864,cs),
(718,864,o),
(790,780,o),
(790,638,cs),
(790,0,l)
);
}
);
width = 1832;
},
{
associatedMasterId = "0DA27741-1AFD-43F2-A947-40AFBF8D6498";
layerId = "A2873047-0ED6-4C67-9B4D-3870B51BD5C6";
width = 1200;
},
{
associatedMasterId = "0DA27741-1AFD-43F2-A947-40AFBF8D6498";
layerId = "55314CA7-5524-4D70-B802-98D4FAE25636";
width = 1716;
},
{
associatedMasterId = "0DA27741-1AFD-43F2-A947-40AFBF8D6498";
layerId = "13A3DD5D-E91B-4961-8595-F8141D3FA442";
width = 1282;
}
);
metricLeft = n;
metricRight = n;
note = m;
unicode = 109;
},
{
glyphname = n;
kernLeft = m;
kernRight = m;
lastChange = "2020-02-20 18:21:12 +0000";
layers = (
{
layerId = "CAA188E2-8C62-414B-93AE-B576BEB044DB";
shapes = (
{
closed = 1;
nodes = (
(1026,0,l),
(1026,588,ls),
(1026,908,o),
(862,1104,o),
(588,1104,cs),
(350,1104,o),
(146,958,o),
(146,588,c),
(224,590,l),
(224,822,o),
(324,1022,o),
(588,1022,cs),
(812,1022,o),
(942,880,o),
(942,572,cs),
(942,0,l)
);
},
{
closed = 1;
nodes = (
(224,0,l),
(224,860,l),
(218,860,l),
(218,1080,l),
(140,1080,l),
(140,0,l)
);
}
);
width = 1146;
},
{
layerId = "0DA27741-1AFD-43F2-A947-40AFBF8D6498";
shapes = (
{
closed = 1;
nodes = (
(1152,0,l),
(1152,606,ls),
(1152,696,o),
(1152,1112,o),
(730,1112,cs),
(412,1112,o),
(258,878,o),
(258,622,c),
(414,548,l),
(414,816,o),
(550,856,o),
(644,856,cs),
(876,856,o),
(876,608,o),
(876,510,cs),
(876,0,l)
);
},
{
closed = 1;
nodes = (
(414,0,l),
(414,722,l),
(380,722,l),
(380,1080,l),
(138,1080,l),
(138,0,l)
);
}
);
width = 1272;
},
{
associatedMasterId = "0DA27741-1AFD-43F2-A947-40AFBF8D6498";
layerId = "A2873047-0ED6-4C67-9B4D-3870B51BD5C6";
width = 1200;
},
{
associatedMasterId = "0DA27741-1AFD-43F2-A947-40AFBF8D6498";
layerId = "55314CA7-5524-4D70-B802-98D4FAE25636";
width = 1128;
},
{
associatedMasterId = "0DA27741-1AFD-43F2-A947-40AFBF8D6498";
layerId = "13A3DD5D-E91B-4961-8595-F8141D3FA442";
width = 1188;
}
);
note = n;
unicode = 110;
},
{
glyphname = eng;
kernLeft = n;
kernRight = n;
lastChange = "2020-02-20 18:21:12 +0000";
layers = (
{
layerId = "CAA188E2-8C62-414B-93AE-B576BEB044DB";
shapes = (
{
closed = 1;
nodes = (
(982,-344,o),
(1026,-304,o),
(1026,-190,cs),
(1026,2,l),
(942,2,l),
(942,-110,ls),
(942,-252,o),
(922,-286,o),
(792,-266,c),
(792,-348,l),
(832,-358,o),
(866,-362,o),
(922,-356,cs)
);
},
{
ref = n;
}
);
width = 1146;
},
{
layerId = "0DA27741-1AFD-43F2-A947-40AFBF8D6498";
shapes = (
{
closed = 1;
nodes = (
(1074,-442,o),
(1152,-334,o),
(1152,-176,cs),
(1152,4,l),
(876,4,l),
(876,-132,ls),
(876,-294,o),
(754,-272,o),
(692,-268,c),
(692,-458,l),
(764,-476,o),
(844,-488,o),
(942,-468,cs)
);
},
{
ref = n;
}
);
width = 1272;
},
{
associatedMasterId = "0DA27741-1AFD-43F2-A947-40AFBF8D6498";
layerId = "A2873047-0ED6-4C67-9B4D-3870B51BD5C6";
width = 1200;
},
{
associatedMasterId = "0DA27741-1AFD-43F2-A947-40AFBF8D6498";
layerId = "55314CA7-5524-4D70-B802-98D4FAE25636";
width = 1128;
},
{
associatedMasterId = "0DA27741-1AFD-43F2-A947-40AFBF8D6498";
layerId = "13A3DD5D-E91B-4961-8595-F8141D3FA442";
width = 1188;
}
);
metricLeft = n;
metricRight = n;
unicode = 331;
},
{
glyphname = o;
kernLeft = o;
kernRight = o;
lastChange = "2020-02-20 18:21:12 +0000";
layers = (
{
layerId = "CAA188E2-8C62-414B-93AE-B576BEB044DB";
shapes = (
{
closed = 1;
nodes = (
(892,-30,o),
(1068,200,o),
(1068,542,cs),
(1068,876,o),
(896,1110,o),
(574,1110,cs),
(260,1110,o),
(80,882,o),
(80,542,cs),
(80,206,o),
(254,-30,o),
(574,-30,cs)
);
},
{
closed = 1;
nodes = (
(308,54,o),
(170,248,o),
(170,542,cs),
(170,826,o),
(300,1026,o),
(574,1026,cs),
(844,1026,o),
(978,836,o),
(978,542,cs),
(978,252,o),
(846,54,o),
(574,54,cs)
);
}
);
width = 1148;
},
{
layerId = "0DA27741-1AFD-43F2-A947-40AFBF8D6498";
shapes = (
{
closed = 1;
nodes = (
(950,-30,o),
(1174,204,o),
(1174,540,cs),
(1174,874,o),
(952,1110,o),
(626,1110,cs),
(306,1110,o),
(80,878,o),
(80,540,cs),
(80,206,o),
(300,-30,o),
(626,-30,cs)
);
},
{
closed = 1;
nodes = (
(456,224,o),
(368,346,o),
(368,540,cs),
(368,728,o),
(448,856,o),
(626,856,cs),
(798,856,o),
(886,732,o),
(886,540,cs),
(886,354,o),
(800,224,o),
(626,224,cs)
);
}
);
width = 1254;
},
{
associatedMasterId = "0DA27741-1AFD-43F2-A947-40AFBF8D6498";
layerId = "A2873047-0ED6-4C67-9B4D-3870B51BD5C6";
width = 1200;
},
{
associatedMasterId = "0DA27741-1AFD-43F2-A947-40AFBF8D6498";
layerId = "55314CA7-5524-4D70-B802-98D4FAE25636";
width = 1178;
},
{
associatedMasterId = "0DA27741-1AFD-43F2-A947-40AFBF8D6498";
layerId = "13A3DD5D-E91B-4961-8595-F8141D3FA442";
width = 1196;
}
);
note = o;
unicode = 111;
},
{
glyphname = oslash;
kernLeft = o;
kernRight = o;
lastChange = "2020-02-20 18:21:12 +0000";
layers = (
{
layerId = "CAA188E2-8C62-414B-93AE-B576BEB044DB";
shapes = (
{
closed = 1;
nodes = (
(250,158,l),
(272,180,l),
(934,842,l),
(956,864,l),
(1116,1022,l),
(1056,1080,l),
(920,946,l),
(894,920,l),
(218,246,l),
(196,224,l),
(32,60,l),
(92,0,l)
);
},
{
ref = o;
}
);
width = 1148;
},
{
layerId = "0DA27741-1AFD-43F2-A947-40AFBF8D6498";
shapes = (
{
closed = 1;
nodes = (
(406,140,l),
(456,228,l),
(958,730,l),
(1024,756,l),
(1198,928,l),
(1018,1110,l),
(852,944,l),
(832,882,l),
(320,372,l),
(238,332,l),
(56,150,l),
(236,-30,l)
);
},
{
ref = o;
}
);
width = 1254;
},
{
associatedMasterId = "0DA27741-1AFD-43F2-A947-40AFBF8D6498";
layerId = "A2873047-0ED6-4C67-9B4D-3870B51BD5C6";
width = 1200;
},
{
associatedMasterId = "0DA27741-1AFD-43F2-A947-40AFBF8D6498";
layerId = "55314CA7-5524-4D70-B802-98D4FAE25636";
width = 1176;
},
{
associatedMasterId = "0DA27741-1AFD-43F2-A947-40AFBF8D6498";
layerId = "13A3DD5D-E91B-4961-8595-F8141D3FA442";
width = 1196;
}
);
unicode = 248;
},
{
glyphname = p;
kernLeft = m;
kernRight = o;
lastChange = "2020-02-20 18:21:12 +0000";
layers = (
{
layerId = "CAA188E2-8C62-414B-93AE-B576BEB044DB";
shapes = (
{
closed = 1;
nodes = (
(908,-30,o),
(1072,218,o),
(1072,542,cs),
(1072,860,o),
(908,1110,o),
(618,1110,cs),
(316,1110,o),
(154,870,o),
(154,542,cs),
(154,220,o),
(316,-30,o),
(602,-30,cs)
);
},
{
closed = 1;
nodes = (
(224,-480,l),
(224,230,l),
(218,230,l),
(218,1080,l),
(140,1080,l),
(140,-480,l)
);
},
{
closed = 1;
nodes = (
(348,54,o),
(218,264,o),
(218,542,cs),
(218,824,o),
(350,1026,o),
(602,1026,cs),
(860,1026,o),
(982,818,o),
(982,542,cs),
(982,264,o),
(852,54,o),
(602,54,cs)
);
}
);
width = 1152;
},
{
layerId = "0DA27741-1AFD-43F2-A947-40AFBF8D6498";
shapes = (
{
closed = 1;
nodes = (
(968,-30,o),
(1168,216,o),
(1168,540,cs),
(1168,870,o),
(966,1110,o),
(656,1110,cs),
(348,1110,o),
(184,864,o),
(184,540,cs),
(184,216,o),
(348,-30,o),
(670,-30,cs)
);
},
{
closed = 1;
nodes = (
(412,-480,l),
(412,340,l),
(378,340,l),
(378,1080,l),
(138,1080,l),
(138,-480,l)
);
},
{
closed = 1;
nodes = (
(444,212,o),
(378,344,o),
(378,540,cs),
(378,736,o),
(446,868,o),
(616,868,cs),
(798,868,o),
(880,720,o),
(880,540,cs),
(880,358,o),
(802,212,o),
(626,212,cs)
);
}
);
width = 1248;
},
{
associatedMasterId = "0DA27741-1AFD-43F2-A947-40AFBF8D6498";
layerId = "A2873047-0ED6-4C67-9B4D-3870B51BD5C6";
width = 1200;
},
{
associatedMasterId = "0DA27741-1AFD-43F2-A947-40AFBF8D6498";
layerId = "55314CA7-5524-4D70-B802-98D4FAE25636";
width = 1146;
},
{
associatedMasterId = "0DA27741-1AFD-43F2-A947-40AFBF8D6498";
layerId = "13A3DD5D-E91B-4961-8595-F8141D3FA442";
width = 1192;
}
);
metricLeft = n;
metricRight = o;
note = p;
unicode = 112;
},
{
glyphname = thorn;
kernLeft = p;
kernRight = p;
lastChange = "2020-02-20 18:21:12 +0000";
layers = (
{
layerId = "CAA188E2-8C62-414B-93AE-B576BEB044DB";
shapes = (
{
closed = 1;
nodes = (
(224,782,l),
(224,1440,l),
(140,1440,l),
(140,782,l)
);
},
{
ref = p;
}
);
width = 1152;
},
{
layerId = "0DA27741-1AFD-43F2-A947-40AFBF8D6498";
shapes = (
{
closed = 1;
nodes = (
(414,864,l),
(414,1440,l),
(140,1440,l),
(140,864,l)
);
},
{
ref = p;
}
);
width = 1248;
},
{
associatedMasterId = "0DA27741-1AFD-43F2-A947-40AFBF8D6498";
layerId = "A2873047-0ED6-4C67-9B4D-3870B51BD5C6";
width = 1200;
},
{
associatedMasterId = "0DA27741-1AFD-43F2-A947-40AFBF8D6498";
layerId = "55314CA7-5524-4D70-B802-98D4FAE25636";
width = 1146;
},
{
associatedMasterId = "0DA27741-1AFD-43F2-A947-40AFBF8D6498";
layerId = "13A3DD5D-E91B-4961-8595-F8141D3FA442";
width = 1192;
}
);
metricLeft = p;
metricRight = p;
unicode = 254;
},
{
glyphname = q;
kernLeft = q;
kernRight = q;
lastChange = "2020-02-20 18:21:12 +0000";
layers = (
{
layerId = "CAA188E2-8C62-414B-93AE-B576BEB044DB";
shapes = (
{
closed = 1;
nodes = (
(836,-30,o),
(998,220,o),
(998,542,cs),
(998,870,o),
(836,1110,o),
(534,1110,cs),
(244,1110,o),
(80,860,o),
(80,542,cs),
(80,218,o),
(244,-30,o),
(550,-30,cs)
);
},
{
closed = 1;
nodes = (
(300,54,o),
(170,264,o),
(170,542,cs),
(170,818,o),
(292,1026,o),
(550,1026,cs),
(802,1026,o),
(934,824,o),
(934,542,cs),
(934,264,o),
(804,54,o),
(550,54,cs)
);
},
{
closed = 1;
nodes = (
(1012,-480,l),
(1012,1080,l),
(934,1080,l),
(934,230,l),
(928,230,l),
(928,-480,l)
);
}
);
width = 1152;
},
{
layerId = "0DA27741-1AFD-43F2-A947-40AFBF8D6498";
shapes = (
{
closed = 1;
nodes = (
(900,-30,o),
(1064,216,o),
(1064,540,cs),
(1064,864,o),
(900,1110,o),
(592,1110,cs),
(282,1110,o),
(80,870,o),
(80,540,cs),
(80,216,o),
(280,-30,o),
(578,-30,cs)
);
},
{
closed = 1;
nodes = (
(446,212,o),
(368,358,o),
(368,540,cs),
(368,720,o),
(450,868,o),
(632,868,cs),
(802,868,o),
(870,736,o),
(870,540,cs),
(870,344,o),
(804,212,o),
(622,212,cs)
);
},
{
closed = 1;
nodes = (
(1110,-480,l),
(1110,1080,l),
(870,1080,l),
(870,340,l),
(836,340,l),
(836,-480,l)
);
}
);
width = 1250;
},
{
associatedMasterId = "0DA27741-1AFD-43F2-A947-40AFBF8D6498";
layerId = "A2873047-0ED6-4C67-9B4D-3870B51BD5C6";
width = 1200;
},
{
associatedMasterId = "0DA27741-1AFD-43F2-A947-40AFBF8D6498";
layerId = "55314CA7-5524-4D70-B802-98D4FAE25636";
width = 1146;
},
{
associatedMasterId = "0DA27741-1AFD-43F2-A947-40AFBF8D6498";
layerId = "13A3DD5D-E91B-4961-8595-F8141D3FA442";
width = 1192;
}
);
metricRight = u;
note = q;
unicode = 113;
},
{
glyphname = r;
kernLeft = r;
kernRight = r;
lastChange = "2020-02-20 18:21:12 +0000";
layers = (
{
layerId = "CAA188E2-8C62-414B-93AE-B576BEB044DB";
shapes = (
{
closed = 1;
nodes = (
(224,0,l),
(224,532,ls),
(224,664,o),
(224,830,o),
(338,936,cs),
(424,1016,o),
(530,1020,o),
(620,1000,c),
(620,1080,l),
(526,1110,o),
(374,1086,o),
(286,1000,cs),
(252,968,o),
(214,914,o),
(192,856,c),
(218,822,l),
(218,1080,l),
(140,1080,l),
(140,0,l)
);
}
);
width = 670;
},
{
layerId = "0DA27741-1AFD-43F2-A947-40AFBF8D6498";
shapes = (
{
closed = 1;
nodes = (
(414,0,l),
(414,552,ls),
(414,676,o),
(466,764,o),
(562,808,cs),
(626,838,o),
(714,844,o),
(774,826,c),
(774,1080,l),
(676,1092,o),
(574,1076,o),
(496,1028,cs),
(428,988,o),
(382,924,o),
(354,850,c),
(380,816,l),
(380,1080,l),
(140,1080,l),
(140,0,l)
);
}
);
width = 824;
},
{
associatedMasterId = "0DA27741-1AFD-43F2-A947-40AFBF8D6498";
layerId = "A2873047-0ED6-4C67-9B4D-3870B51BD5C6";
width = 1200;
},
{
associatedMasterId = "0DA27741-1AFD-43F2-A947-40AFBF8D6498";
layerId = "55314CA7-5524-4D70-B802-98D4FAE25636";
width = 648;
},
{
associatedMasterId = "0DA27741-1AFD-43F2-A947-40AFBF8D6498";
layerId = "13A3DD5D-E91B-4961-8595-F8141D3FA442";
width = 1112;
}
);
note = r;
unicode = 114;
},
{
glyphname = s;
kernLeft = s;
kernRight = s;
lastChange = "2020-02-20 18:21:12 +0000";
layers = (
{
background = {
shapes = (
{
closed = 1;
nodes = (
(930,976,o),
(758,1110,o),
(508,1110,cs),
(306,1110,o),
(112,1012,o),
(112,820,cs),
(112,660,o),
(248,598,o),
(404,554,cs),
(488,530,o),
(552,512,o),
(602,498,cs),
(742,460,o),
(856,426,o),
(856,284,cs),
(856,138,o),
(716,56,o),
(544,56,cs),
(378,56,o),
(208,116,o),
(166,276,c),
(80,260,l),
(124,56,o),
(322,-28,o),
(536,-28,cs),
(776,-28,o),
(946,78,o),
(946,292,cs),
(946,460,o),
(812,532,o),
(636,578,cs),
(530,606,o),
(456,624,o),
(404,640,cs),
(272,676,o),
(200,732,o),
(200,820,cs),
(200,942,o),
(326,1030,o),
(506,1026,cs),
(672,1022,o),
(830,964,o),
(862,782,c),
(948,798,l)
);
}
);
};
layerId = "CAA188E2-8C62-414B-93AE-B576BEB044DB";
shapes = (
{
closed = 1;
nodes = (
(790,-28,o),
(946,90,o),
(946,286,cs),
(946,452,o),
(854,524,o),
(530,606,cs),
(274,670,o),
(200,720,o),
(200,822,cs),
(200,944,o),
(326,1028,o),
(506,1026,cs),
(698,1026,o),
(836,932,o),
(862,782,c),
(948,798,l),
(930,982,o),
(750,1110,o),
(512,1110,cs),
(276,1110,o),
(112,990,o),
(112,818,cs),
(112,674,o),
(198,610,o),
(506,526,cs),
(800,446,o),
(856,408,o),
(856,290,cs),
(856,146,o),
(732,56,o),
(536,56,cs),
(344,56,o),
(202,142,o),
(166,276,c),
(80,260,l),
(118,80,o),
(290,-28,o),
(534,-28,cs)
);
}
);
width = 1028;
},
{
background = {
shapes = (
{
closed = 1;
nodes = (
(974,1004,o),
(776,1110,o),
(544,1110,cs),
(320,1110,o),
(116,1000,o),
(116,780,cs),
(116,628,o),
(204,528,o),
(346,488,cs),
(422,466,o),
(512,442,o),
(614,414,cs),
(692,392,o),
(736,364,o),
(736,308,cs),
(736,238,o),
(668,204,o),
(582,204,cs),
(466,204,o),
(380,260,o),
(358,366,c),
(80,324,l),
(122,78,o),
(304,-30,o),
(576,-30,cs),
(822,-30,o),
(1014,96,o),
(1014,320,cs),
(1014,504,o),
(904,588,o),
(674,646,cs),
(596,666,o),
(544,680,o),
(490,696,cs),
(424,716,o),
(386,740,o),
(386,794,cs),
(386,848,o),
(460,880,o),
(552,876,cs),
(650,872,o),
(716,816,o),
(726,740,c),
(1004,790,l)
);
}
);
};
layerId = "0DA27741-1AFD-43F2-A947-40AFBF8D6498";
shapes = (
{
closed = 1;
nodes = (
(844,-30,o),
(1014,104,o),
(1014,326,cs),
(1014,494,o),
(920,582,o),
(674,646,cs),
(422,710,o),
(386,728,o),
(386,784,cs),
(386,846,o),
(452,882,o),
(552,876,cs),
(654,868,o),
(716,820,o),
(726,740,c),
(1004,790,l),
(976,986,o),
(800,1110,o),
(546,1110,cs),
(284,1110,o),
(116,978,o),
(116,770,cs),
(116,604,o),
(212,520,o),
(476,452,cs),
(710,390,o),
(736,376,o),
(736,312,cs),
(736,244,o),
(680,204,o),
(582,204,cs),
(462,204,o),
(380,264,o),
(358,366,c),
(80,324,l),
(116,98,o),
(290,-30,o),
(562,-30,cs)
);
}
);
width = 1094;
},
{
associatedMasterId = "0DA27741-1AFD-43F2-A947-40AFBF8D6498";
layerId = "A2873047-0ED6-4C67-9B4D-3870B51BD5C6";
width = 1200;
},
{
associatedMasterId = "0DA27741-1AFD-43F2-A947-40AFBF8D6498";
layerId = "55314CA7-5524-4D70-B802-98D4FAE25636";
width = 1032;
},
{
associatedMasterId = "0DA27741-1AFD-43F2-A947-40AFBF8D6498";
layerId = "13A3DD5D-E91B-4961-8595-F8141D3FA442";
width = 1174;
}
);
note = s;
unicode = 115;
},
{
glyphname = germandbls;
kernLeft = b;
kernRight = b;
lastChange = "2020-02-20 18:21:12 +0000";
layers = (
{
layerId = "CAA188E2-8C62-414B-93AE-B576BEB044DB";
shapes = (
{
closed = 1;
nodes = (
(874,-28,o),
(1030,144,o),
(1030,402,cs),
(1030,654,o),
(810,778,o),
(690,784,c),
(824,818,o),
(898,944,o),
(898,1098,cs),
(898,1342,o),
(748,1470,o),
(520,1470,cs),
(340,1470,o),
(226,1394,o),
(170,1256,cs),
(150,1206,o),
(140,1138,o),
(140,1064,cs),
(140,0,l),
(232,0,l),
(232,1042,ls),
(232,1100,o),
(236,1160,o),
(252,1212,cs),
(288,1330,o),
(398,1386,o),
(522,1386,cs),
(700,1386,o),
(808,1280,o),
(808,1100,cs),
(808,914,o),
(666,830,o),
(520,812,c),
(520,728,l),
(772,722,o),
(940,596,o),
(940,402,cs),
(940,184,o),
(794,58,o),
(582,58,cs),
(514,58,o),
(464,62,o),
(400,84,c),
(400,0,l),
(458,-24,o),
(522,-28,o),
(582,-28,cs)
);
}
);
width = 1150;
},
{
layerId = "0DA27741-1AFD-43F2-A947-40AFBF8D6498";
shapes = (
{
closed = 1;
nodes = (
(1008,-30,o),
(1172,142,o),
(1172,428,cs),
(1172,596,o),
(1094,740,o),
(954,798,c),
(1026,866,o),
(1058,956,o),
(1058,1058,cs),
(1058,1292,o),
(852,1470,o),
(596,1470,cs),
(402,1470,o),
(216,1390,o),
(154,1188,cs),
(142,1148,o),
(138,1110,o),
(138,1060,cs),
(138,0,l),
(412,0,l),
(412,986,ls),
(412,1044,o),
(420,1100,o),
(438,1132,cs),
(474,1196,o),
(532,1216,o),
(596,1216,cs),
(692,1216,o),
(784,1156,o),
(784,1052,cs),
(784,950,o),
(720,888,o),
(598,880,c),
(598,644,l),
(776,644,o),
(900,584,o),
(900,432,cs),
(900,298,o),
(810,236,o),
(670,236,cs),
(608,236,o),
(558,252,o),
(524,266,c),
(524,0,l),
(570,-20,o),
(622,-30,o),
(710,-30,cs)
);
}
);
width = 1292;
},
{
associatedMasterId = "0DA27741-1AFD-43F2-A947-40AFBF8D6498";
layerId = "A2873047-0ED6-4C67-9B4D-3870B51BD5C6";
width = 1200;
},
{
associatedMasterId = "0DA27741-1AFD-43F2-A947-40AFBF8D6498";
layerId = "55314CA7-5524-4D70-B802-98D4FAE25636";
width = 1256;
},
{
associatedMasterId = "0DA27741-1AFD-43F2-A947-40AFBF8D6498";
layerId = "13A3DD5D-E91B-4961-8595-F8141D3FA442";
width = 1208;
}
);
metricLeft = b;
metricRight = n;
unicode = 223;
},
{
glyphname = t;
kernLeft = t;
kernRight = t;
lastChange = "2020-03-06 05:46:35 +0000";
layers = (
{
layerId = "CAA188E2-8C62-414B-93AE-B576BEB044DB";
shapes = (
{
closed = 1;
nodes = (
(698,80,l),
(530,52,o),
(428,68,o),
(380,164,cs),
(354,214,o),
(358,264,o),
(358,358,cs),
(358,1380,l),
(274,1380,l),
(274,358,ls),
(274,264,o),
(272,196,o),
(304,126,cs),
(366,-10,o),
(536,-36,o),
(698,0,c)
);
},
{
closed = 1;
nodes = (
(698,996,l),
(698,1080,l),
(20,1080,l),
(20,996,l)
);
}
);
width = 758;
},
{
layerId = "0DA27741-1AFD-43F2-A947-40AFBF8D6498";
shapes = (
{
closed = 1;
nodes = (
(788,226,l),
(660,208,o),
(546,204,o),
(498,280,cs),
(472,320,o),
(476,390,o),
(476,474,cs),
(476,1380,l),
(204,1380,l),
(204,458,ls),
(204,328,o),
(194,232,o),
(248,134,cs),
(336,-24,o),
(564,-42,o),
(788,0,c)
);
},
{
closed = 1;
nodes = (
(788,870,l),
(788,1080,l),
(20,1080,l),
(20,870,l)
);
}
);
width = 888;
},
{
associatedMasterId = "0DA27741-1AFD-43F2-A947-40AFBF8D6498";
layerId = "A2873047-0ED6-4C67-9B4D-3870B51BD5C6";
width = 1200;
},
{
associatedMasterId = "0DA27741-1AFD-43F2-A947-40AFBF8D6498";
layerId = "55314CA7-5524-4D70-B802-98D4FAE25636";
width = 632;
},
{
associatedMasterId = "0DA27741-1AFD-43F2-A947-40AFBF8D6498";
layerId = "13A3DD5D-E91B-4961-8595-F8141D3FA442";
width = 1110;
}
);
note = t;
unicode = 116;
},
{
glyphname = tbar;
kernLeft = t;
kernRight = t;
lastChange = "2020-02-20 18:21:12 +0000";
layers = (
{
layerId = "CAA188E2-8C62-414B-93AE-B576BEB044DB";
shapes = (
{
closed = 1;
nodes = (
(698,498,l),
(698,582,l),
(20,582,l),
(20,498,l)
);
},
{
ref = t;
}
);
width = 798;
},
{
layerId = "0DA27741-1AFD-43F2-A947-40AFBF8D6498";
shapes = (
{
closed = 1;
nodes = (
(828,456,l),
(828,666,l),
(20,666,l),
(20,456,l)
);
},
{
ref = t;
}
);
width = 928;
},
{
associatedMasterId = "0DA27741-1AFD-43F2-A947-40AFBF8D6498";
layerId = "A2873047-0ED6-4C67-9B4D-3870B51BD5C6";
width = 1200;
},
{
associatedMasterId = "0DA27741-1AFD-43F2-A947-40AFBF8D6498";
layerId = "55314CA7-5524-4D70-B802-98D4FAE25636";
width = 632;
},
{
associatedMasterId = "0DA27741-1AFD-43F2-A947-40AFBF8D6498";
layerId = "13A3DD5D-E91B-4961-8595-F8141D3FA442";
width = 1110;
}
);
metricLeft = t;
unicode = 359;
},
{
glyphname = u;
kernLeft = u;
kernRight = u;
lastChange = "2020-02-20 18:21:12 +0000";
layers = (
{
layerId = "CAA188E2-8C62-414B-93AE-B576BEB044DB";
shapes = (
{
closed = 1;
nodes = (
(796,-24,o),
(1000,122,o),
(1000,492,c),
(922,490,l),
(922,258,o),
(822,58,o),
(558,58,cs),
(334,58,o),
(204,200,o),
(204,508,cs),
(204,1080,l),
(120,1080,l),
(120,492,ls),
(120,172,o),
(284,-24,o),
(558,-24,cs)
);
},
{
closed = 1;
nodes = (
(1006,0,l),
(1006,1080,l),
(922,1080,l),
(922,220,l),
(928,220,l),
(928,0,l)
);
}
);
width = 1146;
},
{
layerId = "0DA27741-1AFD-43F2-A947-40AFBF8D6498";
shapes = (
{
closed = 1;
nodes = (
(860,-32,o),
(1014,202,o),
(1014,458,c),
(858,532,l),
(858,264,o),
(722,224,o),
(628,224,cs),
(396,224,o),
(396,472,o),
(396,570,cs),
(396,1080,l),
(120,1080,l),
(120,474,ls),
(120,384,o),
(120,-32,o),
(542,-32,cs)
);
},
{
closed = 1;
nodes = (
(1132,0,l),
(1132,1080,l),
(858,1080,l),
(858,358,l),
(892,358,l),
(892,0,l)
);
}
);
width = 1272;
},
{
associatedMasterId = "0DA27741-1AFD-43F2-A947-40AFBF8D6498";
layerId = "A2873047-0ED6-4C67-9B4D-3870B51BD5C6";
width = 1200;
},
{
associatedMasterId = "0DA27741-1AFD-43F2-A947-40AFBF8D6498";
layerId = "55314CA7-5524-4D70-B802-98D4FAE25636";
width = 1128;
},
{
associatedMasterId = "0DA27741-1AFD-43F2-A947-40AFBF8D6498";
layerId = "13A3DD5D-E91B-4961-8595-F8141D3FA442";
width = 1188;
}
);
note = u;
unicode = 117;
},
{
glyphname = v;
kernLeft = v;
kernRight = v;
lastChange = "2020-02-20 18:21:12 +0000";
layers = (
{
layerId = "CAA188E2-8C62-414B-93AE-B576BEB044DB";
shapes = (
{
closed = 1;
nodes = (
(524,0,l),
(916,1080,l),
(826,1080,l),
(478,122,l),
(128,1080,l),
(40,1080,l),
(432,0,l)
);
}
);
width = 956;
},
{
layerId = "0DA27741-1AFD-43F2-A947-40AFBF8D6498";
shapes = (
{
closed = 1;
nodes = (
(704,0,l),
(1096,1080,l),
(824,1080,l),
(568,332,l),
(312,1080,l),
(40,1080,l),
(432,0,l)
);
}
);
width = 1136;
},
{
associatedMasterId = "0DA27741-1AFD-43F2-A947-40AFBF8D6498";
layerId = "A2873047-0ED6-4C67-9B4D-3870B51BD5C6";
width = 1200;
},
{
associatedMasterId = "0DA27741-1AFD-43F2-A947-40AFBF8D6498";
layerId = "55314CA7-5524-4D70-B802-98D4FAE25636";
width = 952;
},
{
associatedMasterId = "0DA27741-1AFD-43F2-A947-40AFBF8D6498";
layerId = "13A3DD5D-E91B-4961-8595-F8141D3FA442";
width = 1160;
}
);
unicode = 118;
},
{
glyphname = w;
kernLeft = v;
kernRight = v;
lastChange = "2020-03-10 05:44:50 +0000";
layers = (
{
layerId = "CAA188E2-8C62-414B-93AE-B576BEB044DB";
shapes = (
{
closed = 1;
nodes = (
(458,0,l),
(744,938,l),
(1030,0,l),
(1118,0,l),
(1448,1080,l),
(1362,1080,l),
(1074,144,l),
(788,1080,l),
(700,1080,l),
(414,144,l),
(128,1080,l),
(40,1080,l),
(370,0,l)
);
}
);
width = 1488;
},
{
layerId = "0DA27741-1AFD-43F2-A947-40AFBF8D6498";
shapes = (
{
closed = 1;
nodes = (
(578,0,l),
(814,704,l),
(1050,0,l),
(1258,0,l),
(1588,1080,l),
(1322,1080,l),
(1126,436,l),
(927,1080,l),
(701,1080,l),
(502,436,l),
(306,1080,l),
(40,1082,l),
(370,0,l)
);
}
);
width = 1628;
},
{
associatedMasterId = "0DA27741-1AFD-43F2-A947-40AFBF8D6498";
layerId = "A2873047-0ED6-4C67-9B4D-3870B51BD5C6";
width = 1200;
},
{
associatedMasterId = "0DA27741-1AFD-43F2-A947-40AFBF8D6498";
layerId = "55314CA7-5524-4D70-B802-98D4FAE25636";
width = 1618;
},
{
associatedMasterId = "0DA27741-1AFD-43F2-A947-40AFBF8D6498";
layerId = "13A3DD5D-E91B-4961-8595-F8141D3FA442";
width = 1266;
}
);
note = w;
unicode = 119;
},
{
glyphname = x;
kernLeft = x;
kernRight = x;
lastChange = "2020-02-20 18:21:12 +0000";
layers = (
{
layerId = "CAA188E2-8C62-414B-93AE-B576BEB044DB";
shapes = (
{
closed = 1;
nodes = (
(126,0,l),
(510,484,l),
(892,0,l),
(998,0,l),
(558,546,l),
(988,1080,l),
(884,1080,l),
(510,608,l),
(134,1080,l),
(30,1080,l),
(460,546,l),
(20,0,l)
);
}
);
width = 1018;
},
{
layerId = "0DA27741-1AFD-43F2-A947-40AFBF8D6498";
shapes = (
{
closed = 1;
nodes = (
(340,0,l),
(564,332,l),
(786,0,l),
(1106,0,l),
(718,546,l),
(1096,1080,l),
(776,1080,l),
(564,760,l),
(348,1080,l),
(28,1080,l),
(406,546,l),
(20,0,l)
);
}
);
width = 1126;
},
{
associatedMasterId = "0DA27741-1AFD-43F2-A947-40AFBF8D6498";
layerId = "A2873047-0ED6-4C67-9B4D-3870B51BD5C6";
width = 1200;
},
{
associatedMasterId = "0DA27741-1AFD-43F2-A947-40AFBF8D6498";
layerId = "55314CA7-5524-4D70-B802-98D4FAE25636";
width = 968;
},
{
associatedMasterId = "0DA27741-1AFD-43F2-A947-40AFBF8D6498";
layerId = "13A3DD5D-E91B-4961-8595-F8141D3FA442";
width = 1162;
}
);
note = x;
unicode = 120;
},
{
glyphname = y;
kernLeft = y;
kernRight = y;
lastChange = "2020-02-20 18:21:12 +0000";
layers = (
{
layerId = "CAA188E2-8C62-414B-93AE-B576BEB044DB";
shapes = (
{
closed = 1;
nodes = (
(396,-480,l),
(962,1080,l),
(872,1080,l),
(492,32,l),
(556,32,l),
(132,1080,l),
(40,1080,l),
(514,-84,l),
(512,84,l),
(302,-480,l)
);
}
);
width = 1012;
},
{
layerId = "0DA27741-1AFD-43F2-A947-40AFBF8D6498";
shapes = (
{
closed = 1;
nodes = (
(530,-480,l),
(1140,1080,l),
(868,1080,l),
(554,262,l),
(618,262,l),
(302,1080,l),
(20,1080,l),
(490,-76,l),
(486,92,l),
(278,-480,l)
);
}
);
width = 1140;
},
{
associatedMasterId = "0DA27741-1AFD-43F2-A947-40AFBF8D6498";
layerId = "A2873047-0ED6-4C67-9B4D-3870B51BD5C6";
width = 1200;
},
{
associatedMasterId = "0DA27741-1AFD-43F2-A947-40AFBF8D6498";
layerId = "55314CA7-5524-4D70-B802-98D4FAE25636";
width = 912;
},
{
associatedMasterId = "0DA27741-1AFD-43F2-A947-40AFBF8D6498";
layerId = "13A3DD5D-E91B-4961-8595-F8141D3FA442";
width = 1154;
},
{
associatedMasterId = "0DA27741-1AFD-43F2-A947-40AFBF8D6498";
layerId = "0945A77F-B33F-4B17-8B55-225B30755A13";
name = "Dec 28 18, 16:43";
shapes = (
{
closed = 1;
nodes = (
(606,314,l),
(338,1080,l),
(66,1080,l),
(480,-30,l),
(286,-480,l),
(558,-480,l),
(1152,1080,l),
(880,1080,l)
);
},
{
pos = (26,0);
ref = y2.alt;
}
);
width = 1172;
}
);
note = y;
unicode = 121;
},
{
glyphname = z;
kernLeft = z;
kernRight = z;
lastChange = "2020-02-20 18:21:12 +0000";
layers = (
{
layerId = "CAA188E2-8C62-414B-93AE-B576BEB044DB";
shapes = (
{
closed = 1;
nodes = (
(926,0,l),
(926,88,l),
(194,88,l),
(974,1046,l),
(974,1080,l),
(88,1080,l),
(88,992,l),
(820,992,l),
(40,30,l),
(40,0,l)
);
}
);
width = 1054;
},
{
layerId = "0DA27741-1AFD-43F2-A947-40AFBF8D6498";
shapes = (
{
closed = 1;
nodes = (
(970,0,l),
(970,236,l),
(462,236,l),
(990,1046,l),
(990,1080,l),
(100,1080,l),
(100,844,l),
(570,844,l),
(40,34,l),
(40,0,l)
);
}
);
width = 1070;
},
{
associatedMasterId = "0DA27741-1AFD-43F2-A947-40AFBF8D6498";
layerId = "A2873047-0ED6-4C67-9B4D-3870B51BD5C6";
width = 1200;
},
{
associatedMasterId = "0DA27741-1AFD-43F2-A947-40AFBF8D6498";
layerId = "55314CA7-5524-4D70-B802-98D4FAE25636";
width = 1070;
},
{
associatedMasterId = "0DA27741-1AFD-43F2-A947-40AFBF8D6498";
layerId = "13A3DD5D-E91B-4961-8595-F8141D3FA442";
width = 1180;
}
);
note = z;
unicode = 122;
},
{
glyphname = fl;
kernLeft = f;
kernRight = l;
lastChange = "2020-02-20 18:21:12 +0000";
layers = (
{
layerId = "CAA188E2-8C62-414B-93AE-B576BEB044DB";
shapes = (
{
closed = 1;
nodes = (
(938,996,l),
(938,1080,l),
(618,1080,l),
(618,996,l)
);
},
{
ref = f;
},
{
pos = (758,0);
ref = l;
}
);
width = 1162;
},
{
layerId = "0DA27741-1AFD-43F2-A947-40AFBF8D6498";
shapes = (
{
closed = 1;
nodes = (
(1000,870,l),
(1000,1080,l),
(740,1080,l),
(740,870,l)
);
},
{
ref = f;
},
{
pos = (830,0);
ref = l;
}
);
width = 1422;
},
{
associatedMasterId = "0DA27741-1AFD-43F2-A947-40AFBF8D6498";
layerId = "A2873047-0ED6-4C67-9B4D-3870B51BD5C6";
width = 1200;
},
{
associatedMasterId = "0DA27741-1AFD-43F2-A947-40AFBF8D6498";
layerId = "55314CA7-5524-4D70-B802-98D4FAE25636";
width = 1320;
},
{
associatedMasterId = "0DA27741-1AFD-43F2-A947-40AFBF8D6498";
layerId = "13A3DD5D-E91B-4961-8595-F8141D3FA442";
width = 1220;
}
);
metricLeft = f;
metricRight = l;
unicode = 64258;
},
{
glyphname = "Be-cy";
kernLeft = N;
kernRight = P;
lastChange = "2020-02-20 18:21:12 +0000";
layers = (
{
layerId = "CAA188E2-8C62-414B-93AE-B576BEB044DB";
shapes = (
{
closed = 1;
nodes = (
(670,0,ls),
(698,0,o),
(726,2,o),
(762,8,cs),
(970,40,o),
(1102,216,o),
(1102,432,cs),
(1102,648,o),
(970,824,o),
(762,856,cs),
(726,862,o),
(698,864,o),
(670,864,cs),
(224,864,l),
(224,1356,l),
(980,1356,l),
(980,1440,l),
(140,1440,l),
(140,0,l)
);
},
{
closed = 1;
nodes = (
(224,780,l),
(670,780,ls),
(692,780,o),
(726,778,o),
(758,772,cs),
(924,740,o),
(1012,594,o),
(1012,432,cs),
(1012,270,o),
(924,124,o),
(758,92,cs),
(726,86,o),
(692,84,o),
(670,84,cs),
(224,84,l)
);
}
);
width = 1162;
},
{
layerId = "0DA27741-1AFD-43F2-A947-40AFBF8D6498";
shapes = (
{
closed = 1;
nodes = (
(748,0,ls),
(776,0,o),
(830,2,o),
(868,6,cs),
(1118,32,o),
(1240,226,o),
(1240,456,cs),
(1240,686,o),
(1116,880,o),
(868,906,cs),
(830,910,o),
(774,912,o),
(748,912,cs),
(412,912,l),
(412,1186,l),
(1128,1186,l),
(1128,1440,l),
(140,1440,l),
(140,0,l)
);
},
{
closed = 1;
nodes = (
(412,658,l),
(736,658,ls),
(764,658,o),
(800,656,o),
(828,650,cs),
(938,626,o),
(966,534,o),
(966,456,cs),
(966,378,o),
(938,286,o),
(828,262,cs),
(800,256,o),
(764,254,o),
(736,254,cs),
(412,254,l)
);
}
);
width = 1300;
},
{
associatedMasterId = "0DA27741-1AFD-43F2-A947-40AFBF8D6498";
layerId = "A2873047-0ED6-4C67-9B4D-3870B51BD5C6";
width = 1200;
},
{
associatedMasterId = "0DA27741-1AFD-43F2-A947-40AFBF8D6498";
layerId = "55314CA7-5524-4D70-B802-98D4FAE25636";
width = 1200;
},
{
associatedMasterId = "0DA27741-1AFD-43F2-A947-40AFBF8D6498";
layerId = "13A3DD5D-E91B-4961-8595-F8141D3FA442";
width = 1200;
}
);
metricLeft = B;
metricRight = P;
unicode = 1041;
},
{
glyphname = "Ge-cy";
kernLeft = B;
kernRight = T;
lastChange = "2020-02-20 18:21:12 +0000";
layers = (
{
layerId = "CAA188E2-8C62-414B-93AE-B576BEB044DB";
shapes = (
{
closed = 1;
nodes = (
(224,0,l),
(224,1356,l),
(1020,1356,l),
(1020,1440,l),
(140,1440,l),
(140,0,l)
);
}
);
width = 1040;
},
{
layerId = "0DA27741-1AFD-43F2-A947-40AFBF8D6498";
shapes = (
{
closed = 1;
nodes = (
(412,0,l),
(412,1186,l),
(1080,1186,l),
(1080,1440,l),
(140,1440,l),
(140,0,l)
);
}
);
width = 1100;
},
{
associatedMasterId = "0DA27741-1AFD-43F2-A947-40AFBF8D6498";
layerId = "A2873047-0ED6-4C67-9B4D-3870B51BD5C6";
width = 1200;
},
{
associatedMasterId = "0DA27741-1AFD-43F2-A947-40AFBF8D6498";
layerId = "55314CA7-5524-4D70-B802-98D4FAE25636";
width = 976;
},
{
associatedMasterId = "0DA27741-1AFD-43F2-A947-40AFBF8D6498";
layerId = "13A3DD5D-E91B-4961-8595-F8141D3FA442";
width = 1164;
}
);
metricLeft = B;
metricRight = T;
unicode = 1043;
},
{
glyphname = "Gheupturn-cy";
kernLeft = B;
kernRight = T;
lastChange = "2020-02-20 18:21:12 +0000";
layers = (
{
layerId = "CAA188E2-8C62-414B-93AE-B576BEB044DB";
shapes = (
{
closed = 1;
nodes = (
(224,0,l),
(224,1356,l),
(1040,1356,l),
(1040,1600,l),
(956,1600,l),
(956,1440,l),
(140,1440,l),
(140,0,l)
);
}
);
width = 1060;
},
{
layerId = "0DA27741-1AFD-43F2-A947-40AFBF8D6498";
shapes = (
{
closed = 1;
nodes = (
(412,0,l),
(412,1186,l),
(1100,1186,l),
(1100,1680,l),
(828,1680,l),
(828,1440,l),
(140,1440,l),
(140,0,l)
);
}
);
width = 1120;
},
{
associatedMasterId = "0DA27741-1AFD-43F2-A947-40AFBF8D6498";
layerId = "A2873047-0ED6-4C67-9B4D-3870B51BD5C6";
width = 1200;
},
{
associatedMasterId = "0DA27741-1AFD-43F2-A947-40AFBF8D6498";
layerId = "55314CA7-5524-4D70-B802-98D4FAE25636";
width = 976;
},
{
associatedMasterId = "0DA27741-1AFD-43F2-A947-40AFBF8D6498";
layerId = "13A3DD5D-E91B-4961-8595-F8141D3FA442";
width = 1164;
}
);
unicode = 1168;
},
{
glyphname = "De-cy";
kernLeft = A;
kernRight = N;
lastChange = "2020-02-20 18:21:12 +0000";
layers = (
{
layerId = "CAA188E2-8C62-414B-93AE-B576BEB044DB";
shapes = (
{
closed = 1;
nodes = (
(164,-240,l),
(164,0,l),
(1292,0,l),
(1292,-240,l),
(1376,-240,l),
(1376,84,l),
(1276,84,l),
(1276,1440,l),
(422,1440,l),
(406,1112,o),
(400,886,o),
(368,608,cs),
(340,368,o),
(328,84,o),
(80,84,c),
(80,-240,l)
);
},
{
closed = 1;
nodes = (
(396,156,o),
(428,324,o),
(452,564,cs),
(480,836,o),
(492,1090,o),
(504,1356,c),
(1192,1356,l),
(1192,84,l),
(298,84,l)
);
}
);
width = 1456;
},
{
layerId = "0DA27741-1AFD-43F2-A947-40AFBF8D6498";
shapes = (
{
closed = 1;
nodes = (
(332,-240,l),
(332,0,l),
(1162,0,l),
(1162,-240,l),
(1434,-240,l),
(1434,254,l),
(1324,254,l),
(1324,1440,l),
(368,1442,l),
(348,1150,o),
(336,932,o),
(316,692,cs),
(294,440,o),
(234,254,o),
(60,254,c),
(60,-240,l)
);
},
{
closed = 1;
nodes = (
(548,362,o),
(558,438,o),
(578,648,cs),
(598,858,o),
(602,990,o),
(616,1188,c),
(1052,1186,l),
(1052,254,l),
(466,254,l)
);
}
);
width = 1514;
},
{
associatedMasterId = "0DA27741-1AFD-43F2-A947-40AFBF8D6498";
layerId = "A2873047-0ED6-4C67-9B4D-3870B51BD5C6";
width = 1200;
},
{
associatedMasterId = "0DA27741-1AFD-43F2-A947-40AFBF8D6498";
layerId = "55314CA7-5524-4D70-B802-98D4FAE25636";
width = 1542;
},
{
associatedMasterId = "0DA27741-1AFD-43F2-A947-40AFBF8D6498";
layerId = "13A3DD5D-E91B-4961-8595-F8141D3FA442";
width = 1254;
}
);
unicode = 1044;
},
{
glyphname = "Zhe-cy";
kernLeft = X;
kernRight = K;
lastChange = "2020-02-20 18:21:12 +0000";
layers = (
{
layerId = "CAA188E2-8C62-414B-93AE-B576BEB044DB";
shapes = (
{
closed = 1;
nodes = (
(136,0,l),
(832,752,l),
(832,0,l),
(916,0,l),
(916,752,l),
(1612,0,l),
(1728,0,l),
(1026,752,l),
(1664,1440,l),
(1548,1440,l),
(916,752,l),
(916,1440,l),
(832,1440,l),
(832,752,l),
(200,1440,l),
(84,1440,l),
(722,752,l),
(20,0,l)
);
}
);
width = 1748;
},
{
layerId = "0DA27741-1AFD-43F2-A947-40AFBF8D6498";
shapes = (
{
closed = 1;
nodes = (
(354,0,l),
(788,636,l),
(788,0,l),
(1060,0,l),
(1060,636,l),
(1494,0,l),
(1828,0,l),
(1318,730,l),
(1790,1440,l),
(1468,1440,l),
(1060,796,l),
(1060,1440,l),
(788,1440,l),
(788,796,l),
(380,1440,l),
(58,1440,l),
(530,730,l),
(20,0,l)
);
}
);
width = 1848;
},
{
associatedMasterId = "0DA27741-1AFD-43F2-A947-40AFBF8D6498";
layerId = "A2873047-0ED6-4C67-9B4D-3870B51BD5C6";
width = 1200;
},
{
associatedMasterId = "0DA27741-1AFD-43F2-A947-40AFBF8D6498";
layerId = "55314CA7-5524-4D70-B802-98D4FAE25636";
width = 1936;
},
{
associatedMasterId = "0DA27741-1AFD-43F2-A947-40AFBF8D6498";
layerId = "13A3DD5D-E91B-4961-8595-F8141D3FA442";
width = 1318;
}
);
metricLeft = X;
metricRight = X;
unicode = 1046;
},
{
glyphname = "Ze-cy";
kernLeft = O;
kernRight = B;
lastChange = "2020-02-20 18:21:12 +0000";
layers = (
{
layerId = "CAA188E2-8C62-414B-93AE-B576BEB044DB";
shapes = (
{
closed = 1;
nodes = (
(882,-30,o),
(1062,138,o),
(1062,392,cs),
(1062,582,o),
(962,698,o),
(804,738,c),
(924,788,o),
(1016,912,o),
(1016,1084,cs),
(1016,1336,o),
(816,1470,o),
(578,1470,cs),
(342,1470,o),
(176,1340,o),
(90,1148,c),
(178,1114,l),
(264,1286,o),
(382,1386,o),
(576,1386,cs),
(780,1386,o),
(926,1276,o),
(926,1084,cs),
(926,910,o),
(804,792,o),
(588,782,cs),
(544,780,o),
(432,780,o),
(422,780,c),
(422,696,l),
(440,696,o),
(440,696,o),
(588,690,cs),
(808,682,o),
(972,620,o),
(972,396,cs),
(972,180,o),
(818,54,o),
(570,54,cs),
(342,54,o),
(194,162,o),
(146,316,c),
(60,280,l),
(118,110,o),
(280,-30,o),
(568,-30,cs)
);
}
);
width = 1122;
},
{
layerId = "0DA27741-1AFD-43F2-A947-40AFBF8D6498";
shapes = (
{
closed = 1;
nodes = (
(990,-30,o),
(1254,146,o),
(1254,432,cs),
(1254,584,o),
(1186,684,o),
(1066,738,c),
(1148,812,o),
(1194,928,o),
(1194,1052,cs),
(1194,1344,o),
(938,1470,o),
(684,1470,cs),
(474,1470,o),
(300,1384,o),
(200,1280,c),
(386,1080,l),
(434,1148,o),
(544,1216,o),
(676,1216,cs),
(816,1216,o),
(906,1148,o),
(906,1042,cs),
(906,926,o),
(800,874,o),
(660,868,cs),
(626,866,o),
(552,866,o),
(526,866,c),
(526,610,l),
(544,610,o),
(548,610,o),
(686,606,cs),
(828,602,o),
(966,570,o),
(966,432,cs),
(966,328,o),
(886,226,o),
(678,226,cs),
(458,226,o),
(358,338,o),
(310,438,c),
(80,278,l),
(168,124,o),
(360,-30,o),
(666,-30,cs)
);
}
);
width = 1334;
},
{
associatedMasterId = "0DA27741-1AFD-43F2-A947-40AFBF8D6498";
layerId = "A2873047-0ED6-4C67-9B4D-3870B51BD5C6";
width = 1200;
},
{
associatedMasterId = "0DA27741-1AFD-43F2-A947-40AFBF8D6498";
layerId = "55314CA7-5524-4D70-B802-98D4FAE25636";
width = 1188;
},
{
associatedMasterId = "0DA27741-1AFD-43F2-A947-40AFBF8D6498";
layerId = "13A3DD5D-E91B-4961-8595-F8141D3FA442";
width = 1198;
}
);
metricLeft = S;
metricRight = S;
unicode = 1047;
},
{
glyphname = "Iishort-cy";
kernLeft = N;
kernRight = N;
lastChange = "2020-02-20 18:21:12 +0000";
layers = (
{
layerId = "CAA188E2-8C62-414B-93AE-B576BEB044DB";
shapes = (
{
closed = 1;
nodes = (
(224,0,l),
(1100,1292,l),
(1100,0,l),
(1184,0,l),
(1184,1440,l),
(1100,1440,l),
(224,150,l),
(224,1440,l),
(140,1440,l),
(140,0,l)
);
},
{
pos = (214,0);
ref = brevecomb;
}
);
width = 1324;
},
{
layerId = "0DA27741-1AFD-43F2-A947-40AFBF8D6498";
shapes = (
{
closed = 1;
nodes = (
(416,0,l),
(1042,960,l),
(1042,0,l),
(1318,0,l),
(1318,1440,l),
(1042,1440,l),
(416,480,l),
(416,1440,l),
(140,1440,l),
(140,0,l)
);
},
{
pos = (166,0);
ref = brevecomb;
}
);
width = 1458;
},
{
associatedMasterId = "0DA27741-1AFD-43F2-A947-40AFBF8D6498";
layerId = "A2873047-0ED6-4C67-9B4D-3870B51BD5C6";
width = 1200;
},
{
associatedMasterId = "0DA27741-1AFD-43F2-A947-40AFBF8D6498";
layerId = "55314CA7-5524-4D70-B802-98D4FAE25636";
width = 1450;
},
{
associatedMasterId = "0DA27741-1AFD-43F2-A947-40AFBF8D6498";
layerId = "13A3DD5D-E91B-4961-8595-F8141D3FA442";
width = 1240;
}
);
metricLeft = N;
metricRight = N;
unicode = 1049;
},
{
glyphname = "Iigrave-cy";
lastChange = "2020-03-10 05:52:44 +0000";
layers = (
{
layerId = "0DA27741-1AFD-43F2-A947-40AFBF8D6498";
shapes = (
{
closed = 1;
nodes = (
(416,0,l),
(1042,960,l),
(1042,0,l),
(1318,0,l),
(1318,1440,l),
(1042,1440,l),
(416,480,l),
(416,1440,l),
(140,1440,l),
(140,0,l)
);
},
{
pos = (164,0);
ref = gravecomb;
}
);
width = 1458;
},
{
layerId = "CAA188E2-8C62-414B-93AE-B576BEB044DB";
shapes = (
{
closed = 1;
nodes = (
(224,0,l),
(1100,1292,l),
(1100,0,l),
(1184,0,l),
(1184,1440,l),
(1100,1440,l),
(224,150,l),
(224,1440,l),
(140,1440,l),
(140,0,l)
);
},
{
pos = (191,0);
ref = gravecomb;
}
);
width = 1324;
}
);
unicode = 1037;
},
{
glyphname = "Kje-cy";
lastChange = "2020-02-20 18:21:12 +0000";
layers = (
{
layerId = "0DA27741-1AFD-43F2-A947-40AFBF8D6498";
shapes = (
{
closed = 1;
nodes = (
(412,0,l),
(412,656,l),
(986,0,l),
(1330,0,l),
(690,730,l),
(1292,1440,l),
(960,1440,l),
(412,776,l),
(412,1440,l),
(140,1440,l),
(140,0,l)
);
},
{
pos = (148,0);
ref = acutecomb;
}
);
width = 1330;
},
{
layerId = "CAA188E2-8C62-414B-93AE-B576BEB044DB";
shapes = (
{
closed = 1;
nodes = (
(224,0,l),
(224,752,l),
(1000,0,l),
(1116,0,l),
(346,752,l),
(1052,1440,l),
(936,1440,l),
(224,752,l),
(224,1440,l),
(140,1440,l),
(140,0,l)
);
},
{
pos = (172,0);
ref = acutecomb;
}
);
width = 1116;
}
);
unicode = 1036;
},
{
glyphname = "El-cy";
kernLeft = A;
kernRight = H;
lastChange = "2020-02-20 18:21:12 +0000";
layers = (
{
layerId = "CAA188E2-8C62-414B-93AE-B576BEB044DB";
shapes = (
{
closed = 1;
nodes = (
(288,-72,o),
(328,146,o),
(362,388,cs),
(412,750,o),
(422,1016,o),
(444,1356,c),
(1144,1356,l),
(1144,0,l),
(1228,0,l),
(1228,1440,l),
(356,1440,l),
(336,982,o),
(316,746,o),
(272,442,cs),
(224,108,o),
(200,66,o),
(40,84,c),
(40,0,l)
);
}
);
width = 1368;
},
{
layerId = "0DA27741-1AFD-43F2-A947-40AFBF8D6498";
shapes = (
{
closed = 1;
nodes = (
(354,-62,o),
(438,102,o),
(494,388,cs),
(554,682,o),
(578,1036,o),
(588,1186,c),
(1048,1186,l),
(1048,0,l),
(1320,0,l),
(1320,1440,l),
(338,1440,l),
(330,1266,o),
(308,820,o),
(244,488,cs),
(204,276,o),
(162,218,o),
(40,226,c),
(40,0,l)
);
}
);
width = 1460;
},
{
associatedMasterId = "0DA27741-1AFD-43F2-A947-40AFBF8D6498";
layerId = "A2873047-0ED6-4C67-9B4D-3870B51BD5C6";
width = 1200;
},
{
associatedMasterId = "0DA27741-1AFD-43F2-A947-40AFBF8D6498";
layerId = "55314CA7-5524-4D70-B802-98D4FAE25636";
width = 1332;
},
{
associatedMasterId = "0DA27741-1AFD-43F2-A947-40AFBF8D6498";
layerId = "13A3DD5D-E91B-4961-8595-F8141D3FA442";
width = 1222;
}
);
metricRight = H;
unicode = 1051;
},
{
glyphname = "Pe-cy";
kernLeft = H;
kernRight = H;
lastChange = "2020-02-20 18:21:12 +0000";
layers = (
{
layerId = "CAA188E2-8C62-414B-93AE-B576BEB044DB";
shapes = (
{
closed = 1;
nodes = (
(224,0,l),
(224,1356,l),
(1116,1356,l),
(1116,0,l),
(1200,0,l),
(1200,1440,l),
(140,1440,l),
(140,0,l)
);
}
);
width = 1340;
},
{
layerId = "0DA27741-1AFD-43F2-A947-40AFBF8D6498";
shapes = (
{
closed = 1;
nodes = (
(412,0,l),
(412,1186,l),
(1056,1186,l),
(1056,0,l),
(1328,0,l),
(1328,1440,l),
(140,1440,l),
(140,0,l)
);
}
);
width = 1468;
},
{
associatedMasterId = "0DA27741-1AFD-43F2-A947-40AFBF8D6498";
layerId = "A2873047-0ED6-4C67-9B4D-3870B51BD5C6";
width = 1200;
},
{
associatedMasterId = "0DA27741-1AFD-43F2-A947-40AFBF8D6498";
layerId = "55314CA7-5524-4D70-B802-98D4FAE25636";
width = 1450;
},
{
associatedMasterId = "0DA27741-1AFD-43F2-A947-40AFBF8D6498";
layerId = "13A3DD5D-E91B-4961-8595-F8141D3FA442";
width = 1240;
}
);
metricLeft = H;
metricRight = H;
unicode = 1055;
},
{
glyphname = "U-cy";
kernLeft = X;
kernRight = Y;
lastChange = "2020-03-29 06:32:35 +0000";
layers = (
{
layerId = "CAA188E2-8C62-414B-93AE-B576BEB044DB";
shapes = (
{
closed = 1;
nodes = (
(514,0,l),
(1178,1440,l),
(1088,1440,l),
(606,404,l),
(130,1440,l),
(40,1440,l),
(562,310,l),
(418,0,l)
);
}
);
width = 1228;
},
{
layerId = "0DA27741-1AFD-43F2-A947-40AFBF8D6498";
shapes = (
{
closed = 1;
nodes = (
(602,0,l),
(1282,1440,l),
(992,1440,l),
(654,690,l),
(328,1440,l),
(20,1440,l),
(512,404,l),
(312,0,l)
);
}
);
width = 1282;
},
{
associatedMasterId = "0DA27741-1AFD-43F2-A947-40AFBF8D6498";
layerId = "A2873047-0ED6-4C67-9B4D-3870B51BD5C6";
width = 1200;
},
{
associatedMasterId = "0DA27741-1AFD-43F2-A947-40AFBF8D6498";
layerId = "55314CA7-5524-4D70-B802-98D4FAE25636";
width = 1072;
},
{
associatedMasterId = "0DA27741-1AFD-43F2-A947-40AFBF8D6498";
layerId = "13A3DD5D-E91B-4961-8595-F8141D3FA442";
width = 1180;
}
);
metricLeft = y;
metricRight = y;
unicode = 1059;
},
{
glyphname = "Ef-cy";
kernLeft = O;
kernRight = O;
lastChange = "2020-02-20 18:21:12 +0000";
layers = (
{
layerId = "CAA188E2-8C62-414B-93AE-B576BEB044DB";
shapes = (
{
closed = 1;
nodes = (
(734,0,l),
(734,182,l),
(1030,132,o),
(1324,346,o),
(1324,766,cs),
(1324,1186,o),
(1030,1400,o),
(734,1350,c),
(734,1440,l),
(650,1440,l),
(650,1350,l),
(354,1400,o),
(60,1186,o),
(60,766,cs),
(60,346,o),
(354,132,o),
(650,182,c),
(650,0,l)
);
},
{
closed = 1;
nodes = (
(382,232,o),
(150,426,o),
(150,766,cs),
(150,1106,o),
(382,1302,o),
(650,1266,c),
(650,268,l)
);
},
{
closed = 1;
nodes = (
(734,1266,l),
(1002,1302,o),
(1234,1106,o),
(1234,766,cs),
(1234,426,o),
(1002,232,o),
(734,268,c)
);
}
);
width = 1384;
},
{
layerId = "0DA27741-1AFD-43F2-A947-40AFBF8D6498";
shapes = (
{
closed = 1;
nodes = (
(882,0,l),
(882,210,l),
(1178,160,o),
(1436,360,o),
(1436,760,cs),
(1436,1160,o),
(1178,1370,o),
(882,1320,c),
(882,1440,l),
(612,1440,l),
(612,1320,l),
(316,1370,o),
(60,1160,o),
(60,760,cs),
(60,360,o),
(316,160,o),
(612,210,c),
(612,0,l)
);
},
{
closed = 1;
nodes = (
(384,422,o),
(336,600,o),
(336,760,cs),
(336,920,o),
(384,1112,o),
(612,1076,c),
(612,458,l)
);
},
{
closed = 1;
nodes = (
(882,1076,l),
(1108,1112,o),
(1160,902,o),
(1160,752,cs),
(1160,602,o),
(1108,422,o),
(882,458,c)
);
}
);
width = 1496;
},
{
associatedMasterId = "0DA27741-1AFD-43F2-A947-40AFBF8D6498";
layerId = "A2873047-0ED6-4C67-9B4D-3870B51BD5C6";
width = 1200;
},
{
associatedMasterId = "0DA27741-1AFD-43F2-A947-40AFBF8D6498";
layerId = "55314CA7-5524-4D70-B802-98D4FAE25636";
width = 1662;
},
{
associatedMasterId = "0DA27741-1AFD-43F2-A947-40AFBF8D6498";
layerId = "13A3DD5D-E91B-4961-8595-F8141D3FA442";
width = 1274;
}
);
metricLeft = O;
metricRight = O;
unicode = 1060;
},
{
glyphname = "Che-cy";
kernLeft = M;
kernRight = N;
lastChange = "2020-02-20 18:21:12 +0000";
layers = (
{
background = {
shapes = (
{
closed = 1;
nodes = (
(1114,0,l),
(1114,1440,l),
(1030,1440,l),
(1030,626,l),
(1062,742,l),
(992,676,o),
(846,610,o),
(654,610,cs),
(536,610,o),
(418,634,o),
(330,730,cs),
(230,838,o),
(224,968,o),
(224,1172,cs),
(224,1440,l),
(140,1440,l),
(140,1172,ls),
(140,976,o),
(132,812,o),
(260,670,cs),
(358,562,o),
(488,522,o),
(658,522,cs),
(842,522,o),
(972,570,o),
(1072,636,c),
(1030,700,l),
(1030,0,l)
);
}
);
};
layerId = "CAA188E2-8C62-414B-93AE-B576BEB044DB";
shapes = (
{
closed = 1;
nodes = (
(1114,0,l),
(1114,1440,l),
(1030,1440,l),
(1030,626,l),
(1062,742,l),
(992,676,o),
(846,610,o),
(654,610,cs),
(362,610,o),
(224,768,o),
(224,1084,cs),
(224,1440,l),
(140,1440,l),
(140,1048,ls),
(140,744,o),
(282,522,o),
(664,522,cs),
(842,522,o),
(972,570,o),
(1072,636,c),
(1030,700,l),
(1030,0,l)
);
}
);
width = 1254;
},
{
background = {
shapes = (
{
closed = 1;
nodes = (
(1232,0,l),
(1232,1440,l),
(958,1440,l),
(958,718,l),
(988,840,l),
(938,774,o),
(834,720,o),
(682,720,cs),
(610,720,o),
(528,732,o),
(476,804,cs),
(416,888,o),
(416,1028,o),
(416,1108,cs),
(416,1440,l),
(140,1440,l),
(140,1046,ls),
(140,936,o),
(140,766,o),
(244,628,cs),
(340,502,o),
(476,464,o),
(628,464,cs),
(774,464,o),
(922,500,o),
(996,566,c),
(958,628,l),
(958,0,l)
);
}
);
};
layerId = "0DA27741-1AFD-43F2-A947-40AFBF8D6498";
shapes = (
{
closed = 1;
nodes = (
(1232,0,l),
(1232,1440,l),
(958,1440,l),
(958,718,l),
(988,840,l),
(946,782,o),
(840,720,o),
(692,720,cs),
(416,720,o),
(416,934,o),
(416,1108,cs),
(416,1440,l),
(140,1440,l),
(140,1026,ls),
(140,694,o),
(268,464,o),
(628,464,cs),
(774,464,o),
(922,500,o),
(996,566,c),
(958,628,l),
(958,0,l)
);
}
);
width = 1372;
},
{
associatedMasterId = "0DA27741-1AFD-43F2-A947-40AFBF8D6498";
layerId = "A2873047-0ED6-4C67-9B4D-3870B51BD5C6";
width = 1200;
},
{
associatedMasterId = "0DA27741-1AFD-43F2-A947-40AFBF8D6498";
layerId = "55314CA7-5524-4D70-B802-98D4FAE25636";
width = 1302;
},
{
associatedMasterId = "0DA27741-1AFD-43F2-A947-40AFBF8D6498";
layerId = "13A3DD5D-E91B-4961-8595-F8141D3FA442";
width = 1216;
}
);
metricLeft = M;
metricRight = M;
unicode = 1063;
},
{
glyphname = "Tse-cy";
kernLeft = H;
kernRight = "tse-cy";
lastChange = "2020-02-20 18:21:12 +0000";
layers = (
{
layerId = "CAA188E2-8C62-414B-93AE-B576BEB044DB";
shapes = (
{
closed = 1;
nodes = (
(1368,-160,l),
(1368,84,l),
(1220,84,l),
(1220,1440,l),
(1136,1440,l),
(1136,84,l),
(224,84,l),
(224,1440,l),
(140,1440,l),
(140,0,l),
(1284,0,l),
(1284,-160,l)
);
}
);
width = 1388;
},
{
layerId = "0DA27741-1AFD-43F2-A947-40AFBF8D6498";
shapes = (
{
closed = 1;
nodes = (
(1502,-240,l),
(1502,240,l),
(1340,240,l),
(1340,1400,l),
(1068,1400,l),
(1068,240,l),
(412,240,l),
(412,1440,l),
(140,1440,l),
(140,0,l),
(1230,0,l),
(1230,-240,l)
);
}
);
width = 1522;
},
{
associatedMasterId = "0DA27741-1AFD-43F2-A947-40AFBF8D6498";
layerId = "A2873047-0ED6-4C67-9B4D-3870B51BD5C6";
width = 1200;
},
{
associatedMasterId = "0DA27741-1AFD-43F2-A947-40AFBF8D6498";
layerId = "55314CA7-5524-4D70-B802-98D4FAE25636";
width = 1606;
},
{
associatedMasterId = "0DA27741-1AFD-43F2-A947-40AFBF8D6498";
layerId = "13A3DD5D-E91B-4961-8595-F8141D3FA442";
width = 1264;
}
);
metricLeft = H;
metricRight = "tse-cy";
unicode = 1062;
},
{
glyphname = "Sha-cy";
kernLeft = H;
kernRight = H;
lastChange = "2020-02-20 18:21:12 +0000";
layers = (
{
layerId = "CAA188E2-8C62-414B-93AE-B576BEB044DB";
shapes = (
{
closed = 1;
nodes = (
(1620,0,l),
(1620,1440,l),
(1536,1440,l),
(1536,84,l),
(922,84,l),
(922,1440,l),
(838,1440,l),
(838,84,l),
(224,84,l),
(224,1440,l),
(140,1440,l),
(140,0,l)
);
}
);
width = 1760;
},
{
layerId = "0DA27741-1AFD-43F2-A947-40AFBF8D6498";
shapes = (
{
closed = 1;
nodes = (
(1780,0,l),
(1780,1440,l),
(1508,1440,l),
(1508,254,l),
(1096,254,l),
(1096,1440,l),
(824,1440,l),
(824,254,l),
(412,254,l),
(412,1440,l),
(140,1440,l),
(140,0,l)
);
}
);
width = 1920;
},
{
associatedMasterId = "0DA27741-1AFD-43F2-A947-40AFBF8D6498";
layerId = "A2873047-0ED6-4C67-9B4D-3870B51BD5C6";
width = 1200;
},
{
associatedMasterId = "0DA27741-1AFD-43F2-A947-40AFBF8D6498";
layerId = "55314CA7-5524-4D70-B802-98D4FAE25636";
width = 1900;
},
{
associatedMasterId = "0DA27741-1AFD-43F2-A947-40AFBF8D6498";
layerId = "13A3DD5D-E91B-4961-8595-F8141D3FA442";
width = 1312;
}
);
metricLeft = H;
metricRight = H;
unicode = 1064;
},
{
glyphname = "Shcha-cy";
kernLeft = H;
kernRight = "tse-cy";
lastChange = "2020-02-20 18:21:12 +0000";
layers = (
{
layerId = "CAA188E2-8C62-414B-93AE-B576BEB044DB";
shapes = (
{
closed = 1;
nodes = (
(1768,-160,l),
(1768,84,l),
(1544,84,l),
(1544,0,l),
(1684,0,l),
(1684,-160,l)
);
},
{
ref = "Sha-cy";
}
);
width = 1788;
},
{
layerId = "0DA27741-1AFD-43F2-A947-40AFBF8D6498";
shapes = (
{
closed = 1;
nodes = (
(1942,-240,l),
(1942,240,l),
(1530,240,l),
(1530,0,l),
(1670,0,l),
(1670,-240,l)
);
},
{
ref = "Sha-cy";
}
);
width = 1962;
},
{
associatedMasterId = "0DA27741-1AFD-43F2-A947-40AFBF8D6498";
layerId = "A2873047-0ED6-4C67-9B4D-3870B51BD5C6";
width = 1200;
},
{
associatedMasterId = "0DA27741-1AFD-43F2-A947-40AFBF8D6498";
layerId = "55314CA7-5524-4D70-B802-98D4FAE25636";
width = 1980;
},
{
associatedMasterId = "0DA27741-1AFD-43F2-A947-40AFBF8D6498";
layerId = "13A3DD5D-E91B-4961-8595-F8141D3FA442";
width = 1324;
}
);
metricRight = "tse-cy";
unicode = 1065;
},
{
glyphname = "Dzhe-cy";
kernLeft = "Sha-cy";
kernRight = "Sha-cy";
lastChange = "2020-02-20 18:21:12 +0000";
layers = (
{
layerId = "CAA188E2-8C62-414B-93AE-B576BEB044DB";
shapes = (
{
closed = 1;
nodes = (
(752,-240,l),
(752,0,l),
(1280,0,l),
(1280,1440,l),
(1196,1440,l),
(1196,84,l),
(224,84,l),
(224,1440,l),
(140,1440,l),
(140,0,l),
(668,0,l),
(668,-240,l)
);
}
);
width = 1420;
},
{
layerId = "0DA27741-1AFD-43F2-A947-40AFBF8D6498";
shapes = (
{
closed = 1;
nodes = (
(916,-240,l),
(916,0,l),
(1420,0,l),
(1420,1440,l),
(1148,1440,l),
(1148,254,l),
(412,254,l),
(412,1440,l),
(140,1440,l),
(140,0,l),
(644,0,l),
(644,-240,l)
);
}
);
width = 1560;
},
{
associatedMasterId = "0DA27741-1AFD-43F2-A947-40AFBF8D6498";
layerId = "A2873047-0ED6-4C67-9B4D-3870B51BD5C6";
width = 1200;
},
{
associatedMasterId = "0DA27741-1AFD-43F2-A947-40AFBF8D6498";
layerId = "55314CA7-5524-4D70-B802-98D4FAE25636";
width = 1526;
},
{
associatedMasterId = "0DA27741-1AFD-43F2-A947-40AFBF8D6498";
layerId = "13A3DD5D-E91B-4961-8595-F8141D3FA442";
width = 1252;
}
);
metricLeft = "Sha-cy";
metricRight = "Sha-cy";
unicode = 1039;
},
{
glyphname = "Softsign-cy";
kernLeft = H;
kernRight = B;
lastChange = "2020-02-20 18:21:12 +0000";
layers = (
{
layerId = "CAA188E2-8C62-414B-93AE-B576BEB044DB";
shapes = (
{
closed = 1;
nodes = (
(670,0,ls),
(698,0,o),
(726,2,o),
(762,8,cs),
(970,40,o),
(1102,216,o),
(1102,432,cs),
(1102,648,o),
(970,824,o),
(762,856,cs),
(726,862,o),
(698,864,o),
(670,864,cs),
(224,864,l),
(224,1440,l),
(140,1440,l),
(140,0,l)
);
},
{
closed = 1;
nodes = (
(224,780,l),
(670,780,ls),
(692,780,o),
(726,778,o),
(758,772,cs),
(924,740,o),
(1012,594,o),
(1012,432,cs),
(1012,270,o),
(924,124,o),
(758,92,cs),
(726,86,o),
(692,84,o),
(670,84,cs),
(224,84,l)
);
}
);
width = 1182;
},
{
layerId = "0DA27741-1AFD-43F2-A947-40AFBF8D6498";
shapes = (
{
closed = 1;
nodes = (
(746,0,ls),
(774,0,o),
(828,2,o),
(866,8,cs),
(1124,48,o),
(1238,234,o),
(1238,476,cs),
(1238,718,o),
(1122,904,o),
(866,944,cs),
(828,950,o),
(772,952,o),
(746,952,cs),
(410,952,l),
(410,1440,l),
(138,1440,l),
(138,0,l)
);
},
{
closed = 1;
nodes = (
(410,698,l),
(734,698,ls),
(762,698,o),
(798,696,o),
(826,688,cs),
(936,658,o),
(964,554,o),
(964,476,cs),
(964,398,o),
(936,294,o),
(826,264,cs),
(798,256,o),
(762,254,o),
(734,254,cs),
(410,254,l)
);
}
);
width = 1318;
},
{
associatedMasterId = "0DA27741-1AFD-43F2-A947-40AFBF8D6498";
layerId = "A2873047-0ED6-4C67-9B4D-3870B51BD5C6";
width = 1200;
},
{
associatedMasterId = "0DA27741-1AFD-43F2-A947-40AFBF8D6498";
layerId = "55314CA7-5524-4D70-B802-98D4FAE25636";
width = 1176;
},
{
associatedMasterId = "0DA27741-1AFD-43F2-A947-40AFBF8D6498";
layerId = "13A3DD5D-E91B-4961-8595-F8141D3FA442";
width = 1196;
}
);
metricLeft = b;
metricRight = b;
unicode = 1068;
},
{
glyphname = "Hardsign-cy";
kernLeft = T;
kernRight = B;
lastChange = "2020-02-20 18:21:12 +0000";
layers = (
{
layerId = "CAA188E2-8C62-414B-93AE-B576BEB044DB";
shapes = (
{
closed = 1;
nodes = (
(690,0,ls),
(718,0,o),
(746,2,o),
(782,8,cs),
(990,40,o),
(1122,216,o),
(1122,432,cs),
(1122,648,o),
(990,824,o),
(782,856,cs),
(746,862,o),
(718,864,o),
(690,864,cs),
(244,864,l),
(244,1440,l),
(-20,1440,l),
(-20,1356,l),
(160,1356,l),
(160,0,l)
);
},
{
closed = 1;
nodes = (
(244,780,l),
(690,780,ls),
(712,780,o),
(746,778,o),
(778,772,cs),
(944,740,o),
(1032,594,o),
(1032,432,cs),
(1032,270,o),
(944,124,o),
(778,92,cs),
(746,86,o),
(712,84,o),
(690,84,cs),
(244,84,l)
);
}
);
width = 1182;
},
{
layerId = "0DA27741-1AFD-43F2-A947-40AFBF8D6498";
shapes = (
{
closed = 1;
nodes = (
(808,0,ls),
(836,0,o),
(890,2,o),
(928,8,cs),
(1186,48,o),
(1300,234,o),
(1300,476,cs),
(1300,718,o),
(1184,904,o),
(928,944,cs),
(890,950,o),
(834,952,o),
(808,952,cs),
(472,952,l),
(472,1440,l),
(0,1440,l),
(0,1230,l),
(200,1230,l),
(200,0,l)
);
},
{
closed = 1;
nodes = (
(472,698,l),
(796,698,ls),
(824,698,o),
(860,696,o),
(888,688,cs),
(998,658,o),
(1026,554,o),
(1026,476,cs),
(1026,398,o),
(998,294,o),
(888,264,cs),
(860,256,o),
(824,254,o),
(796,254,cs),
(472,254,l)
);
}
);
width = 1344;
},
{
associatedMasterId = "0DA27741-1AFD-43F2-A947-40AFBF8D6498";
layerId = "A2873047-0ED6-4C67-9B4D-3870B51BD5C6";
width = 1200;
},
{
associatedMasterId = "0DA27741-1AFD-43F2-A947-40AFBF8D6498";
layerId = "55314CA7-5524-4D70-B802-98D4FAE25636";
width = 1138;
},
{
associatedMasterId = "0DA27741-1AFD-43F2-A947-40AFBF8D6498";
layerId = "13A3DD5D-E91B-4961-8595-F8141D3FA442";
width = 1190;
}
);
unicode = 1066;
},
{
glyphname = "Nje-cy";
kernLeft = "En-cy";
kernRight = "Softsign-cy";
lastChange = "2020-02-20 18:31:41 +0000";
layers = (
{
layerId = "CAA188E2-8C62-414B-93AE-B576BEB044DB";
shapes = (
{
closed = 1;
nodes = (
(224,0,l),
(224,780,l),
(1072,780,l),
(1072,864,l),
(224,864,l),
(224,1440,l),
(140,1440,l),
(140,0,l)
);
},
{
alignment = -1;
pos = (876,0);
ref = "Softsign-cy";
}
);
width = 2058;
},
{
layerId = "0DA27741-1AFD-43F2-A947-40AFBF8D6498";
shapes = (
{
closed = 1;
nodes = (
(412,0,l),
(412,696,l),
(1180,696,l),
(1180,950,l),
(412,950,l),
(412,1440,l),
(140,1440,l),
(140,0,l)
);
},
{
alignment = -1;
pos = (916,0);
ref = "Softsign-cy";
}
);
width = 2234;
},
{
associatedMasterId = "0DA27741-1AFD-43F2-A947-40AFBF8D6498";
layerId = "A2873047-0ED6-4C67-9B4D-3870B51BD5C6";
width = 1200;
},
{
associatedMasterId = "0DA27741-1AFD-43F2-A947-40AFBF8D6498";
layerId = "55314CA7-5524-4D70-B802-98D4FAE25636";
width = 2276;
},
{
associatedMasterId = "0DA27741-1AFD-43F2-A947-40AFBF8D6498";
layerId = "13A3DD5D-E91B-4961-8595-F8141D3FA442";
width = 1372;
}
);
metricLeft = "En-cy";
metricRight = "Softsign-cy";
unicode = 1034;
},
{
glyphname = "Ereversed-cy";
kernLeft = X;
kernRight = O;
lastChange = "2020-02-20 18:21:12 +0000";
layers = (
{
layerId = "CAA188E2-8C62-414B-93AE-B576BEB044DB";
shapes = (
{
closed = 1;
nodes = (
(1106,-30,o),
(1334,300,o),
(1324,720,cs),
(1314,1170,o),
(1098,1470,o),
(678,1470,cs),
(364,1470,o),
(132,1288,o),
(60,972,c),
(148,958,l),
(204,1222,o),
(398,1380,o),
(678,1384,cs),
(1032,1388,o),
(1220,1128,o),
(1234,762,c),
(694,762,l),
(694,678,l),
(1234,678,l),
(1230,526,o),
(1204,384,o),
(1102,248,cs),
(1002,114,o),
(850,56,o),
(678,54,cs),
(422,50,o),
(224,200,o),
(154,456,c),
(70,432,l),
(138,146,o),
(372,-30,o),
(678,-30,cs)
);
}
);
width = 1384;
},
{
layerId = "0DA27741-1AFD-43F2-A947-40AFBF8D6498";
shapes = (
{
closed = 1;
nodes = (
(1134,-30,o),
(1390,300,o),
(1390,720,cs),
(1390,1166,o),
(1128,1470,o),
(710,1470,cs),
(366,1470,o),
(132,1290,o),
(60,976,c),
(332,938,l),
(380,1104,o),
(512,1212,o),
(692,1214,cs),
(920,1218,o),
(1060,1068,o),
(1096,848,c),
(590,848,l),
(590,594,l),
(1094,594,l),
(1082,512,o),
(1056,434,o),
(1006,370,cs),
(936,274,o),
(816,228,o),
(692,226,cs),
(516,224,o),
(386,336,o),
(336,490,c),
(70,424,l),
(162,118,o),
(386,-30,o),
(710,-30,cs)
);
}
);
width = 1450;
},
{
associatedMasterId = "0DA27741-1AFD-43F2-A947-40AFBF8D6498";
layerId = "A2873047-0ED6-4C67-9B4D-3870B51BD5C6";
width = 1200;
},
{
associatedMasterId = "0DA27741-1AFD-43F2-A947-40AFBF8D6498";
layerId = "55314CA7-5524-4D70-B802-98D4FAE25636";
width = 1366;
},
{
associatedMasterId = "0DA27741-1AFD-43F2-A947-40AFBF8D6498";
layerId = "13A3DD5D-E91B-4961-8595-F8141D3FA442";
width = 1226;
}
);
metricLeft = O;
metricRight = O;
unicode = 1069;
},
{
glyphname = "Tshe-cy";
kernLeft = V;
kernRight = B;
lastChange = "2020-02-20 18:31:41 +0000";
layers = (
{
layerId = "CAA188E2-8C62-414B-93AE-B576BEB044DB";
shapes = (
{
closed = 1;
nodes = (
(540,1356,l),
(540,1440,l),
(0,1440,l),
(0,1356,l)
);
},
{
ref = "Shha-cy";
}
);
width = 1254;
},
{
layerId = "0DA27741-1AFD-43F2-A947-40AFBF8D6498";
shapes = (
{
closed = 1;
nodes = (
(720,1200,l),
(720,1440,l),
(0,1440,l),
(0,1200,l)
);
},
{
ref = "Shha-cy";
}
);
width = 1372;
},
{
associatedMasterId = "0DA27741-1AFD-43F2-A947-40AFBF8D6498";
layerId = "A2873047-0ED6-4C67-9B4D-3870B51BD5C6";
width = 1200;
},
{
associatedMasterId = "0DA27741-1AFD-43F2-A947-40AFBF8D6498";
layerId = "55314CA7-5524-4D70-B802-98D4FAE25636";
width = 1302;
},
{
associatedMasterId = "0DA27741-1AFD-43F2-A947-40AFBF8D6498";
layerId = "13A3DD5D-E91B-4961-8595-F8141D3FA442";
width = 1216;
}
);
metricRight = "Shha-cy";
unicode = 1035;
},
{
glyphname = "Iu-cy";
kernLeft = H;
kernRight = O;
lastChange = "2020-02-20 18:21:12 +0000";
layers = (
{
layerId = "CAA188E2-8C62-414B-93AE-B576BEB044DB";
shapes = (
{
closed = 1;
nodes = (
(224,0,l),
(224,678,l),
(692,678,l),
(692,762,l),
(224,762,l),
(224,1440,l),
(140,1440,l),
(140,0,l)
);
},
{
pos = (560,0);
ref = "Oval-condensed";
}
);
width = 1796;
},
{
layerId = "0DA27741-1AFD-43F2-A947-40AFBF8D6498";
shapes = (
{
closed = 1;
nodes = (
(412,0,l),
(412,584,l),
(652,584,l),
(652,856,l),
(412,856,l),
(412,1440,l),
(140,1440,l),
(140,0,l)
);
},
{
pos = (560,0);
ref = "Oval-condensed";
}
);
width = 1912;
},
{
associatedMasterId = "0DA27741-1AFD-43F2-A947-40AFBF8D6498";
layerId = "A2873047-0ED6-4C67-9B4D-3870B51BD5C6";
width = 1200;
},
{
associatedMasterId = "0DA27741-1AFD-43F2-A947-40AFBF8D6498";
layerId = "55314CA7-5524-4D70-B802-98D4FAE25636";
width = 2168;
},
{
associatedMasterId = "0DA27741-1AFD-43F2-A947-40AFBF8D6498";
layerId = "13A3DD5D-E91B-4961-8595-F8141D3FA442";
width = 1354;
}
);
metricLeft = H;
metricRight = O;
unicode = 1070;
},
{
glyphname = "Dje-cy";
kernLeft = T;
kernRight = b;
lastChange = "2020-02-20 18:21:12 +0000";
layers = (
{
layerId = "CAA188E2-8C62-414B-93AE-B576BEB044DB";
shapes = (
{
closed = 1;
nodes = (
(224,0,l),
(224,476,ls),
(224,566,o),
(224,668,o),
(250,760,cs),
(304,948,o),
(446,1026,o),
(660,1026,cs),
(944,1026,o),
(1088,890,o),
(1088,582,cs),
(1088,262,o),
(938,84,o),
(686,84,c),
(686,0,l),
(1014,0,o),
(1172,232,o),
(1172,568,cs),
(1172,934,o),
(986,1110,o),
(660,1110,cs),
(460,1110,o),
(300,1044,o),
(218,898,c),
(218,1356,l),
(540,1356,l),
(540,1440,l),
(0,1440,l),
(0,1356,l),
(140,1356,l),
(140,0,l)
);
}
);
width = 1252;
},
{
layerId = "0DA27741-1AFD-43F2-A947-40AFBF8D6498";
shapes = (
{
closed = 1;
nodes = (
(434,0,l),
(434,518,ls),
(434,572,o),
(440,638,o),
(454,682,cs),
(484,778,o),
(578,848,o),
(734,848,cs),
(892,848,o),
(1016,774,o),
(1016,556,cs),
(1016,406,o),
(958,276,o),
(746,276,c),
(746,0,l),
(1126,0,o),
(1292,216,o),
(1292,558,cs),
(1292,918,o),
(1106,1110,o),
(774,1110,cs),
(618,1110,o),
(492,1068,o),
(400,988,c),
(400,1200,l),
(720,1200,l),
(720,1440,l),
(0,1440,l),
(0,1200,l),
(160,1200,l),
(160,0,l)
);
}
);
width = 1372;
},
{
associatedMasterId = "0DA27741-1AFD-43F2-A947-40AFBF8D6498";
layerId = "A2873047-0ED6-4C67-9B4D-3870B51BD5C6";
width = 1200;
},
{
associatedMasterId = "0DA27741-1AFD-43F2-A947-40AFBF8D6498";
layerId = "55314CA7-5524-4D70-B802-98D4FAE25636";
width = 1136;
},
{
associatedMasterId = "0DA27741-1AFD-43F2-A947-40AFBF8D6498";
layerId = "13A3DD5D-E91B-4961-8595-F8141D3FA442";
width = 1190;
}
);
metricRight = b;
unicode = 1026;
},
{
glyphname = "Obarred-cy";
kernLeft = O;
kernRight = O;
lastChange = "2020-02-20 18:21:12 +0000";
layers = (
{
layerId = "CAA188E2-8C62-414B-93AE-B576BEB044DB";
shapes = (
{
closed = 1;
nodes = (
(1310,678,l),
(1310,762,l),
(130,762,l),
(130,678,l)
);
},
{
ref = O;
}
);
width = 1452;
},
{
layerId = "0DA27741-1AFD-43F2-A947-40AFBF8D6498";
shapes = (
{
closed = 1;
nodes = (
(1250,584,l),
(1250,856,l),
(290,856,l),
(290,584,l)
);
},
{
ref = O;
}
);
width = 1556;
},
{
associatedMasterId = "0DA27741-1AFD-43F2-A947-40AFBF8D6498";
layerId = "A2873047-0ED6-4C67-9B4D-3870B51BD5C6";
width = 1200;
},
{
associatedMasterId = "0DA27741-1AFD-43F2-A947-40AFBF8D6498";
layerId = "55314CA7-5524-4D70-B802-98D4FAE25636";
width = 1476;
},
{
associatedMasterId = "0DA27741-1AFD-43F2-A947-40AFBF8D6498";
layerId = "13A3DD5D-E91B-4961-8595-F8141D3FA442";
width = 1244;
}
);
unicode = 1256;
},
{
glyphname = "De-cy.loclBGR";
kernLeft = de;
kernRight = N;
lastChange = "2020-02-20 18:21:12 +0000";
layers = (
{
layerId = "0DA27741-1AFD-43F2-A947-40AFBF8D6498";
shapes = (
{
closed = 1;
nodes = (
(334,-180,l),
(334,0,l),
(1198,0,l),
(1198,-180,l),
(1454,-180,l),
(1454,254,l),
(80,254,l),
(80,-180,l)
);
},
{
pos = (114,1440);
ref = V;
scale = (1,-1);
}
);
width = 1554;
},
{
layerId = "CAA188E2-8C62-414B-93AE-B576BEB044DB";
shapes = (
{
closed = 1;
nodes = (
(144,-160,l),
(144,0,l),
(1268,0,l),
(1268,-160,l),
(1352,-160,l),
(1352,84,l),
(60,84,l),
(60,-160,l)
);
},
{
pos = (128,1440);
ref = V;
scale = (1,-1);
}
);
width = 1412;
}
);
},
{
glyphname = "be-cy";
kernLeft = "be-cy";
kernRight = o;
lastChange = "2020-02-20 18:31:41 +0000";
layers = (
{
layerId = "CAA188E2-8C62-414B-93AE-B576BEB044DB";
shapes = (
{
closed = 1;
nodes = (
(880,-30,o),
(1066,178,o),
(1066,502,cs),
(1066,826,o),
(882,1038,o),
(588,1038,cs),
(406,1038,o),
(254,958,o),
(172,824,c),
(188,1028,o),
(248,1180,o),
(364,1250,cs),
(510,1344,o),
(806,1366,o),
(948,1390,c),
(936,1470,l),
(772,1436,o),
(482,1432,o),
(324,1328,cs),
(234,1272,o),
(168,1176,o),
(138,1074,cs),
(110,978,o),
(80,746,o),
(80,576,cs),
(80,154,o),
(264,-30,o),
(562,-30,cs)
);
},
{
closed = 1;
nodes = (
(310,54,o),
(170,228,o),
(170,504,cs),
(170,782,o),
(314,954,o),
(570,954,cs),
(826,954,o),
(976,782,o),
(976,504,cs),
(976,232,o),
(836,54,o),
(572,54,cs)
);
}
);
width = 1146;
},
{
layerId = "0DA27741-1AFD-43F2-A947-40AFBF8D6498";
shapes = (
{
closed = 1;
nodes = (
(905,-36,o),
(1127,180,o),
(1127,498,cs),
(1127,778,o),
(955,1006,o),
(669,1006,cs),
(553,1006,o),
(423,968,o),
(341,848,c),
(349,952,o),
(397,1064,o),
(489,1122,cs),
(625,1208,o),
(885,1190,o),
(1037,1230,c),
(1013,1470,l),
(761,1422,o),
(523,1430,o),
(345,1304,cs),
(269,1250,o),
(197,1172,o),
(155,1080,cs),
(89,932,o),
(69,672,o),
(85,502,cs),
(115,186,o),
(283,-28,o),
(595,-32,cs)
);
},
{
closed = 1;
nodes = (
(457,222,o),
(373,316,o),
(373,486,cs),
(373,650,o),
(453,750,o),
(607,750,cs),
(757,750,o),
(841,650,o),
(841,486,cs),
(841,326,o),
(761,222,o),
(607,222,cs)
);
}
);
width = 1207;
},
{
associatedMasterId = "0DA27741-1AFD-43F2-A947-40AFBF8D6498";
layerId = "A2873047-0ED6-4C67-9B4D-3870B51BD5C6";
width = 1200;
},
{
associatedMasterId = "0DA27741-1AFD-43F2-A947-40AFBF8D6498";
layerId = "55314CA7-5524-4D70-B802-98D4FAE25636";
width = 1170;
},
{
associatedMasterId = "0DA27741-1AFD-43F2-A947-40AFBF8D6498";
layerId = "13A3DD5D-E91B-4961-8595-F8141D3FA442";
width = 1196;
}
);
metricLeft = o;
metricRight = b;
unicode = 1073;
},
{
glyphname = "ve-cy";
kernLeft = n;
kernRight = ve;
lastChange = "2020-03-29 06:33:09 +0000";
layers = (
{
layerId = "CAA188E2-8C62-414B-93AE-B576BEB044DB";
shapes = (
{
closed = 1;
nodes = (
(624,0,ls),
(670,0,o),
(736,0,o),
(792,16,cs),
(900,46,o),
(980,136,o),
(980,286,cs),
(980,382,o),
(948,466,o),
(870,518,cs),
(846,534,o),
(822,546,o),
(804,550,c),
(826,562,o),
(852,582,o),
(870,606,cs),
(908,654,o),
(928,716,o),
(928,784,cs),
(928,912,o),
(856,1028,o),
(724,1062,cs),
(660,1078,o),
(582,1080,o),
(554,1080,cs),
(140,1080,l),
(140,0,l)
);
},
{
closed = 1;
nodes = (
(224,498,l),
(592,498,ls),
(622,498,o),
(660,498,o),
(692,494,cs),
(814,480,o),
(890,400,o),
(890,286,cs),
(890,198,o),
(846,118,o),
(746,96,cs),
(708,88,o),
(652,84,o),
(624,84,cs),
(224,84,l)
);
},
{
closed = 1;
nodes = (
(224,996,l),
(564,996,ls),
(580,996,o),
(652,996,o),
(710,976,cs),
(792,948,o),
(838,876,o),
(838,786,cs),
(838,704,o),
(798,626,o),
(712,598,cs),
(676,586,o),
(624,582,o),
(594,582,cs),
(224,582,l)
);
}
);
width = 1040;
},
{
layerId = "0DA27741-1AFD-43F2-A947-40AFBF8D6498";
shapes = (
{
closed = 1;
nodes = (
(678,0,ls),
(748,0,o),
(816,6,o),
(864,20,cs),
(1004,60,o),
(1074,166,o),
(1074,310,cs),
(1074,444,o),
(1012,506,o),
(940,538,cs),
(918,548,o),
(890,556,o),
(864,560,c),
(888,566,o),
(912,578,o),
(936,596,cs),
(986,634,o),
(1020,690,o),
(1020,786,cs),
(1020,948,o),
(922,1028,o),
(824,1058,cs),
(784,1070,o),
(724,1080,o),
(644,1080,cs),
(138,1080,l),
(138,0,l)
);
},
{
closed = 1;
nodes = (
(414,434,l),
(658,434,ls),
(676,434,o),
(710,434,o),
(736,422,cs),
(766,408,o),
(796,378,o),
(796,322,cs),
(796,282,o),
(780,238,o),
(742,222,cs),
(718,212,o),
(686,206,o),
(658,206,cs),
(414,206,l)
);
},
{
closed = 1;
nodes = (
(414,870,l),
(580,870,ls),
(592,870,o),
(648,870,o),
(678,860,cs),
(722,846,o),
(740,804,o),
(740,758,cs),
(740,714,o),
(722,676,o),
(688,660,cs),
(662,648,o),
(622,644,o),
(580,644,cs),
(414,644,l)
);
}
);
width = 1134;
},
{
associatedMasterId = "0DA27741-1AFD-43F2-A947-40AFBF8D6498";
layerId = "A2873047-0ED6-4C67-9B4D-3870B51BD5C6";
width = 1200;
},
{
associatedMasterId = "0DA27741-1AFD-43F2-A947-40AFBF8D6498";
layerId = "55314CA7-5524-4D70-B802-98D4FAE25636";
width = 1070;
},
{
associatedMasterId = "0DA27741-1AFD-43F2-A947-40AFBF8D6498";
layerId = "13A3DD5D-E91B-4961-8595-F8141D3FA442";
width = 1180;
}
);
metricLeft = n;
unicode = 1074;
},
{
glyphname = "ge-cy";
kernLeft = r;
kernRight = r;
lastChange = "2020-02-20 18:21:12 +0000";
layers = (
{
layerId = "CAA188E2-8C62-414B-93AE-B576BEB044DB";
shapes = (
{
closed = 1;
nodes = (
(224,0,l),
(224,996,l),
(860,996,l),
(860,1080,l),
(140,1080,l),
(140,0,l)
);
}
);
width = 910;
},
{
layerId = "0DA27741-1AFD-43F2-A947-40AFBF8D6498";
shapes = (
{
closed = 1;
nodes = (
(412,0,l),
(412,826,l),
(920,826,l),
(920,1080,l),
(140,1080,l),
(140,0,l)
);
}
);
width = 970;
},
{
associatedMasterId = "0DA27741-1AFD-43F2-A947-40AFBF8D6498";
layerId = "A2873047-0ED6-4C67-9B4D-3870B51BD5C6";
width = 1200;
},
{
associatedMasterId = "0DA27741-1AFD-43F2-A947-40AFBF8D6498";
layerId = "55314CA7-5524-4D70-B802-98D4FAE25636";
width = 838;
},
{
associatedMasterId = "0DA27741-1AFD-43F2-A947-40AFBF8D6498";
layerId = "13A3DD5D-E91B-4961-8595-F8141D3FA442";
width = 1142;
}
);
metricLeft = r;
metricRight = r;
unicode = 1075;
},
{
glyphname = "gheupturn-cy";
kernLeft = r;
kernRight = r;
lastChange = "2020-02-20 18:21:12 +0000";
layers = (
{
layerId = "CAA188E2-8C62-414B-93AE-B576BEB044DB";
shapes = (
{
closed = 1;
nodes = (
(224,0,l),
(224,996,l),
(860,996,l),
(860,1240,l),
(776,1240,l),
(776,1080,l),
(140,1080,l),
(140,0,l)
);
}
);
width = 910;
},
{
layerId = "0DA27741-1AFD-43F2-A947-40AFBF8D6498";
shapes = (
{
closed = 1;
nodes = (
(412,0,l),
(412,826,l),
(920,826,l),
(920,1320,l),
(648,1320,l),
(648,1080,l),
(140,1080,l),
(140,0,l)
);
}
);
width = 970;
},
{
associatedMasterId = "0DA27741-1AFD-43F2-A947-40AFBF8D6498";
layerId = "A2873047-0ED6-4C67-9B4D-3870B51BD5C6";
width = 1200;
},
{
associatedMasterId = "0DA27741-1AFD-43F2-A947-40AFBF8D6498";
layerId = "55314CA7-5524-4D70-B802-98D4FAE25636";
width = 788;
},
{
associatedMasterId = "0DA27741-1AFD-43F2-A947-40AFBF8D6498";
layerId = "13A3DD5D-E91B-4961-8595-F8141D3FA442";
width = 1134;
}
);
unicode = 1169;
},
{
glyphname = "de-cy";
kernLeft = o;
kernRight = v;
lastChange = "2020-02-20 18:21:12 +0000";
layers = (
{
layerId = "CAA188E2-8C62-414B-93AE-B576BEB044DB";
shapes = (
{
closed = 1;
nodes = (
(144,-240,l),
(144,0,l),
(1006,0,l),
(1006,-240,l),
(1090,-240,l),
(1090,84,l),
(990,84,l),
(990,1080,l),
(336,1080,l),
(318,674,o),
(304,488,o),
(266,322,cs),
(230,162,o),
(186,84,o),
(60,84,c),
(60,-240,l)
);
},
{
closed = 1;
nodes = (
(302,122,o),
(322,190,o),
(346,274,cs),
(392,436,o),
(410,764,o),
(422,996,c),
(906,996,l),
(906,84,l),
(260,84,l)
);
}
);
width = 1150;
},
{
layerId = "0DA27741-1AFD-43F2-A947-40AFBF8D6498";
shapes = (
{
closed = 1;
nodes = (
(316,-240,l),
(316,0,l),
(974,0,l),
(974,-240,l),
(1230,-240,l),
(1230,210,l),
(1120,210,l),
(1120,1080,l),
(286,1080,l),
(276,870,o),
(264,662,o),
(240,484,cs),
(212,278,o),
(174,210,o),
(60,210,c),
(60,-240,l)
);
},
{
closed = 1;
nodes = (
(462,266,o),
(478,332,o),
(490,450,cs),
(502,572,o),
(514,724,o),
(522,870,c),
(848,870,l),
(848,210,l),
(408,210,l)
);
}
);
width = 1290;
},
{
associatedMasterId = "0DA27741-1AFD-43F2-A947-40AFBF8D6498";
layerId = "A2873047-0ED6-4C67-9B4D-3870B51BD5C6";
width = 1200;
},
{
associatedMasterId = "0DA27741-1AFD-43F2-A947-40AFBF8D6498";
layerId = "55314CA7-5524-4D70-B802-98D4FAE25636";
width = 1126;
},
{
associatedMasterId = "0DA27741-1AFD-43F2-A947-40AFBF8D6498";
layerId = "13A3DD5D-E91B-4961-8595-F8141D3FA442";
width = 1188;
}
);
unicode = 1076;
},
{
glyphname = "zhe-cy";
kernLeft = x;
kernRight = x;
lastChange = "2020-02-20 18:21:12 +0000";
layers = (
{
layerId = "CAA188E2-8C62-414B-93AE-B576BEB044DB";
shapes = (
{
closed = 1;
nodes = (
(120,0,l),
(612,540,l),
(612,0,l),
(696,0,l),
(696,540,l),
(1188,0,l),
(1288,0,l),
(792,540,l),
(1272,1080,l),
(1172,1080,l),
(696,540,l),
(696,1080,l),
(612,1080,l),
(612,540,l),
(136,1080,l),
(36,1080,l),
(516,540,l),
(20,0,l)
);
}
);
width = 1308;
},
{
layerId = "0DA27741-1AFD-43F2-A947-40AFBF8D6498";
shapes = (
{
closed = 1;
nodes = (
(334,0,l),
(668,520,l),
(668,0,l),
(908,0,l),
(908,520,l),
(1242,0,l),
(1556,0,l),
(1180,540,l),
(1530,1080,l),
(1234,1080,l),
(908,560,l),
(908,1080,l),
(668,1080,l),
(668,560,l),
(342,1080,l),
(46,1080,l),
(396,540,l),
(20,0,l)
);
}
);
width = 1576;
},
{
associatedMasterId = "0DA27741-1AFD-43F2-A947-40AFBF8D6498";
layerId = "A2873047-0ED6-4C67-9B4D-3870B51BD5C6";
width = 1200;
},
{
associatedMasterId = "0DA27741-1AFD-43F2-A947-40AFBF8D6498";
layerId = "55314CA7-5524-4D70-B802-98D4FAE25636";
width = 1490;
},
{
associatedMasterId = "0DA27741-1AFD-43F2-A947-40AFBF8D6498";
layerId = "13A3DD5D-E91B-4961-8595-F8141D3FA442";
width = 1246;
}
);
metricLeft = x;
metricRight = x;
unicode = 1078;
},
{
glyphname = "ze-cy";
kernLeft = x;
kernRight = "ze-cy";
lastChange = "2020-02-20 18:21:12 +0000";
layers = (
{
background = {
shapes = (
{
closed = 1;
nodes = (
(176,866,l),
(212,912,o),
(250,942,o),
(302,970,cs),
(370,1006,o),
(430,1026,o),
(524,1026,cs),
(602,1026,o),
(656,1012,o),
(708,980,cs),
(782,932,o),
(804,870,o),
(804,808,cs),
(804,714,o),
(752,664,o),
(708,638,cs),
(654,606,o),
(594,600,o),
(514,600,c),
(374,600,l),
(374,518,l),
(514,518,l),
(594,518,o),
(684,508,o),
(734,482,cs),
(794,452,o),
(828,382,o),
(828,302,cs),
(828,226,o),
(800,158,o),
(722,106,cs),
(664,68,o),
(606,54,o),
(532,54,cs),
(408,54,o),
(324,92,o),
(270,128,cs),
(200,176,o),
(160,240,o),
(130,298,c),
(60,258,l),
(94,192,o),
(136,120,o),
(222,60,cs),
(304,2,o),
(404,-30,o),
(536,-30,cs),
(628,-30,o),
(690,-14,o),
(756,26,cs),
(858,88,o),
(914,182,o),
(914,294,cs),
(914,398,o),
(866,520,o),
(754,562,c),
(838,612,o),
(890,692,o),
(890,806,cs),
(890,906,o),
(848,994,o),
(752,1054,cs),
(678,1100,o),
(612,1110,o),
(532,1110,cs),
(410,1110,o),
(332,1086,o),
(264,1050,cs),
(196,1014,o),
(146,968,o),
(110,922,c)
);
}
);
};
layerId = "CAA188E2-8C62-414B-93AE-B576BEB044DB";
shapes = (
{
closed = 1;
nodes = (
(754,-30,o),
(914,100,o),
(914,292,cs),
(914,416,o),
(848,564,o),
(686,576,c),
(698,536,l),
(814,580,o),
(890,668,o),
(890,806,cs),
(890,992,o),
(742,1110,o),
(534,1110,cs),
(352,1110,o),
(210,1048,o),
(110,922,c),
(176,866,l),
(252,962,o),
(380,1026,o),
(524,1026,cs),
(678,1026,o),
(804,952,o),
(804,804,cs),
(804,674,o),
(700,600,o),
(532,600,cs),
(374,600,l),
(374,518,l),
(534,518,ls),
(754,518,o),
(828,442,o),
(828,300,cs),
(828,146,o),
(704,54,o),
(520,54,cs),
(344,54,o),
(210,138,o),
(130,298,c),
(60,258,l),
(150,76,o),
(306,-30,o),
(532,-30,cs)
);
}
);
width = 994;
},
{
background = {
shapes = (
{
closed = 1;
nodes = (
(240,754,l),
(274,778,o),
(314,802,o),
(346,816,cs),
(394,838,o),
(462,858,o),
(522,858,cs),
(556,858,o),
(586,852,o),
(608,840,cs),
(644,820,o),
(654,790,o),
(654,758,cs),
(654,720,o),
(638,678,o),
(562,668,cs),
(532,664,o),
(484,662,o),
(452,662,cs),
(388,662,l),
(388,450,l),
(452,450,ls),
(488,450,o),
(550,452,o),
(582,450,cs),
(642,446,o),
(692,410,o),
(692,348,cs),
(692,310,o),
(672,272,o),
(630,248,cs),
(602,232,o),
(572,224,o),
(528,224,cs),
(480,224,o),
(408,234,o),
(350,270,cs),
(324,286,o),
(280,322,o),
(254,348,c),
(40,204,l),
(76,150,o),
(158,76,o),
(228,38,cs),
(302,-2,o),
(402,-30,o),
(522,-30,cs),
(606,-30,o),
(716,-16,o),
(812,44,cs),
(920,112,o),
(970,210,o),
(970,324,cs),
(970,428,o),
(928,512,o),
(858,568,c),
(912,638,o),
(934,710,o),
(934,784,cs),
(934,892,o),
(886,980,o),
(804,1034,cs),
(722,1090,o),
(602,1110,o),
(520,1110,cs),
(434,1110,o),
(352,1088,o),
(282,1058,cs),
(200,1022,o),
(148,988,o),
(90,940,c)
);
}
);
};
layerId = "0DA27741-1AFD-43F2-A947-40AFBF8D6498";
shapes = (
{
closed = 1;
nodes = (
(762,-30,o),
(970,92,o),
(970,324,cs),
(970,450,o),
(908,548,o),
(808,600,c),
(810,514,l),
(900,602,o),
(934,690,o),
(934,784,cs),
(934,1002,o),
(738,1110,o),
(530,1110,cs),
(366,1110,o),
(212,1042,o),
(90,940,c),
(240,754,l),
(320,810,o),
(422,858,o),
(518,858,cs),
(590,858,o),
(654,832,o),
(654,758,cs),
(654,668,o),
(564,662,o),
(452,662,cs),
(388,662,l),
(388,450,l),
(452,450,ls),
(564,450,o),
(692,464,o),
(692,352,cs),
(692,274,o),
(628,224,o),
(520,224,cs),
(416,224,o),
(330,270,o),
(254,348,c),
(40,204,l),
(138,58,o),
(320,-30,o),
(522,-30,cs)
);
}
);
width = 1050;
},
{
associatedMasterId = "0DA27741-1AFD-43F2-A947-40AFBF8D6498";
layerId = "A2873047-0ED6-4C67-9B4D-3870B51BD5C6";
width = 1200;
},
{
associatedMasterId = "0DA27741-1AFD-43F2-A947-40AFBF8D6498";
layerId = "55314CA7-5524-4D70-B802-98D4FAE25636";
width = 902;
},
{
associatedMasterId = "0DA27741-1AFD-43F2-A947-40AFBF8D6498";
layerId = "13A3DD5D-E91B-4961-8595-F8141D3FA442";
width = 1152;
}
);
metricRight = o;
unicode = 1079;
},
{
glyphname = "ii-cy";
kernLeft = n;
kernRight = u;
lastChange = "2020-02-20 18:21:12 +0000";
layers = (
{
layerId = "CAA188E2-8C62-414B-93AE-B576BEB044DB";
shapes = (
{
closed = 1;
nodes = (
(868,1080,l),
(224,148,l),
(224,1080,l),
(140,1080,l),
(140,0,l),
(218,0,l),
(862,932,l),
(862,0,l),
(946,0,l),
(946,1080,l)
);
}
);
width = 1086;
},
{
layerId = "0DA27741-1AFD-43F2-A947-40AFBF8D6498";
shapes = (
{
closed = 1;
nodes = (
(888,1080,l),
(398,442,l),
(398,1080,l),
(138,1080,l),
(138,0,l),
(354,0,l),
(842,660,l),
(842,0,l),
(1102,0,l),
(1102,1080,l)
);
}
);
width = 1242;
},
{
associatedMasterId = "0DA27741-1AFD-43F2-A947-40AFBF8D6498";
layerId = "A2873047-0ED6-4C67-9B4D-3870B51BD5C6";
width = 1200;
},
{
associatedMasterId = "0DA27741-1AFD-43F2-A947-40AFBF8D6498";
layerId = "55314CA7-5524-4D70-B802-98D4FAE25636";
width = 1176;
},
{
associatedMasterId = "0DA27741-1AFD-43F2-A947-40AFBF8D6498";
layerId = "13A3DD5D-E91B-4961-8595-F8141D3FA442";
width = 1196;
}
);
metricLeft = n;
metricRight = u;
unicode = 1080;
},
{
glyphname = "ka-cy";
kernLeft = k;
kernRight = k;
lastChange = "2022-05-29 10:21:18 +0000";
layers = (
{
layerId = "CAA188E2-8C62-414B-93AE-B576BEB044DB";
shapes = (
{
closed = 1;
nodes = (
(224,0,l),
(224,520,l),
(832,0,l),
(976,0,l),
(326,540,l),
(890,1080,l),
(764,1080,l),
(224,560,l),
(224,1080,l),
(140,1080,l),
(140,0,l)
);
}
);
width = 1000;
},
{
layerId = "0DA27741-1AFD-43F2-A947-40AFBF8D6498";
shapes = (
{
closed = 1;
nodes = (
(416,0,l),
(416,520,l),
(790,0,l),
(1144,0,l),
(728,540,l),
(1118,1080,l),
(782,1080,l),
(416,560,l),
(416,1080,l),
(140,1080,l),
(138,0,l)
);
}
);
width = 1111;
},
{
associatedMasterId = "0DA27741-1AFD-43F2-A947-40AFBF8D6498";
layerId = "A2873047-0ED6-4C67-9B4D-3870B51BD5C6";
width = 1200;
},
{
associatedMasterId = "0DA27741-1AFD-43F2-A947-40AFBF8D6498";
layerId = "55314CA7-5524-4D70-B802-98D4FAE25636";
width = 846;
},
{
associatedMasterId = "0DA27741-1AFD-43F2-A947-40AFBF8D6498";
layerId = "13A3DD5D-E91B-4961-8595-F8141D3FA442";
width = 1144;
}
);
metricLeft = k;
metricRight = k;
unicode = 1082;
},
{
glyphname = "el-cy";
kernLeft = o;
kernRight = u;
lastChange = "2020-02-20 18:21:12 +0000";
layers = (
{
layerId = "CAA188E2-8C62-414B-93AE-B576BEB044DB";
shapes = (
{
closed = 1;
nodes = (
(216,-30,o),
(248,32,o),
(276,172,cs),
(310,340,o),
(340,642,o),
(364,996,c),
(888,996,l),
(888,0,l),
(972,0,l),
(972,1080,l),
(278,1080,l),
(254,692,o),
(234,450,o),
(200,244,cs),
(182,132,o),
(162,58,o),
(40,80,c),
(40,0,l)
);
}
);
width = 1112;
},
{
layerId = "0DA27741-1AFD-43F2-A947-40AFBF8D6498";
shapes = (
{
closed = 1;
nodes = (
(300,-60,o),
(404,30,o),
(452,284,cs),
(478,418,o),
(500,686,o),
(512,826,c),
(818,826,l),
(818,0,l),
(1090,0,l),
(1090,1080,l),
(274,1080,l),
(260,826,o),
(240,552,o),
(208,380,cs),
(184,250,o),
(158,204,o),
(40,226,c),
(40,0,l)
);
}
);
width = 1230;
},
{
associatedMasterId = "0DA27741-1AFD-43F2-A947-40AFBF8D6498";
layerId = "A2873047-0ED6-4C67-9B4D-3870B51BD5C6";
width = 1200;
},
{
associatedMasterId = "0DA27741-1AFD-43F2-A947-40AFBF8D6498";
layerId = "55314CA7-5524-4D70-B802-98D4FAE25636";
width = 1100;
},
{
associatedMasterId = "0DA27741-1AFD-43F2-A947-40AFBF8D6498";
layerId = "13A3DD5D-E91B-4961-8595-F8141D3FA442";
width = 1184;
}
);
metricRight = u;
unicode = 1083;
},
{
glyphname = "em-cy";
kernLeft = m;
kernRight = u;
lastChange = "2020-02-20 18:21:12 +0000";
layers = (
{
layerId = "CAA188E2-8C62-414B-93AE-B576BEB044DB";
shapes = (
{
closed = 1;
nodes = (
(224,0,l),
(224,880,l),
(624,0,l),
(716,0,l),
(1116,880,l),
(1116,0,l),
(1200,0,l),
(1200,1080,l),
(1114,1080,l),
(670,104,l),
(226,1080,l),
(140,1080,l),
(140,0,l)
);
}
);
width = 1340;
},
{
layerId = "0DA27741-1AFD-43F2-A947-40AFBF8D6498";
shapes = (
{
closed = 1;
nodes = (
(398,0,l),
(398,538,l),
(686,0,l),
(782,0,l),
(1070,538,l),
(1070,0,l),
(1330,0,l),
(1330,1080,l),
(1110,1080,l),
(734,380,l),
(358,1080,l),
(138,1080,l),
(138,0,l)
);
}
);
width = 1470;
},
{
associatedMasterId = "0DA27741-1AFD-43F2-A947-40AFBF8D6498";
layerId = "A2873047-0ED6-4C67-9B4D-3870B51BD5C6";
width = 1200;
},
{
associatedMasterId = "0DA27741-1AFD-43F2-A947-40AFBF8D6498";
layerId = "55314CA7-5524-4D70-B802-98D4FAE25636";
width = 1382;
},
{
associatedMasterId = "0DA27741-1AFD-43F2-A947-40AFBF8D6498";
layerId = "13A3DD5D-E91B-4961-8595-F8141D3FA442";
width = 1230;
}
);
metricLeft = m;
metricRight = u;
unicode = 1084;
},
{
glyphname = "en-cy";
kernLeft = n;
kernRight = u;
lastChange = "2020-02-20 18:21:12 +0000";
layers = (
{
layerId = "CAA188E2-8C62-414B-93AE-B576BEB044DB";
shapes = (
{
closed = 1;
nodes = (
(224,0,l),
(224,498,l),
(916,498,l),
(916,0,l),
(1000,0,l),
(1000,1080,l),
(916,1080,l),
(916,582,l),
(224,582,l),
(224,1080,l),
(140,1080,l),
(140,0,l)
);
}
);
width = 1140;
},
{
layerId = "0DA27741-1AFD-43F2-A947-40AFBF8D6498";
shapes = (
{
closed = 1;
nodes = (
(410,0,l),
(410,414,l),
(854,414,l),
(854,0,l),
(1126,0,l),
(1126,1080,l),
(854,1080,l),
(854,668,l),
(410,668,l),
(410,1080,l),
(138,1080,l),
(138,0,l)
);
}
);
width = 1266;
},
{
associatedMasterId = "0DA27741-1AFD-43F2-A947-40AFBF8D6498";
layerId = "A2873047-0ED6-4C67-9B4D-3870B51BD5C6";
width = 1200;
},
{
associatedMasterId = "0DA27741-1AFD-43F2-A947-40AFBF8D6498";
layerId = "55314CA7-5524-4D70-B802-98D4FAE25636";
width = 1176;
},
{
associatedMasterId = "0DA27741-1AFD-43F2-A947-40AFBF8D6498";
layerId = "13A3DD5D-E91B-4961-8595-F8141D3FA442";
width = 1196;
}
);
metricLeft = m;
metricRight = u;
unicode = 1085;
},
{
glyphname = "pe-cy";
kernLeft = n;
kernRight = u;
lastChange = "2020-02-20 18:21:12 +0000";
layers = (
{
layerId = "CAA188E2-8C62-414B-93AE-B576BEB044DB";
shapes = (
{
closed = 1;
nodes = (
(224,0,l),
(224,996,l),
(862,996,l),
(862,0,l),
(946,0,l),
(946,1080,l),
(140,1080,l),
(140,0,l)
);
}
);
width = 1086;
},
{
layerId = "0DA27741-1AFD-43F2-A947-40AFBF8D6498";
shapes = (
{
closed = 1;
nodes = (
(410,0,l),
(410,826,l),
(830,826,l),
(830,0,l),
(1102,0,l),
(1102,1080,l),
(138,1080,l),
(138,0,l)
);
}
);
width = 1242;
},
{
associatedMasterId = "0DA27741-1AFD-43F2-A947-40AFBF8D6498";
layerId = "A2873047-0ED6-4C67-9B4D-3870B51BD5C6";
width = 1200;
},
{
associatedMasterId = "0DA27741-1AFD-43F2-A947-40AFBF8D6498";
layerId = "55314CA7-5524-4D70-B802-98D4FAE25636";
width = 1176;
},
{
associatedMasterId = "0DA27741-1AFD-43F2-A947-40AFBF8D6498";
layerId = "13A3DD5D-E91B-4961-8595-F8141D3FA442";
width = 1196;
}
);
metricLeft = n;
metricRight = u;
unicode = 1087;
},
{
glyphname = "te-cy";
kernLeft = te;
kernRight = r;
lastChange = "2020-02-20 18:21:12 +0000";
layers = (
{
layerId = "CAA188E2-8C62-414B-93AE-B576BEB044DB";
shapes = (
{
closed = 1;
nodes = (
(532,0,l),
(532,996,l),
(930,996,l),
(930,1080,l),
(50,1080,l),
(50,996,l),
(448,996,l),
(448,0,l)
);
}
);
width = 980;
},
{
layerId = "0DA27741-1AFD-43F2-A947-40AFBF8D6498";
shapes = (
{
closed = 1;
nodes = (
(676,0,l),
(676,840,l),
(1030,840,l),
(1030,1080,l),
(50,1080,l),
(50,840,l),
(404,840,l),
(404,0,l)
);
}
);
width = 1080;
},
{
associatedMasterId = "0DA27741-1AFD-43F2-A947-40AFBF8D6498";
layerId = "A2873047-0ED6-4C67-9B4D-3870B51BD5C6";
width = 1200;
},
{
associatedMasterId = "0DA27741-1AFD-43F2-A947-40AFBF8D6498";
layerId = "55314CA7-5524-4D70-B802-98D4FAE25636";
width = 876;
},
{
associatedMasterId = "0DA27741-1AFD-43F2-A947-40AFBF8D6498";
layerId = "13A3DD5D-E91B-4961-8595-F8141D3FA442";
width = 1148;
}
);
metricRight = r;
unicode = 1090;
},
{
glyphname = "ef-cy";
kernLeft = o;
kernRight = o;
lastChange = "2020-02-20 18:21:12 +0000";
layers = (
{
layerId = "CAA188E2-8C62-414B-93AE-B576BEB044DB";
shapes = (
{
closed = 1;
nodes = (
(740,-450,l),
(740,-22,l),
(1056,-72,o),
(1316,144,o),
(1316,538,cs),
(1316,932,o),
(1056,1152,o),
(740,1102,c),
(740,1438,l),
(656,1438,l),
(656,1102,l),
(340,1152,o),
(80,932,o),
(80,538,cs),
(80,144,o),
(340,-72,o),
(656,-22,c),
(656,-450,l)
);
},
{
closed = 1;
nodes = (
(440,26,o),
(170,148,o),
(170,538,cs),
(170,928,o),
(440,1054,o),
(656,1018,c),
(656,62,l)
);
},
{
closed = 1;
nodes = (
(740,1018,l),
(956,1054,o),
(1226,928,o),
(1226,538,cs),
(1226,148,o),
(956,26,o),
(740,62,c)
);
}
);
width = 1396;
},
{
layerId = "0DA27741-1AFD-43F2-A947-40AFBF8D6498";
shapes = (
{
closed = 1;
nodes = (
(884,-450,l),
(884,-18,l),
(1200,-68,o),
(1448,140,o),
(1448,540,cs),
(1448,940,o),
(1200,1148,o),
(884,1098,c),
(884,1420,l),
(644,1420,l),
(644,1098,l),
(328,1148,o),
(80,940,o),
(80,540,cs),
(80,140,o),
(328,-68,o),
(644,-18,c),
(644,-450,l)
);
},
{
closed = 1;
nodes = (
(438,190,o),
(356,334,o),
(356,540,cs),
(356,746,o),
(428,890,o),
(644,854,c),
(644,224,l)
);
},
{
closed = 1;
nodes = (
(884,854,l),
(1100,890,o),
(1172,752,o),
(1172,540,cs),
(1172,328,o),
(1090,190,o),
(884,224,c)
);
}
);
width = 1528;
},
{
associatedMasterId = "0DA27741-1AFD-43F2-A947-40AFBF8D6498";
layerId = "A2873047-0ED6-4C67-9B4D-3870B51BD5C6";
width = 1200;
},
{
associatedMasterId = "0DA27741-1AFD-43F2-A947-40AFBF8D6498";
layerId = "55314CA7-5524-4D70-B802-98D4FAE25636";
width = 1388;
},
{
associatedMasterId = "0DA27741-1AFD-43F2-A947-40AFBF8D6498";
layerId = "13A3DD5D-E91B-4961-8595-F8141D3FA442";
width = 1230;
}
);
metricLeft = o;
metricRight = o;
unicode = 1092;
},
{
glyphname = "che-cy";
kernLeft = n;
kernRight = u;
lastChange = "2020-02-20 18:21:12 +0000";
layers = (
{
layerId = "CAA188E2-8C62-414B-93AE-B576BEB044DB";
shapes = (
{
closed = 1;
nodes = (
(906,0,l),
(906,1080,l),
(822,1080,l),
(822,512,l),
(746,460,o),
(628,430,o),
(514,430,cs),
(312,430,o),
(202,524,o),
(174,696,cs),
(166,746,o),
(164,804,o),
(164,858,cs),
(164,1080,l),
(80,1080,l),
(80,858,ls),
(80,830,o),
(80,718,o),
(100,634,cs),
(142,454,o),
(286,356,o),
(502,356,cs),
(634,356,o),
(752,392,o),
(822,428,c),
(822,0,l)
);
}
);
width = 1046;
},
{
layerId = "0DA27741-1AFD-43F2-A947-40AFBF8D6498";
shapes = (
{
closed = 1;
nodes = (
(1032,0,l),
(1032,1080,l),
(758,1080,l),
(758,596,l),
(712,560,o),
(648,532,o),
(556,532,cs),
(448,532,o),
(394,570,o),
(370,664,cs),
(356,720,o),
(356,784,o),
(356,810,cs),
(356,1080,l),
(80,1080,l),
(80,810,ls),
(80,770,o),
(80,670,o),
(96,588,cs),
(134,396,o),
(266,292,o),
(490,292,cs),
(588,292,o),
(682,312,o),
(758,350,c),
(758,0,l)
);
}
);
width = 1172;
},
{
associatedMasterId = "0DA27741-1AFD-43F2-A947-40AFBF8D6498";
layerId = "A2873047-0ED6-4C67-9B4D-3870B51BD5C6";
width = 1200;
},
{
associatedMasterId = "0DA27741-1AFD-43F2-A947-40AFBF8D6498";
layerId = "55314CA7-5524-4D70-B802-98D4FAE25636";
width = 1026;
},
{
associatedMasterId = "0DA27741-1AFD-43F2-A947-40AFBF8D6498";
layerId = "13A3DD5D-E91B-4961-8595-F8141D3FA442";
width = 1172;
}
);
metricLeft = d;
metricRight = u;
unicode = 1095;
},
{
glyphname = "tse-cy";
kernLeft = n;
kernRight = "tse-cy";
lastChange = "2020-02-20 18:21:12 +0000";
layers = (
{
layerId = "CAA188E2-8C62-414B-93AE-B576BEB044DB";
shapes = (
{
closed = 1;
nodes = (
(1168,-160,l),
(1168,84,l),
(946,84,l),
(946,1080,l),
(862,1080,l),
(862,84,l),
(224,84,l),
(224,1080,l),
(140,1080,l),
(140,0,l),
(1084,0,l),
(1084,-160,l)
);
}
);
width = 1188;
},
{
layerId = "0DA27741-1AFD-43F2-A947-40AFBF8D6498";
shapes = (
{
closed = 1;
nodes = (
(1308,-240,l),
(1308,240,l),
(1102,240,l),
(1102,1080,l),
(830,1080,l),
(830,254,l),
(410,254,l),
(410,1080,l),
(138,1080,l),
(138,0,l),
(1036,0,l),
(1036,-240,l)
);
}
);
width = 1328;
},
{
associatedMasterId = "0DA27741-1AFD-43F2-A947-40AFBF8D6498";
layerId = "A2873047-0ED6-4C67-9B4D-3870B51BD5C6";
width = 1200;
},
{
associatedMasterId = "0DA27741-1AFD-43F2-A947-40AFBF8D6498";
layerId = "55314CA7-5524-4D70-B802-98D4FAE25636";
width = 1268;
},
{
associatedMasterId = "0DA27741-1AFD-43F2-A947-40AFBF8D6498";
layerId = "13A3DD5D-E91B-4961-8595-F8141D3FA442";
width = 1210;
}
);
metricLeft = n;
unicode = 1094;
},
{
glyphname = "sha-cy";
kernLeft = n;
kernRight = u;
lastChange = "2020-02-20 18:21:12 +0000";
layers = (
{
layerId = "CAA188E2-8C62-414B-93AE-B576BEB044DB";
shapes = (
{
closed = 1;
nodes = (
(1334,0,l),
(1334,1080,l),
(1250,1080,l),
(1250,84,l),
(780,84,l),
(780,1080,l),
(696,1080,l),
(696,84,l),
(224,84,l),
(224,1080,l),
(140,1080,l),
(140,0,l)
);
}
);
width = 1474;
},
{
layerId = "0DA27741-1AFD-43F2-A947-40AFBF8D6498";
shapes = (
{
closed = 1;
nodes = (
(1462,0,l),
(1462,1080,l),
(1202,1080,l),
(1202,240,l),
(930,240,l),
(930,1080,l),
(670,1080,l),
(670,240,l),
(398,240,l),
(398,1080,l),
(138,1080,l),
(138,0,l)
);
}
);
width = 1602;
},
{
associatedMasterId = "0DA27741-1AFD-43F2-A947-40AFBF8D6498";
layerId = "A2873047-0ED6-4C67-9B4D-3870B51BD5C6";
width = 1200;
},
{
associatedMasterId = "0DA27741-1AFD-43F2-A947-40AFBF8D6498";
layerId = "55314CA7-5524-4D70-B802-98D4FAE25636";
width = 1700;
},
{
associatedMasterId = "0DA27741-1AFD-43F2-A947-40AFBF8D6498";
layerId = "13A3DD5D-E91B-4961-8595-F8141D3FA442";
width = 1280;
}
);
metricLeft = m;
metricRight = u;
unicode = 1096;
},
{
glyphname = "shcha-cy";
kernLeft = n;
kernRight = "tse-cy";
lastChange = "2020-02-20 18:21:12 +0000";
layers = (
{
layerId = "CAA188E2-8C62-414B-93AE-B576BEB044DB";
shapes = (
{
closed = 1;
nodes = (
(1502,-160,l),
(1502,84,l),
(1334,84,l),
(1334,1080,l),
(1250,1080,l),
(1250,84,l),
(780,84,l),
(780,1080,l),
(696,1080,l),
(696,84,l),
(224,84,l),
(224,1080,l),
(140,1080,l),
(140,0,l),
(1418,0,l),
(1418,-160,l)
);
}
);
width = 1522;
},
{
layerId = "0DA27741-1AFD-43F2-A947-40AFBF8D6498";
shapes = (
{
closed = 1;
nodes = (
(1550,-240,l),
(1550,240,l),
(1462,240,l),
(1462,1080,l),
(1202,1080,l),
(1202,240,l),
(930,240,l),
(930,1080,l),
(670,1080,l),
(670,240,l),
(398,240,l),
(398,1080,l),
(138,1080,l),
(138,0,l),
(1278,0,l),
(1278,-240,l)
);
}
);
width = 1570;
},
{
associatedMasterId = "0DA27741-1AFD-43F2-A947-40AFBF8D6498";
layerId = "A2873047-0ED6-4C67-9B4D-3870B51BD5C6";
width = 1200;
},
{
associatedMasterId = "0DA27741-1AFD-43F2-A947-40AFBF8D6498";
layerId = "55314CA7-5524-4D70-B802-98D4FAE25636";
width = 1768;
},
{
associatedMasterId = "0DA27741-1AFD-43F2-A947-40AFBF8D6498";
layerId = "13A3DD5D-E91B-4961-8595-F8141D3FA442";
width = 1290;
}
);
metricLeft = n;
metricRight = "tse-cy";
unicode = 1097;
},
{
glyphname = "dzhe-cy";
kernLeft = "sha-cy";
kernRight = "sha-cy";
lastChange = "2020-02-20 18:21:12 +0000";
layers = (
{
layerId = "CAA188E2-8C62-414B-93AE-B576BEB044DB";
shapes = (
{
closed = 1;
nodes = (
(612,-240,l),
(612,0,l),
(946,0,l),
(946,1080,l),
(862,1080,l),
(862,84,l),
(224,84,l),
(224,1080,l),
(140,1080,l),
(140,0,l),
(528,0,l),
(528,-240,l)
);
}
);
width = 1086;
},
{
layerId = "0DA27741-1AFD-43F2-A947-40AFBF8D6498";
shapes = (
{
closed = 1;
nodes = (
(768,-240,l),
(768,0,l),
(1102,0,l),
(1102,1080,l),
(830,1080,l),
(830,254,l),
(410,254,l),
(410,1080,l),
(138,1080,l),
(138,0,l),
(496,0,l),
(496,-240,l)
);
}
);
width = 1242;
},
{
associatedMasterId = "0DA27741-1AFD-43F2-A947-40AFBF8D6498";
layerId = "A2873047-0ED6-4C67-9B4D-3870B51BD5C6";
width = 1200;
},
{
associatedMasterId = "0DA27741-1AFD-43F2-A947-40AFBF8D6498";
layerId = "55314CA7-5524-4D70-B802-98D4FAE25636";
width = 1176;
},
{
associatedMasterId = "0DA27741-1AFD-43F2-A947-40AFBF8D6498";
layerId = "13A3DD5D-E91B-4961-8595-F8141D3FA442";
width = 1196;
}
);
metricLeft = "sha-cy";
metricRight = "sha-cy";
unicode = 1119;
},
{
glyphname = "softsign-cy";
kernLeft = n;
kernRight = b;
lastChange = "2020-02-20 18:21:12 +0000";
layers = (
{
layerId = "CAA188E2-8C62-414B-93AE-B576BEB044DB";
shapes = (
{
closed = 1;
nodes = (
(538,0,ls),
(600,0,o),
(654,2,o),
(710,14,cs),
(834,40,o),
(944,140,o),
(944,322,cs),
(944,526,o),
(820,608,o),
(676,632,cs),
(630,640,o),
(582,642,o),
(518,642,cs),
(226,642,l),
(226,1080,l),
(140,1080,l),
(142,0,l)
);
},
{
closed = 1;
nodes = (
(226,558,l),
(514,558,ls),
(568,558,o),
(628,556,o),
(678,546,cs),
(788,524,o),
(854,466,o),
(854,322,cs),
(854,172,o),
(774,120,o),
(696,98,cs),
(646,84,o),
(568,84,o),
(514,84,cs),
(226,84,l)
);
}
);
width = 1024;
},
{
layerId = "0DA27741-1AFD-43F2-A947-40AFBF8D6498";
shapes = (
{
closed = 1;
nodes = (
(584,0,ls),
(644,0,o),
(738,2,o),
(790,14,cs),
(978,58,o),
(1080,174,o),
(1080,366,cs),
(1080,566,o),
(978,682,o),
(788,724,cs),
(736,734,o),
(644,736,o),
(584,736,cs),
(410,736,l),
(410,1080,l),
(138,1080,l),
(138,0,l)
);
},
{
closed = 1;
nodes = (
(410,526,l),
(614,526,ls),
(636,526,o),
(666,524,o),
(694,516,cs),
(752,500,o),
(804,442,o),
(804,366,cs),
(804,296,o),
(754,236,o),
(698,220,cs),
(668,212,o),
(638,210,o),
(614,210,cs),
(410,210,l)
);
}
);
width = 1160;
},
{
associatedMasterId = "0DA27741-1AFD-43F2-A947-40AFBF8D6498";
layerId = "A2873047-0ED6-4C67-9B4D-3870B51BD5C6";
width = 1200;
},
{
associatedMasterId = "0DA27741-1AFD-43F2-A947-40AFBF8D6498";
layerId = "55314CA7-5524-4D70-B802-98D4FAE25636";
width = 1002;
},
{
associatedMasterId = "0DA27741-1AFD-43F2-A947-40AFBF8D6498";
layerId = "13A3DD5D-E91B-4961-8595-F8141D3FA442";
width = 1168;
}
);
metricLeft = n;
metricRight = b;
unicode = 1100;
},
{
glyphname = "yeru-cy";
kernLeft = n;
kernRight = u;
lastChange = "2020-02-20 18:21:12 +0000";
layers = (
{
layerId = "CAA188E2-8C62-414B-93AE-B576BEB044DB";
shapes = (
{
closed = 1;
nodes = (
(478,0,ls),
(540,0,o),
(594,2,o),
(650,14,cs),
(774,40,o),
(884,140,o),
(884,322,cs),
(884,526,o),
(760,606,o),
(616,632,cs),
(570,640,o),
(522,642,o),
(458,642,cs),
(226,642,l),
(226,1080,l),
(140,1080,l),
(142,0,l)
);
},
{
closed = 1;
nodes = (
(226,558,l),
(454,558,ls),
(508,558,o),
(568,556,o),
(618,546,cs),
(728,524,o),
(794,466,o),
(794,322,cs),
(794,172,o),
(714,120,o),
(636,98,cs),
(586,84,o),
(508,84,o),
(454,84,cs),
(226,84,l)
);
},
{
alignment = -1;
pos = (864,0);
ref = idotless;
}
);
width = 1248;
},
{
layerId = "0DA27741-1AFD-43F2-A947-40AFBF8D6498";
shapes = (
{
closed = 1;
nodes = (
(508,0,ls),
(568,0,o),
(662,2,o),
(714,14,cs),
(902,58,o),
(1004,174,o),
(1004,366,cs),
(1004,566,o),
(902,682,o),
(712,724,cs),
(660,734,o),
(568,736,o),
(508,736,cs),
(410,736,l),
(410,1080,l),
(138,1080,l),
(138,0,l)
);
},
{
closed = 1;
nodes = (
(410,526,l),
(538,526,ls),
(560,526,o),
(590,524,o),
(618,516,cs),
(676,500,o),
(728,442,o),
(728,366,cs),
(728,296,o),
(678,236,o),
(622,220,cs),
(592,212,o),
(562,210,o),
(538,210,cs),
(410,210,l)
);
},
{
alignment = -1;
pos = (952,0);
ref = idotless;
}
);
width = 1524;
},
{
associatedMasterId = "0DA27741-1AFD-43F2-A947-40AFBF8D6498";
layerId = "A2873047-0ED6-4C67-9B4D-3870B51BD5C6";
width = 1200;
},
{
associatedMasterId = "0DA27741-1AFD-43F2-A947-40AFBF8D6498";
layerId = "55314CA7-5524-4D70-B802-98D4FAE25636";
width = 1416;
},
{
associatedMasterId = "0DA27741-1AFD-43F2-A947-40AFBF8D6498";
layerId = "13A3DD5D-E91B-4961-8595-F8141D3FA442";
width = 1234;
}
);
metricLeft = n;
metricRight = u;
unicode = 1099;
},
{
glyphname = "hardsign-cy";
kernRight = b;
lastChange = "2020-02-20 18:21:12 +0000";
layers = (
{
layerId = "CAA188E2-8C62-414B-93AE-B576BEB044DB";
shapes = (
{
closed = 1;
nodes = (
(578,0,ls),
(640,0,o),
(694,2,o),
(750,14,cs),
(874,40,o),
(984,140,o),
(984,322,cs),
(984,526,o),
(860,608,o),
(716,632,cs),
(670,640,o),
(622,642,o),
(558,642,cs),
(266,642,l),
(266,1080,l),
(40,1080,l),
(40,996,l),
(180,996,l),
(182,0,l)
);
},
{
closed = 1;
nodes = (
(266,558,l),
(554,558,ls),
(608,558,o),
(668,556,o),
(718,546,cs),
(828,524,o),
(894,466,o),
(894,322,cs),
(894,172,o),
(814,120,o),
(736,98,cs),
(686,84,o),
(608,84,o),
(554,84,cs),
(266,84,l)
);
}
);
width = 1064;
},
{
layerId = "0DA27741-1AFD-43F2-A947-40AFBF8D6498";
shapes = (
{
closed = 1;
nodes = (
(646,0,ls),
(706,0,o),
(800,2,o),
(852,14,cs),
(1040,58,o),
(1142,174,o),
(1142,366,cs),
(1142,566,o),
(1040,682,o),
(850,724,cs),
(798,734,o),
(706,736,o),
(646,736,cs),
(472,736,l),
(472,1080,l),
(40,1080,l),
(40,870,l),
(200,870,l),
(200,0,l)
);
},
{
closed = 1;
nodes = (
(472,526,l),
(676,526,ls),
(698,526,o),
(728,524,o),
(756,516,cs),
(814,500,o),
(866,442,o),
(866,366,cs),
(866,296,o),
(816,236,o),
(760,220,cs),
(730,212,o),
(700,210,o),
(676,210,cs),
(472,210,l)
);
}
);
width = 1222;
},
{
associatedMasterId = "0DA27741-1AFD-43F2-A947-40AFBF8D6498";
layerId = "A2873047-0ED6-4C67-9B4D-3870B51BD5C6";
width = 1200;
},
{
associatedMasterId = "0DA27741-1AFD-43F2-A947-40AFBF8D6498";
layerId = "55314CA7-5524-4D70-B802-98D4FAE25636";
width = 1102;
},
{
associatedMasterId = "0DA27741-1AFD-43F2-A947-40AFBF8D6498";
layerId = "13A3DD5D-E91B-4961-8595-F8141D3FA442";
width = 1184;
}
);
metricRight = b;
unicode = 1098;
},
{
glyphname = "lje-cy";
kernLeft = n;
kernRight = b;
lastChange = "2020-02-20 18:21:12 +0000";
layers = (
{
layerId = "CAA188E2-8C62-414B-93AE-B576BEB044DB";
shapes = (
{
closed = 1;
nodes = (
(216,-30,o),
(248,32,o),
(276,172,cs),
(310,340,o),
(340,642,o),
(364,996,c),
(826,996,l),
(828,0,l),
(1164,0,ls),
(1198,0,o),
(1274,0,o),
(1336,14,cs),
(1458,42,o),
(1570,134,o),
(1570,324,cs),
(1570,530,o),
(1436,610,o),
(1302,632,cs),
(1244,642,o),
(1182,642,o),
(1144,642,cs),
(912,642,l),
(912,1080,l),
(278,1080,l),
(254,692,o),
(236,450,o),
(200,244,cs),
(180,130,o),
(162,58,o),
(40,80,c),
(40,0,l)
);
},
{
closed = 1;
nodes = (
(912,558,l),
(1140,558,ls),
(1170,558,o),
(1244,558,o),
(1304,546,cs),
(1414,524,o),
(1480,466,o),
(1480,326,cs),
(1480,168,o),
(1396,118,o),
(1322,98,cs),
(1268,84,o),
(1202,84,o),
(1140,84,cs),
(912,84,l)
);
}
);
width = 1650;
},
{
layerId = "0DA27741-1AFD-43F2-A947-40AFBF8D6498";
shapes = (
{
closed = 1;
nodes = (
(300,-60,o),
(404,30,o),
(452,284,cs),
(478,418,o),
(500,686,o),
(512,826,c),
(778,826,l),
(778,0,l),
(1148,0,ls),
(1198,0,o),
(1282,0,o),
(1354,14,cs),
(1530,48,o),
(1644,172,o),
(1644,370,cs),
(1644,570,o),
(1526,690,o),
(1352,724,cs),
(1290,736,o),
(1228,736,o),
(1148,736,cs),
(1050,736,l),
(1050,1080,l),
(274,1080,l),
(260,826,o),
(240,552,o),
(208,380,cs),
(184,250,o),
(158,204,o),
(40,226,c),
(40,0,l)
);
},
{
closed = 1;
nodes = (
(1050,526,l),
(1178,526,ls),
(1200,526,o),
(1230,524,o),
(1258,516,cs),
(1314,500,o),
(1368,444,o),
(1368,368,cs),
(1368,296,o),
(1318,236,o),
(1262,220,cs),
(1232,212,o),
(1202,210,o),
(1178,210,cs),
(1050,210,l)
);
}
);
width = 1724;
},
{
associatedMasterId = "0DA27741-1AFD-43F2-A947-40AFBF8D6498";
layerId = "A2873047-0ED6-4C67-9B4D-3870B51BD5C6";
width = 1200;
},
{
associatedMasterId = "0DA27741-1AFD-43F2-A947-40AFBF8D6498";
layerId = "55314CA7-5524-4D70-B802-98D4FAE25636";
width = 1828;
},
{
associatedMasterId = "0DA27741-1AFD-43F2-A947-40AFBF8D6498";
layerId = "13A3DD5D-E91B-4961-8595-F8141D3FA442";
width = 1300;
}
);
metricLeft = "el-cy";
metricRight = "softsign-cy";
unicode = 1113;
},
{
glyphname = "nje-cy";
kernLeft = n;
kernRight = b;
lastChange = "2020-02-20 18:21:12 +0000";
layers = (
{
layerId = "CAA188E2-8C62-414B-93AE-B576BEB044DB";
shapes = (
{
closed = 1;
nodes = (
(224,0,l),
(224,558,l),
(744,558,l),
(746,0,l),
(1082,0,ls),
(1116,0,o),
(1192,0,o),
(1254,14,cs),
(1376,42,o),
(1488,134,o),
(1488,324,cs),
(1488,530,o),
(1354,610,o),
(1220,632,cs),
(1162,642,o),
(1100,642,o),
(1062,642,cs),
(830,642,l),
(830,1080,l),
(744,1080,l),
(744,642,l),
(224,642,l),
(224,1080,l),
(140,1080,l),
(140,0,l)
);
},
{
closed = 1;
nodes = (
(830,558,l),
(1058,558,ls),
(1088,558,o),
(1162,558,o),
(1222,546,cs),
(1332,524,o),
(1398,466,o),
(1398,326,cs),
(1398,168,o),
(1314,118,o),
(1240,98,cs),
(1186,84,o),
(1120,84,o),
(1058,84,cs),
(830,84,l)
);
}
);
width = 1568;
},
{
layerId = "0DA27741-1AFD-43F2-A947-40AFBF8D6498";
shapes = (
{
closed = 1;
nodes = (
(410,0,l),
(410,526,l),
(744,526,l),
(744,0,l),
(1114,0,ls),
(1164,0,o),
(1248,0,o),
(1320,14,cs),
(1496,48,o),
(1610,172,o),
(1610,370,cs),
(1610,570,o),
(1492,690,o),
(1318,724,cs),
(1256,736,o),
(1194,736,o),
(1114,736,cs),
(1016,736,l),
(1016,1080,l),
(744,1080,l),
(744,736,l),
(410,736,l),
(410,1080,l),
(138,1080,l),
(138,0,l)
);
},
{
closed = 1;
nodes = (
(1016,526,l),
(1144,526,ls),
(1166,526,o),
(1196,524,o),
(1224,516,cs),
(1280,500,o),
(1334,444,o),
(1334,368,cs),
(1334,296,o),
(1284,236,o),
(1228,220,cs),
(1198,212,o),
(1168,210,o),
(1144,210,cs),
(1016,210,l)
);
}
);
width = 1690;
},
{
associatedMasterId = "0DA27741-1AFD-43F2-A947-40AFBF8D6498";
layerId = "A2873047-0ED6-4C67-9B4D-3870B51BD5C6";
width = 1200;
},
{
associatedMasterId = "0DA27741-1AFD-43F2-A947-40AFBF8D6498";
layerId = "55314CA7-5524-4D70-B802-98D4FAE25636";
width = 1828;
},
{
associatedMasterId = "0DA27741-1AFD-43F2-A947-40AFBF8D6498";
layerId = "13A3DD5D-E91B-4961-8595-F8141D3FA442";
width = 1300;
}
);
metricLeft = "en-cy";
metricRight = "softsign-cy";
unicode = 1114;
},
{
glyphname = "ereversed-cy";
kernLeft = o;
kernRight = o;
lastChange = "2020-02-20 18:21:12 +0000";
layers = (
{
layerId = "CAA188E2-8C62-414B-93AE-B576BEB044DB";
shapes = (
{
closed = 1;
nodes = (
(816,-30,o),
(998,190,o),
(998,540,cs),
(998,886,o),
(822,1110,o),
(512,1110,cs),
(302,1110,o),
(136,1008,o),
(70,842,c),
(150,808,l),
(210,946,o),
(342,1026,o),
(504,1026,cs),
(762,1026,o),
(892,848,o),
(906,582,c),
(340,582,l),
(340,498,l),
(906,498,l),
(890,228,o),
(758,54,o),
(504,54,cs),
(346,54,o),
(218,128,o),
(152,270,c),
(70,234,l),
(160,60,o),
(308,-30,o),
(506,-30,cs)
);
}
);
width = 1078;
},
{
layerId = "0DA27741-1AFD-43F2-A947-40AFBF8D6498";
shapes = (
{
closed = 1;
nodes = (
(888,-30,o),
(1088,216,o),
(1088,538,cs),
(1088,868,o),
(878,1110,o),
(548,1110,cs),
(294,1110,o),
(110,972,o),
(62,750,c),
(334,678,l),
(368,794,o),
(452,856,o),
(560,856,cs),
(690,856,o),
(766,764,o),
(790,646,c),
(472,646,l),
(472,436,l),
(790,436,l),
(764,306,o),
(684,224,o),
(552,224,cs),
(430,224,o),
(372,282,o),
(340,386,c),
(62,328,l),
(124,98,o),
(302,-30,o),
(552,-30,cs)
);
}
);
width = 1168;
},
{
associatedMasterId = "0DA27741-1AFD-43F2-A947-40AFBF8D6498";
layerId = "A2873047-0ED6-4C67-9B4D-3870B51BD5C6";
width = 1200;
},
{
associatedMasterId = "0DA27741-1AFD-43F2-A947-40AFBF8D6498";
layerId = "55314CA7-5524-4D70-B802-98D4FAE25636";
width = 1146;
},
{
associatedMasterId = "0DA27741-1AFD-43F2-A947-40AFBF8D6498";
layerId = "13A3DD5D-E91B-4961-8595-F8141D3FA442";
width = 1192;
}
);
unicode = 1101;
},
{
glyphname = "iu-cy";
kernLeft = n;
kernRight = o;
lastChange = "2020-02-20 18:21:12 +0000";
layers = (
{
layerId = "CAA188E2-8C62-414B-93AE-B576BEB044DB";
shapes = (
{
closed = 1;
nodes = (
(1248,-30,o),
(1422,202,o),
(1422,542,cs),
(1422,876,o),
(1250,1110,o),
(926,1110,cs),
(626,1110,o),
(448,900,o),
(434,582,c),
(224,582,l),
(224,1080,l),
(140,1080,l),
(140,0,l),
(224,0,l),
(224,498,l),
(436,498,l),
(450,186,o),
(622,-30,o),
(928,-30,cs)
);
},
{
closed = 1;
nodes = (
(662,54,o),
(524,248,o),
(524,542,cs),
(524,848,o),
(672,1026,o),
(926,1026,cs),
(1196,1026,o),
(1332,838,o),
(1332,542,cs),
(1332,248,o),
(1200,54,o),
(924,54,cs)
);
}
);
width = 1502;
},
{
layerId = "0DA27741-1AFD-43F2-A947-40AFBF8D6498";
shapes = (
{
closed = 1;
nodes = (
(1436,-30,o),
(1662,204,o),
(1662,542,cs),
(1662,870,o),
(1440,1110,o),
(1120,1110,cs),
(868,1110,o),
(668,958,o),
(620,676,c),
(410,676,l),
(410,1080,l),
(138,1080,l),
(138,0,l),
(410,0,l),
(410,404,l),
(620,404,l),
(668,126,o),
(866,-30,o),
(1114,-30,cs)
);
},
{
closed = 1;
nodes = (
(944,224,o),
(856,346,o),
(856,542,cs),
(856,728,o),
(936,856,o),
(1112,856,cs),
(1286,856,o),
(1374,734,o),
(1374,540,cs),
(1374,354,o),
(1288,224,o),
(1112,224,cs)
);
}
);
width = 1742;
},
{
associatedMasterId = "0DA27741-1AFD-43F2-A947-40AFBF8D6498";
layerId = "A2873047-0ED6-4C67-9B4D-3870B51BD5C6";
width = 1200;
},
{
associatedMasterId = "0DA27741-1AFD-43F2-A947-40AFBF8D6498";
layerId = "55314CA7-5524-4D70-B802-98D4FAE25636";
width = 1796;
},
{
associatedMasterId = "0DA27741-1AFD-43F2-A947-40AFBF8D6498";
layerId = "13A3DD5D-E91B-4961-8595-F8141D3FA442";
width = 1296;
}
);
metricLeft = n;
metricRight = o;
unicode = 1102;
},
{
glyphname = "ia-cy";
kernLeft = a;
kernRight = u;
lastChange = "2020-02-20 18:21:12 +0000";
layers = (
{
layerId = "CAA188E2-8C62-414B-93AE-B576BEB044DB";
shapes = (
{
closed = 1;
nodes = (
(924,0,l),
(922,1080,l),
(526,1080,ls),
(478,1080,o),
(414,1080,o),
(354,1064,cs),
(232,1030,o),
(120,926,o),
(120,754,cs),
(120,576,o),
(240,482,o),
(382,454,cs),
(428,446,o),
(482,438,o),
(546,438,cs),
(838,438,l),
(838,0,l)
);
},
{
closed = 1;
nodes = (
(180,0,l),
(514,480,l),
(410,480,l),
(80,0,l)
);
},
{
closed = 1;
nodes = (
(508,522,o),
(446,522,o),
(388,536,cs),
(282,562,o),
(210,632,o),
(210,756,cs),
(210,892,o),
(298,956,o),
(370,978,cs),
(430,996,o),
(512,996,o),
(550,996,cs),
(838,996,l),
(838,522,l),
(550,522,ls)
);
}
);
width = 1064;
},
{
layerId = "0DA27741-1AFD-43F2-A947-40AFBF8D6498";
shapes = (
{
closed = 1;
nodes = (
(1048,0,l),
(1048,1080,l),
(602,1080,ls),
(552,1080,o),
(468,1080,o),
(396,1066,cs),
(220,1032,o),
(106,908,o),
(106,710,cs),
(106,506,o),
(228,386,o),
(400,356,cs),
(468,344,o),
(556,344,o),
(602,344,cs),
(776,344,l),
(776,0,l)
);
},
{
closed = 1;
nodes = (
(364,0,l),
(604,400,l),
(324,400,l),
(80,0,l)
);
},
{
closed = 1;
nodes = (
(550,554,o),
(520,556,o),
(492,564,cs),
(436,580,o),
(382,636,o),
(382,712,cs),
(382,784,o),
(432,844,o),
(488,860,cs),
(518,868,o),
(548,870,o),
(572,870,cs),
(776,870,l),
(776,554,l),
(572,554,ls)
);
}
);
width = 1188;
},
{
associatedMasterId = "0DA27741-1AFD-43F2-A947-40AFBF8D6498";
layerId = "A2873047-0ED6-4C67-9B4D-3870B51BD5C6";
width = 1200;
},
{
associatedMasterId = "0DA27741-1AFD-43F2-A947-40AFBF8D6498";
layerId = "55314CA7-5524-4D70-B802-98D4FAE25636";
width = 998;
},
{
associatedMasterId = "0DA27741-1AFD-43F2-A947-40AFBF8D6498";
layerId = "13A3DD5D-E91B-4961-8595-F8141D3FA442";
width = 1168;
}
);
metricLeft = a;
metricRight = u;
unicode = 1103;
},
{
glyphname = "dje-cy";
kernLeft = h;
kernRight = h;
lastChange = "2020-02-20 18:21:12 +0000";
layers = (
{
layerId = "CAA188E2-8C62-414B-93AE-B576BEB044DB";
shapes = (
{
closed = 1;
nodes = (
(984,-346,o),
(1026,-300,o),
(1026,-190,cs),
(1026,588,ls),
(1026,908,o),
(862,1104,o),
(588,1104,cs),
(436,1104,o),
(298,1044,o),
(218,906,c),
(218,1200,l),
(480,1200,l),
(480,1284,l),
(218,1284,l),
(218,1440,l),
(140,1440,l),
(140,1284,l),
(0,1284,l),
(0,1200,l),
(140,1200,l),
(140,0,l),
(224,0,l),
(224,590,ls),
(224,822,o),
(324,1022,o),
(588,1022,cs),
(812,1022,o),
(942,880,o),
(942,572,cs),
(942,-110,ls),
(942,-252,o),
(922,-286,o),
(792,-266,c),
(792,-348,l),
(826,-358,o),
(884,-362,o),
(920,-356,cs)
);
}
);
width = 1146;
},
{
layerId = "0DA27741-1AFD-43F2-A947-40AFBF8D6498";
shapes = (
{
closed = 1;
nodes = (
(1080,-436,o),
(1152,-334,o),
(1152,-176,cs),
(1152,606,ls),
(1152,696,o),
(1152,1112,o),
(730,1112,cs),
(574,1112,o),
(458,1056,o),
(380,968,c),
(380,1160,l),
(580,1160,l),
(580,1368,l),
(380,1368,l),
(380,1440,l),
(140,1440,l),
(140,1368,l),
(36,1368,l),
(36,1160,l),
(140,1160,l),
(140,0,l),
(414,0,l),
(414,548,ls),
(414,816,o),
(550,856,o),
(644,856,cs),
(876,856,o),
(876,608,o),
(876,510,cs),
(876,-132,ls),
(876,-294,o),
(754,-272,o),
(692,-268,c),
(692,-458,l),
(746,-472,o),
(848,-490,o),
(942,-468,cs)
);
}
);
width = 1272;
},
{
associatedMasterId = "0DA27741-1AFD-43F2-A947-40AFBF8D6498";
layerId = "A2873047-0ED6-4C67-9B4D-3870B51BD5C6";
width = 1200;
},
{
associatedMasterId = "0DA27741-1AFD-43F2-A947-40AFBF8D6498";
layerId = "55314CA7-5524-4D70-B802-98D4FAE25636";
width = 1128;
},
{
associatedMasterId = "0DA27741-1AFD-43F2-A947-40AFBF8D6498";
layerId = "13A3DD5D-E91B-4961-8595-F8141D3FA442";
width = 1188;
}
);
metricRight = h;
unicode = 1106;
},
{
glyphname = "ustrait-cy";
kernLeft = v;
kernRight = v;
lastChange = "2020-02-20 18:21:12 +0000";
layers = (
{
layerId = "CAA188E2-8C62-414B-93AE-B576BEB044DB";
shapes = (
{
closed = 1;
nodes = (
(524,-360,l),
(524,0,l),
(916,1080,l),
(828,1080,l),
(478,122,l),
(130,1080,l),
(40,1080,l),
(432,0,l),
(432,-360,l)
);
}
);
width = 956;
},
{
layerId = "0DA27741-1AFD-43F2-A947-40AFBF8D6498";
shapes = (
{
closed = 1;
nodes = (
(704,-360,l),
(704,0,l),
(1096,1080,l),
(824,1080,l),
(568,332,l),
(312,1080,l),
(40,1080,l),
(432,0,l),
(432,-360,l)
);
}
);
width = 1136;
},
{
associatedMasterId = "0DA27741-1AFD-43F2-A947-40AFBF8D6498";
layerId = "A2873047-0ED6-4C67-9B4D-3870B51BD5C6";
width = 1200;
},
{
associatedMasterId = "0DA27741-1AFD-43F2-A947-40AFBF8D6498";
layerId = "55314CA7-5524-4D70-B802-98D4FAE25636";
width = 952;
},
{
associatedMasterId = "0DA27741-1AFD-43F2-A947-40AFBF8D6498";
layerId = "13A3DD5D-E91B-4961-8595-F8141D3FA442";
width = 1160;
}
);
metricLeft = v;
metricRight = v;
unicode = 1199;
},
{
glyphname = "obarred-cy";
kernLeft = o;
kernRight = o;
lastChange = "2020-02-20 18:21:12 +0000";
layers = (
{
layerId = "CAA188E2-8C62-414B-93AE-B576BEB044DB";
shapes = (
{
closed = 1;
nodes = (
(1008,498,l),
(1008,582,l),
(156,582,l),
(156,498,l)
);
},
{
ref = o;
}
);
width = 1148;
},
{
layerId = "0DA27741-1AFD-43F2-A947-40AFBF8D6498";
shapes = (
{
closed = 1;
nodes = (
(1054,436,l),
(1054,646,l),
(202,646,l),
(202,436,l)
);
},
{
ref = o;
}
);
width = 1254;
},
{
associatedMasterId = "0DA27741-1AFD-43F2-A947-40AFBF8D6498";
layerId = "A2873047-0ED6-4C67-9B4D-3870B51BD5C6";
width = 1200;
},
{
associatedMasterId = "0DA27741-1AFD-43F2-A947-40AFBF8D6498";
layerId = "55314CA7-5524-4D70-B802-98D4FAE25636";
width = 1176;
},
{
associatedMasterId = "0DA27741-1AFD-43F2-A947-40AFBF8D6498";
layerId = "13A3DD5D-E91B-4961-8595-F8141D3FA442";
width = 1196;
}
);
unicode = 1257;
},
{
glyphname = "ve-cy.loclBGR";
kernLeft = b;
kernRight = B;
lastChange = "2020-02-20 18:21:12 +0000";
layers = (
{
layerId = "0DA27741-1AFD-43F2-A947-40AFBF8D6498";
shapes = (
{
closed = 1;
nodes = (
(958,-30,o),
(1172,134,o),
(1172,424,cs),
(1172,620,o),
(1072,776,o),
(896,816,c),
(902,758,l),
(1010,828,o),
(1058,936,o),
(1058,1052,cs),
(1058,1292,o),
(858,1470,o),
(588,1470,cs),
(404,1470,o),
(212,1386,o),
(154,1188,cs),
(138,1134,o),
(138,1090,o),
(138,1060,cs),
(138,470,ls),
(138,410,o),
(138,346,o),
(158,274,cs),
(218,58,o),
(404,-30,o),
(638,-30,cs)
);
},
{
closed = 1;
nodes = (
(562,222,o),
(456,252,o),
(426,334,cs),
(412,372,o),
(412,430,o),
(412,450,cs),
(412,986,ls),
(412,1012,o),
(412,1080,o),
(438,1132,cs),
(472,1198,o),
(540,1216,o),
(594,1216,cs),
(692,1216,o),
(784,1158,o),
(784,1046,cs),
(784,952,o),
(720,888,o),
(598,880,c),
(598,644,l),
(776,644,o),
(900,582,o),
(900,436,cs),
(900,304,o),
(798,222,o),
(650,222,cs)
);
}
);
width = 1232;
},
{
layerId = "CAA188E2-8C62-414B-93AE-B576BEB044DB";
shapes = (
{
closed = 1;
nodes = (
(874,-30,o),
(1030,152,o),
(1030,386,cs),
(1030,682,o),
(784,794,o),
(650,784,c),
(626,774,l),
(806,784,o),
(898,920,o),
(898,1104,cs),
(898,1340,o),
(748,1470,o),
(520,1470,cs),
(332,1470,o),
(218,1382,o),
(170,1256,cs),
(150,1206,o),
(140,1138,o),
(140,1064,cs),
(140,408,ls),
(140,350,o),
(146,296,o),
(156,254,cs),
(196,92,o),
(346,-30,o),
(584,-30,cs)
);
},
{
closed = 1;
nodes = (
(426,56,o),
(284,140,o),
(248,264,cs),
(238,300,o),
(232,350,o),
(232,408,cs),
(232,1042,ls),
(232,1100,o),
(236,1160,o),
(252,1212,cs),
(290,1332,o),
(398,1386,o),
(522,1386,cs),
(700,1386,o),
(808,1278,o),
(808,1106,cs),
(808,914,o),
(672,832,o),
(520,812,c),
(520,728,l),
(780,720,o),
(940,598,o),
(940,390,cs),
(940,192,o),
(794,56,o),
(588,56,cs)
);
}
);
width = 1088;
}
);
metricLeft = b;
metricRight = B;
},
{
glyphname = "zhe-cy.loclBGR";
kernLeft = x;
kernRight = x;
lastChange = "2020-02-20 18:21:12 +0000";
layers = (
{
layerId = "0DA27741-1AFD-43F2-A947-40AFBF8D6498";
shapes = (
{
closed = 1;
nodes = (
(334,0,l),
(668,520,l),
(668,0,l),
(908,0,l),
(908,520,l),
(1242,0,l),
(1556,0,l),
(1180,540,l),
(1530,1080,l),
(1234,1080,l),
(908,560,l),
(908,1440,l),
(668,1440,l),
(668,560,l),
(342,1080,l),
(46,1080,l),
(396,540,l),
(20,0,l)
);
}
);
width = 1628;
},
{
layerId = "CAA188E2-8C62-414B-93AE-B576BEB044DB";
shapes = (
{
closed = 1;
nodes = (
(122,0,l),
(612,538,l),
(612,0,l),
(696,0,l),
(696,538,l),
(1186,0,l),
(1286,0,l),
(790,540,l),
(1270,1080,l),
(1170,1080,l),
(696,542,l),
(696,1440,l),
(612,1440,l),
(612,542,l),
(138,1080,l),
(38,1080,l),
(518,540,l),
(22,0,l)
);
}
);
width = 1304;
}
);
},
{
glyphname = "tse-cy.loclBGR";
kernLeft = u;
kernRight = "tse-cy";
lastChange = "2020-02-20 18:21:12 +0000";
layers = (
{
layerId = "0DA27741-1AFD-43F2-A947-40AFBF8D6498";
shapes = (
{
closed = 1;
nodes = (
(1032,0,l),
(1032,-180,l),
(1304,-180,l),
(1304,240,l),
(892,240,l),
(892,0,l)
);
},
{
ref = u;
}
);
width = 1324;
},
{
layerId = "CAA188E2-8C62-414B-93AE-B576BEB044DB";
shapes = (
{
closed = 1;
nodes = (
(1068,0,l),
(1068,-160,l),
(1152,-160,l),
(1152,84,l),
(928,84,l),
(928,0,l)
);
},
{
ref = u;
}
);
width = 1172;
}
);
metricRight = "tse-cy";
},
{
glyphname = "shcha-cy.loclBGR";
kernLeft = u;
kernRight = "tse-cy";
lastChange = "2020-02-20 18:21:12 +0000";
layers = (
{
layerId = "0DA27741-1AFD-43F2-A947-40AFBF8D6498";
shapes = (
{
closed = 1;
nodes = (
(1592,0,l),
(1592,-240,l),
(1864,-240,l),
(1864,240,l),
(1452,240,l),
(1452,0,l)
);
},
{
angle = 180;
pos = (1832,1080);
ref = m;
}
);
width = 1884;
},
{
layerId = "CAA188E2-8C62-414B-93AE-B576BEB044DB";
shapes = (
{
closed = 1;
nodes = (
(1550,0,l),
(1550,-160,l),
(1634,-160,l),
(1634,84,l),
(1410,84,l),
(1410,0,l)
);
},
{
angle = 180;
pos = (1628,1080);
ref = m;
}
);
width = 1654;
}
);
metricLeft = u;
metricRight = "tse-cy";
},
{
glyphname = "iu-cy.loclBGR";
kernLeft = n;
kernRight = u;
lastChange = "2020-02-20 18:21:12 +0000";
layers = (
{
layerId = "0DA27741-1AFD-43F2-A947-40AFBF8D6498";
shapes = (
{
closed = 1;
nodes = (
(412,0,l),
(412,1440,l),
(140,1440,l),
(140,0,l)
);
},
{
ref = "iu-cy";
}
);
width = 1734;
},
{
layerId = "CAA188E2-8C62-414B-93AE-B576BEB044DB";
shapes = (
{
closed = 1;
nodes = (
(224,0,l),
(224,1440,l),
(140,1440,l),
(140,0,l)
);
},
{
ref = "iu-cy";
}
);
width = 1502;
}
);
},
{
glyphname = Delta;
kernLeft = A;
kernRight = A;
lastChange = "2020-02-20 18:21:12 +0000";
layers = (
{
layerId = "0DA27741-1AFD-43F2-A947-40AFBF8D6498";
shapes = (
{
closed = 1;
nodes = (
(1140,0,l),
(1140,254,l),
(230,254,l),
(230,0,l)
);
},
{
pos = (30,0);
ref = Lambda;
}
);
width = 1366;
},
{
layerId = "CAA188E2-8C62-414B-93AE-B576BEB044DB";
shapes = (
{
closed = 1;
nodes = (
(1108,0,l),
(1108,84,l),
(110,84,l),
(110,0,l)
);
},
{
pos = (30,0);
ref = Lambda;
}
);
width = 1218;
}
);
metricLeft = A;
metricRight = A;
unicode = 916;
},
{
glyphname = Xi;
kernLeft = H;
kernRight = H;
lastChange = "2020-02-20 18:21:12 +0000";
layers = (
{
layerId = "0DA27741-1AFD-43F2-A947-40AFBF8D6498";
shapes = (
{
closed = 1;
nodes = (
(1328,1186,l),
(1328,1440,l),
(140,1440,l),
(140,1186,l)
);
},
{
closed = 1;
nodes = (
(1328,0,l),
(1328,254,l),
(140,254,l),
(140,0,l)
);
},
{
closed = 1;
nodes = (
(1228,594,l),
(1228,848,l),
(240,848,l),
(240,594,l)
);
}
);
width = 1468;
},
{
layerId = "CAA188E2-8C62-414B-93AE-B576BEB044DB";
shapes = (
{
closed = 1;
nodes = (
(1200,1356,l),
(1200,1440,l),
(140,1440,l),
(140,1356,l)
);
},
{
closed = 1;
nodes = (
(1200,0,l),
(1200,84,l),
(140,84,l),
(140,0,l)
);
},
{
closed = 1;
nodes = (
(1100,678,l),
(1100,762,l),
(240,762,l),
(240,678,l)
);
}
);
width = 1340;
}
);
metricLeft = H;
metricRight = H;
unicode = 926;
},
{
glyphname = Sigma;
kernLeft = M;
kernRight = M;
lastChange = "2020-02-20 18:21:12 +0000";
layers = (
{
layerId = "0DA27741-1AFD-43F2-A947-40AFBF8D6498";
shapes = (
{
closed = 1;
nodes = (
(1120,0,l),
(1120,254,l),
(476,254,l),
(916,702,l),
(916,738,l),
(476,1186,l),
(1120,1186,l),
(1120,1440,l),
(140,1440,l),
(140,1196,l),
(608,720,l),
(140,244,l),
(140,0,l)
);
}
);
width = 1260;
},
{
layerId = "CAA188E2-8C62-414B-93AE-B576BEB044DB";
shapes = (
{
closed = 1;
nodes = (
(1142,0,l),
(1142,84,l),
(282,84,l),
(896,704,l),
(896,736,l),
(282,1356,l),
(1180,1356,l),
(1180,1440,l),
(140,1440,l),
(140,1356,l),
(770,720,l),
(140,80,l),
(140,0,l)
);
}
);
width = 1320;
}
);
metricLeft = M;
metricRight = M;
unicode = 931;
},
{
glyphname = Psi;
kernLeft = M;
kernRight = M;
lastChange = "2020-02-20 18:21:12 +0000";
layers = (
{
layerId = "0DA27741-1AFD-43F2-A947-40AFBF8D6498";
shapes = (
{
closed = 1;
nodes = (
(902,0,l),
(902,302,l),
(1126,314,o),
(1322,400,o),
(1378,650,cs),
(1388,696,o),
(1392,742,o),
(1392,790,cs),
(1392,1440,l),
(1138,1440,l),
(1138,816,ls),
(1138,802,o),
(1138,766,o),
(1130,726,cs),
(1104,596,o),
(1012,558,o),
(902,554,c),
(902,1440,l),
(630,1440,l),
(630,554,l),
(526,556,o),
(440,580,o),
(406,710,cs),
(394,756,o),
(394,796,o),
(394,816,cs),
(394,1440,l),
(140,1440,l),
(140,790,ls),
(140,752,o),
(144,692,o),
(154,646,cs),
(206,398,o),
(404,312,o),
(630,302,c),
(630,0,l)
);
}
);
width = 1532;
},
{
layerId = "CAA188E2-8C62-414B-93AE-B576BEB044DB";
shapes = (
{
closed = 1;
nodes = (
(732,0,l),
(732,374,l),
(970,378,o),
(1130,516,o),
(1202,698,cs),
(1240,794,o),
(1240,870,o),
(1240,910,cs),
(1240,1440,l),
(1156,1440,l),
(1156,1014,ls),
(1156,964,o),
(1156,874,o),
(1136,790,cs),
(1090,598,o),
(944,454,o),
(732,454,c),
(732,1440,l),
(648,1440,l),
(648,454,l),
(436,456,o),
(290,598,o),
(244,790,cs),
(224,874,o),
(224,964,o),
(224,1014,cs),
(224,1440,l),
(140,1440,l),
(140,910,ls),
(140,870,o),
(140,794,o),
(178,698,cs),
(250,518,o),
(406,380,o),
(648,374,c),
(648,0,l)
);
}
);
width = 1380;
}
);
metricLeft = M;
metricRight = M;
unicode = 936;
},
